<?xml version="1.0" encoding="UTF-8"?>
<svg version="1.1" xmlns="http://www.w3.org/2000/svg" width="1024" height="1024">
<path d="M0 0 C337.92 0 675.84 0 1024 0 C1024 337.92 1024 675.84 1024 1024 C686.08 1024 348.16 1024 0 1024 C0 686.08 0 348.16 0 0 Z " fill="#718DA6" transform="translate(0,0)"/>
<path d="M0 0 C0.88526367 0.10683105 1.77052734 0.21366211 2.68261719 0.32373047 C22.55240376 2.75066589 41.79169708 8.5849703 60.23291016 16.27148438 C62.51144858 17.21085418 64.81889247 18.06842146 67.125 18.9375 C87.68645213 27.29496098 106.64981013 39.26547201 124 53 C124.94746094 53.73476562 125.89492188 54.46953125 126.87109375 55.2265625 C175.78196778 94.03548781 210.49228136 151.9270439 223 213 C223.14034668 213.68384766 223.28069336 214.36769531 223.42529297 215.07226562 C229.49242894 245.34362953 229.1016984 275.4716448 225 306 C224.88785156 306.86302734 224.77570312 307.72605469 224.66015625 308.61523438 C220.87807391 336.93415952 210.92823449 365.0954852 197 390 C196.66323242 390.60489258 196.32646484 391.20978516 195.97949219 391.83300781 C178.77405449 422.35465403 154.20972014 452.08390107 126 473 C125.3910791 473.46889648 124.7821582 473.93779297 124.15478516 474.42089844 C112.13743894 483.67031726 99.50970847 491.1391776 86 498 C85.17854492 498.41765625 84.35708984 498.8353125 83.51074219 499.265625 C55.75199167 513.21861588 25.44349953 523.60183797 -5.40722656 527.65771484 C-7.75372526 527.96748802 -10.09049353 528.31578218 -12.4296875 528.67578125 C-37.86349344 532.33787128 -62.91253751 529.78590138 -88.01135254 525.34991455 C-89.34747024 525.11481656 -90.68432621 524.8838798 -92.02185059 524.65692139 C-101.73298363 523.00844999 -111.10131871 520.73692045 -120.5 517.75 C-121.12619232 517.55302521 -121.75238464 517.35605042 -122.39755249 517.15310669 C-132.26747907 514.04047059 -141.71613618 510.55977382 -151 506 C-151.62519531 505.69771484 -152.25039063 505.39542969 -152.89453125 505.08398438 C-156.90686532 503.14214334 -160.88567217 501.14165986 -164.84912109 499.10205078 C-167.13910713 497.92872536 -169.43862798 496.77534369 -171.73828125 495.62109375 C-181.82655938 490.50218179 -191.03988706 484.89597607 -200 478 C-201.21872296 477.08069332 -202.43747353 476.16142324 -203.65625 475.2421875 C-209.84063895 470.52647798 -215.58970906 465.67521999 -220.984375 460.05078125 C-222.94762799 458.05328548 -224.98708648 456.24493452 -227.125 454.4375 C-230.52243267 451.52445377 -233.40383627 448.36790323 -236.29296875 444.95703125 C-237.91260807 443.10019075 -239.60123291 441.39602508 -241.375 439.6875 C-245.99409992 435.13026302 -249.98037248 430.08424873 -254 425 C-255.03060547 423.72962891 -255.03060547 423.72962891 -256.08203125 422.43359375 C-271.00088599 403.41828168 -282.5698541 381.60008688 -291 359 C-291.24991699 358.33919434 -291.49983398 357.67838867 -291.75732422 356.99755859 C-303.6318013 325.41009419 -308.84783867 291.69991828 -308 258 C-307.98598145 257.21753906 -307.97196289 256.43507813 -307.95751953 255.62890625 C-307.5508299 235.47051706 -305.08941073 215.03071569 -299.13671875 195.734375 C-298.17500755 192.57493888 -297.42914442 189.47707552 -296.75 186.25 C-293.26410655 172.17086367 -286.46010565 158.69500411 -280.3125 145.625 C-279.87357422 144.68100342 -279.43464844 143.73700684 -278.98242188 142.7644043 C-276.52985921 137.64894148 -273.83187233 133.21949672 -270.32348633 128.76513672 C-268.55926687 126.41219323 -267.38041798 123.93122518 -266.1875 121.25 C-263.46094473 115.58276209 -260.08237173 110.82694229 -256.2265625 105.875 C-254.20188737 103.26068263 -252.30447076 100.60299381 -250.4375 97.875 C-246.87819111 92.75225637 -243.24193737 87.58324268 -239 83 C-238.34 83 -237.68 83 -237 83 C-236.80277344 82.46761719 -236.60554688 81.93523437 -236.40234375 81.38671875 C-234.35971877 77.91027345 -231.53331355 75.50554976 -228.5625 72.8125 C-227.6180603 71.94757935 -227.6180603 71.94757935 -226.65454102 71.06518555 C-221.26678244 66.16728523 -215.72384952 61.50135832 -210 57 C-208.99582031 56.20078125 -207.99164063 55.4015625 -206.95703125 54.578125 C-191.94006429 42.72968487 -176.10968918 33.54453577 -159 25 C-158.1426123 24.5673584 -157.28522461 24.1347168 -156.40185547 23.68896484 C-145.20552481 18.06532814 -134.00901002 13.55865229 -122 10 C-121.08492676 9.71914551 -120.16985352 9.43829102 -119.22705078 9.14892578 C-80.07895638 -2.76119157 -40.46739471 -5.2104749 0 0 Z " fill="#FAF6EF" transform="translate(552,202)"/>
<path d="M0 0 C27.40876765 -0.56487285 53.93434954 1.58741698 80.65380859 8.08251953 C81.49298828 8.28151855 82.33216797 8.48051758 83.19677734 8.68554688 C106.29320475 14.28982705 129.86140621 23.60014806 150.65380859 35.08251953 C151.96468507 35.78234073 153.27589638 36.48153499 154.58740234 37.18017578 C186.3982414 54.36353857 215.65212255 79.06877662 237.84130859 107.58251953 C238.3048877 108.17798584 238.7684668 108.77345215 239.24609375 109.38696289 C240.22431273 110.64731633 241.20085706 111.90897121 242.17578125 113.171875 C243.15050856 114.43190406 244.12926989 115.68882422 245.11230469 116.94238281 C290.10821355 174.37275829 314.87602365 252.70522566 306.93505859 325.75439453 C306.056228 332.57012057 304.90416703 339.32626884 303.65380859 346.08251953 C303.47188965 347.11376953 303.2899707 348.14501953 303.10253906 349.20751953 C294.1663483 399.29490869 270.99291615 451.74341197 234.65380859 488.08251953 C233.19442006 489.83535782 231.75696992 491.60667953 230.34130859 493.39501953 C224.10653821 501.08525784 217.16747732 507.66778875 209.65380859 514.08251953 C208.26935547 515.30068359 208.26935547 515.30068359 206.85693359 516.54345703 C189.63317338 531.57894139 170.04741458 544.74975916 149.65380859 555.08251953 C148.95682861 555.4430542 148.25984863 555.80358887 147.54174805 556.17504883 C140.40289915 559.82195085 133.08861313 563.00240178 125.71630859 566.14501953 C124.518125 566.66128906 123.31994141 567.17755859 122.08544922 567.70947266 C64.72781454 592.24666242 -9.17510418 600.57195336 -69.09887695 579.79199219 C-71.73120437 578.96097171 -74.38398228 578.34723334 -77.07275391 577.72314453 C-83.78812029 576.0815281 -90.03860501 573.61702369 -96.40869141 570.95751953 C-97.58898926 570.46888428 -98.76928711 569.98024902 -99.98535156 569.47680664 C-127.13028115 558.14089213 -154.10369118 544.5121139 -176.64697266 525.35205078 C-179.21052083 523.19659277 -181.82719527 521.14282719 -184.47973633 519.09960938 C-193.887386 511.83984236 -202.99379153 504.22704982 -210.65087891 495.09033203 C-212.58882957 492.79515544 -214.62154107 490.6025239 -216.65869141 488.39501953 C-233.53899923 469.56044788 -246.92481902 447.74040066 -258.97558594 425.59326172 C-260.2046382 423.34182363 -261.45549495 421.10477191 -262.71728516 418.87158203 C-275.935521 395.22236153 -282.64986107 367.57313884 -287.34619141 341.08251953 C-287.50007324 340.23818359 -287.65395508 339.39384766 -287.8125 338.52392578 C-293.25861404 307.57822263 -290.55263931 276.81374808 -285.34619141 246.08251953 C-285.05567182 244.23488765 -284.76528226 242.38723531 -284.47509766 240.53955078 C-277.09270837 196.67181297 -256.96948745 154.4148855 -230.34619141 119.08251953 C-229.79576172 118.34904297 -229.24533203 117.61556641 -228.67822266 116.85986328 C-226.93200876 114.57443844 -225.14605179 112.32593003 -223.34619141 110.08251953 C-222.66169922 109.21111328 -221.97720703 108.33970703 -221.27197266 107.44189453 C-214.91987181 99.62707159 -207.94360813 92.46441464 -200.84619141 85.33251953 C-200.36190674 84.84305847 -199.87762207 84.35359741 -199.37866211 83.8493042 C-192.71703897 77.13167029 -185.77724022 70.9423639 -178.34619141 65.08251953 C-177.74967773 64.60105469 -177.15316406 64.11958984 -176.53857422 63.62353516 C-156.4484476 47.41136067 -133.70733525 34.49965628 -109.72460938 25.02685547 C-107.25775309 24.04740565 -104.80353471 23.04039179 -102.35009766 22.02783203 C-75.48742875 10.99647828 -48.30797152 3.99261033 -19.34619141 1.08251953 C-18.07259766 0.95103516 -16.79900391 0.81955078 -15.48681641 0.68408203 C-10.32478702 0.26706219 -5.17492146 0.12761735 0 0 Z M-145.34619141 77.08251953 C-146.6503249 78.02339208 -147.95503988 78.96345902 -149.26025391 79.90283203 C-158.73485479 86.79696142 -167.61749151 94.27426594 -176.34619141 102.08251953 C-177.2460376 102.87964355 -177.2460376 102.87964355 -178.1640625 103.69287109 C-183.3679369 108.26856717 -183.3679369 108.26856717 -188.34619141 113.08251953 C-188.34619141 113.74251953 -188.34619141 114.40251953 -188.34619141 115.08251953 C-189.00619141 115.08251953 -189.66619141 115.08251953 -190.34619141 115.08251953 C-195.65522882 120.77000157 -200.22278128 127.14359822 -204.60009766 133.56298828 C-206.44771169 136.22900853 -208.39351396 138.80519206 -210.34619141 141.39501953 C-213.967508 146.34205896 -216.82783515 151.49853151 -219.64697266 156.93408203 C-221.16351159 159.74403693 -222.80071193 162.32187508 -224.59619141 164.95751953 C-239.05797123 187.31640609 -247.58940551 213.29780443 -253.34619141 239.08251953 C-253.51489746 239.82791992 -253.68360352 240.57332031 -253.85742188 241.34130859 C-257.46118288 257.47095151 -258.83094449 273.60734046 -259.34619141 290.08251953 C-259.38921387 291.26491211 -259.38921387 291.26491211 -259.43310547 292.47119141 C-260.43320986 322.87942861 -255.63975417 354.44930828 -245.34619141 383.08251953 C-245.04310059 383.9368457 -244.74000977 384.79117187 -244.42773438 385.67138672 C-240.17246511 397.5653727 -235.35769683 408.97079554 -229.34619141 420.08251953 C-228.73259766 421.22591797 -228.11900391 422.36931641 -227.48681641 423.54736328 C-219.21387407 438.46942663 -209.73601783 452.37914711 -198.34619141 465.08251953 C-197.61013672 465.91654297 -196.87408203 466.75056641 -196.11572266 467.60986328 C-193.88095981 470.12142736 -191.61788456 472.60430882 -189.34619141 475.08251953 C-188.59136475 475.91299805 -188.59136475 475.91299805 -187.82128906 476.76025391 C-179.45072372 486.02948948 -179.45072372 486.02948948 -170.26416016 494.46923828 C-168.89793815 495.61842298 -167.57049744 496.81438898 -166.27197266 498.03955078 C-153.79629467 509.79507078 -139.5656235 519.01507127 -124.44091797 526.97119141 C-122.48497125 528.00889181 -120.55022936 529.07668958 -118.61962891 530.16064453 C-88.72217675 546.82773186 -56.91503131 554.98040943 -23.31555176 559.7930603 C-21.43292013 560.06977203 -19.55395499 560.37109391 -17.67529297 560.67358398 C-9.40287564 561.97358478 -1.34154827 562.43260433 7.02880859 562.39501953 C8.32882812 562.39083008 9.62884766 562.38664063 10.96826172 562.38232422 C22.08743729 562.25442377 32.91895839 561.26859246 43.89355469 559.51806641 C46.52478091 559.10287911 49.15891003 558.73800445 51.79833984 558.37939453 C78.34098789 554.47005139 104.64900846 544.80155771 128.65380859 533.08251953 C129.63768555 532.6070166 130.6215625 532.13151367 131.63525391 531.64160156 C150.69666301 522.34085206 167.81432529 511.18530915 183.65380859 497.08251953 C184.23428955 496.58598877 184.81477051 496.08945801 185.4128418 495.57788086 C191.34948533 490.48149147 196.93151336 485.04680902 202.46630859 479.52001953 C202.95280884 479.03452637 203.43930908 478.5490332 203.94055176 478.04882812 C211.48675346 470.49207229 218.42942645 462.77137786 224.65380859 454.08251953 C225.51597701 452.91372907 226.37928688 451.74577988 227.24365234 450.57861328 C232.80881828 442.997505 237.84701982 435.16888924 242.65380859 427.08251953 C243.27642578 426.10025391 243.89904297 425.11798828 244.54052734 424.10595703 C255.0021143 407.00242948 261.94153975 387.24610598 267.65380859 368.08251953 C268.01861328 366.89529297 268.38341797 365.70806641 268.75927734 364.48486328 C277.80101605 332.09396025 279.37272728 295.2577512 274.65380859 262.08251953 C274.53021973 261.19322754 274.40663086 260.30393555 274.27929688 259.38769531 C268.80545395 221.32292335 254.27241793 182.9544838 232.65380859 151.08251953 C232.12384277 150.29248535 231.59387695 149.50245117 231.04785156 148.68847656 C223.54553662 137.54958417 215.67105675 127.03248271 206.65380859 117.08251953 C205.66794827 115.97460964 204.68227208 114.86653588 203.69677734 113.75830078 C172.53068409 79.03665356 132.61633762 55.71202554 88.65380859 41.08251953 C87.86458008 40.81262207 87.07535156 40.54272461 86.26220703 40.26464844 C12.26476059 15.30482386 -82.7027419 30.45482702 -145.34619141 77.08251953 Z " fill="#293141" transform="translate(503.34619140625,169.91748046875)"/>
<path d="M0 0 C6.92802674 2.34969644 11.61654376 7.07313859 16.62890625 12.203125 C17.42223862 12.99974548 18.21557098 13.79636597 19.03294373 14.61712646 C21.55232322 17.15217296 24.05720588 19.70104115 26.5625 22.25 C28.24847789 23.94748019 29.93531913 25.64410335 31.62304688 27.33984375 C33.25077453 28.981003 34.87775261 30.62290611 36.50390625 32.265625 C37.62606285 33.398862 37.62606285 33.398862 38.77088928 34.55499268 C42.12460153 37.96895777 45.398251 41.41148326 48.5234375 45.03662109 C52.19062019 49.28235489 56.12356667 53.2155156 60.12109375 57.1484375 C61.64791354 58.66263229 63.17460261 60.1769589 64.70117188 61.69140625 C67.084976 64.05023225 69.47036703 66.40741289 71.8581543 68.76220703 C74.17927571 71.05331293 76.49429207 73.35044606 78.80859375 75.6484375 C79.53034286 76.35672699 80.25209198 77.06501648 80.99571228 77.79476929 C81.98287987 78.77686874 81.98287987 78.77686874 82.98999023 79.77880859 C83.57288315 80.35424408 84.15577606 80.92967957 84.7563324 81.52255249 C86 83 86 83 86 85 C86.66 85 87.32 85 88 85 C89.2265625 86.28515625 89.2265625 86.28515625 90.625 88.0625 C92.79267099 90.69699088 95.01189956 92.96938775 97.62109375 95.1640625 C102.44925616 99.32874123 106.94169488 103.79460248 111.4375 108.3125 C112.25154297 109.12267578 113.06558594 109.93285156 113.90429688 110.76757812 C115.06348633 111.92870117 115.06348633 111.92870117 116.24609375 113.11328125 C116.94404053 113.81235596 117.6419873 114.51143066 118.36108398 115.23168945 C121.40061145 118.51119153 121.38723191 121.35405469 121.359375 125.671875 C120.75455722 129.59004236 118.83123243 131.30358816 116 134 C113.07917545 135.46041228 110.51698631 135.11928796 107.25537109 135.11352539 C106.21617775 135.11374443 106.21617775 135.11374443 105.1559906 135.1139679 C102.86177459 135.11327018 100.56763936 135.10548442 98.2734375 135.09765625 C96.68445887 135.09579157 95.09547966 135.0943679 93.50650024 135.09336853 C89.32090675 135.08954731 85.13534787 135.07972039 80.94976807 135.06866455 C76.68005847 135.05844194 72.4103433 135.05386909 68.140625 135.04882812 C59.76040077 135.03809778 51.38020469 135.02102608 43 135 C43.0018986 135.58943374 43.0037972 136.17886748 43.00575334 136.78616285 C43.11765662 171.72490922 43.20343926 206.66362474 43.25532665 241.60251305 C43.26158014 245.79816004 43.26805176 249.99380667 43.2746582 254.18945312 C43.27662553 255.4423636 43.27662553 255.4423636 43.2786326 256.72058541 C43.30038602 270.2432107 43.33980718 283.76572965 43.38576398 297.28829187 C43.43253042 311.16487615 43.46029579 325.04140475 43.47044247 338.91806459 C43.47730126 347.47997133 43.49895972 356.0415775 43.53958233 364.60339171 C43.56602305 370.47547134 43.57399801 376.34739569 43.56750689 382.21953052 C43.56430588 385.60709035 43.57193073 388.99370215 43.59602737 392.38124084 C43.62089533 396.05727342 43.61492602 399.73201884 43.60127258 403.40808105 C43.62311889 405.00732524 43.62311889 405.00732524 43.64540654 406.63887739 C43.57853582 413.29743503 42.44069933 417.90591617 38 423 C32.87055293 427.00096872 29.20368315 428.12236381 22.7878418 428.16113281 C21.50608566 428.17074036 20.22432953 428.1803479 18.9037323 428.19024658 C17.5022296 428.195095 16.10072482 428.19937372 14.69921875 428.203125 C13.26056416 428.20887936 11.82190957 428.21463706 10.383255 428.22039795 C7.36625817 428.23090039 4.34928793 428.2367478 1.33227539 428.24023438 C-2.52457317 428.24571343 -6.38106769 428.26973168 -10.23780537 428.29820633 C-13.2104544 428.31687617 -16.18301896 428.32204064 -19.15572166 428.32357025 C-20.57702759 428.32658821 -21.99833233 428.33458773 -23.41958046 428.34775543 C-25.41286806 428.36490275 -27.40630223 428.36107837 -29.3996582 428.35644531 C-30.53200394 428.36009094 -31.66434967 428.36373657 -32.83100891 428.36749268 C-38.10401408 427.75600759 -41.98050955 425.59538448 -45.3125 421.5 C-45.80363281 420.9121875 -46.29476562 420.324375 -46.80078125 419.71875 C-48.96102991 416.62262815 -49.12468037 413.90997773 -49.12304783 410.25799274 C-49.12503888 409.27666884 -49.12702993 408.29534493 -49.12908131 407.28428394 C-49.12616847 406.20355694 -49.12325563 405.12282994 -49.12025452 404.00935364 C-49.12110894 402.8633957 -49.12196337 401.71743777 -49.12284368 400.53675383 C-49.12420871 397.35107615 -49.12107315 394.16543891 -49.11606562 390.97976601 C-49.11175523 387.54624883 -49.11320797 384.1127336 -49.1139679 380.67921448 C-49.11449276 374.72878889 -49.1113499 368.77837426 -49.10573006 362.82795143 C-49.09760994 354.22459363 -49.09499931 345.62124114 -49.09374207 337.01787993 C-49.09155235 323.06017541 -49.08489445 309.10247673 -49.07543945 295.14477539 C-49.06626325 281.58455433 -49.05918343 268.02433486 -49.05493164 254.46411133 C-49.05466892 253.62854074 -49.05440619 252.79297015 -49.05413551 251.93207923 C-49.05283049 247.7403512 -49.05156678 243.54862315 -49.05032361 239.35689509 C-49.0399535 204.57125923 -49.02233737 169.78563015 -49 135 C-49.87839035 135.01918991 -50.7567807 135.03837982 -51.66178894 135.05815125 C-59.94517266 135.23637454 -68.22868821 135.39977531 -76.51269054 135.54658794 C-80.77145138 135.62258494 -85.02994278 135.70428255 -89.28833008 135.79907227 C-93.39894593 135.89036183 -97.50959209 135.96659293 -101.6206913 136.03244972 C-103.1880463 136.06019255 -104.75531547 136.09333392 -106.32243919 136.13199425 C-108.5199066 136.18527691 -110.71689761 136.21924453 -112.91479492 136.2487793 C-114.79010139 136.28541939 -114.79010139 136.28541939 -116.70329285 136.32279968 C-120.31741385 135.96892017 -122.12915944 135.18047286 -125 133 C-128.26023624 128.27827855 -129.02161314 123.58346982 -128 118 C-124.84158363 112.77227636 -119.97186832 109.53449654 -115.23828125 105.76171875 C-110.68443052 101.98982802 -106.60041118 97.72414555 -102.47900391 93.49243164 C-99.45209153 90.39707974 -96.39138406 87.42305209 -93.109375 84.59765625 C-88.50586431 80.62840208 -84.22304294 76.36985232 -79.9375 72.0625 C-79.17373047 71.30259766 -78.40996094 70.54269531 -77.62304688 69.75976562 C-72.87540049 65.00399667 -68.35837479 60.11393116 -64 55 C-59.51345868 49.78062979 -55.00554954 44.99884922 -49.7421875 40.5546875 C-47.53424644 38.58437238 -45.83065193 36.31882578 -44 34 C-42.54273477 32.80180414 -41.08444671 31.60473128 -39.61352539 30.42333984 C-37.85117437 28.86871639 -36.38824947 27.20846846 -34.87109375 25.4140625 C-30.73805585 20.63528848 -26.33930083 16.15550257 -21.875 11.6875 C-21.08996094 10.89021484 -20.30492187 10.09292969 -19.49609375 9.27148438 C-18.73167969 8.50513672 -17.96726562 7.73878906 -17.1796875 6.94921875 C-16.49632324 6.26174561 -15.81295898 5.57427246 -15.10888672 4.8659668 C-10.38204346 0.68360247 -6.33530691 -1.03385587 0 0 Z " fill="#27303F" transform="translate(515,250)"/>
<path d="M0 0 C2.05741648 -0.00072437 4.11482678 -0.00288386 6.17224169 -0.00549722 C13.4215986 -0.0146751 20.67093747 -0.01884193 27.92030001 -0.01804566 C33.82918185 -0.01751362 39.73799748 -0.02457066 45.64686251 -0.03855348 C121.88513033 -0.21463902 121.88513033 -0.21463902 157.31043673 4.54225707 C159.00778117 4.76289851 160.70512822 4.98351992 162.40247774 5.2041223 C171.09073684 6.35109599 179.76591427 7.56786293 188.37293673 9.22975707 C189.09787325 9.36752563 189.82280977 9.50529418 190.56971407 9.64723754 C196.57518341 10.92737751 202.91046496 13.00299555 207.62293673 17.04225707 C208.43543673 19.16725707 208.43543673 19.16725707 208.24793673 22.16725707 C204.73547992 27.98097867 197.49579626 28.95698215 191.24012423 30.65553832 C182.90832183 32.70177791 174.45869304 33.38487729 165.93543673 34.16725707 C164.14503821 34.33665796 162.35467421 34.50642393 160.56434298 34.67653441 C156.9190674 35.0206013 153.27323173 35.35766545 149.62684298 35.68971801 C145.69997844 36.04809941 141.77551538 36.42607164 137.85157442 36.81497741 C85.60103783 41.95439337 32.91553975 42.32382009 -19.4757266 39.57993102 C-25.37920086 39.27192054 -31.28299743 39.00547469 -37.18956327 38.76491332 C-54.80411338 38.02043688 -72.28584192 36.63332942 -89.81456327 34.72975707 C-91.25457701 34.57463149 -91.25457701 34.57463149 -92.72368193 34.41637206 C-136.03230774 29.6995126 -136.03230774 29.6995126 -143.56456327 22.16725707 C-143.89456327 21.17725707 -144.22456327 20.18725707 -144.56456327 19.16725707 C-136.85782649 10.4426494 -121.03326485 9.66164873 -110.05308867 7.63478637 C-108.45240968 7.33406035 -106.85474768 7.01653507 -105.26158476 6.6782434 C-96.20825995 4.83989078 -87.01747925 4.16113209 -77.82701445 3.36232543 C-74.92821679 3.10922342 -72.03060435 2.84490287 -69.13292265 2.57936645 C-46.10045175 0.51520875 -23.11702068 0.00460403 0 0 Z " fill="#4F6A89" transform="translate(479.56456327438354,819.8327429294586)"/>
<path d="M0 0 C2.63233316 1.65166002 4.02669896 2.74964228 6 5 C6.5067627 5.5777417 7.01352539 6.1554834 7.53564453 6.75073242 C8.35718018 7.6997644 8.35718018 7.6997644 9.1953125 8.66796875 C12.94402306 12.96131347 16.78756641 17.15636291 20.6875 21.3125 C21.38157959 22.05234131 22.07565918 22.79218262 22.79077148 23.55444336 C27.7955609 28.84005803 33.00537309 33.77711138 38.4296875 38.625 C48.74017179 48.15201284 48.74017179 48.15201284 49.30078125 54.296875 C48.94813989 58.63848555 48.02203206 60.01337145 45.1875 63.25 C44.37539063 64.17941406 43.56328125 65.10882813 42.7265625 66.06640625 C33.82248144 75.73808051 33.82248144 75.73808051 29 80 C28.34 80 27.68 80 27 80 C27 80.66 27 81.32 27 82 C26.34 82 25.68 82 25 82 C24.773125 82.5775 24.54625 83.155 24.3125 83.75 C22.65273655 86.59530878 20.57933333 87.93653334 18 90 C16.2680595 91.85719305 14.62135388 93.77508714 12.96875 95.703125 C10.75579439 98.28490655 8.51093116 100.83512279 6.25 103.375 C5.51265625 104.20773437 4.7753125 105.04046875 4.015625 105.8984375 C1.63581322 108.37971413 -0.06049786 109.87492696 -3.5234375 110.3359375 C-4.93496094 110.35527344 -4.93496094 110.35527344 -6.375 110.375 C-7.31085937 110.40335937 -8.24671875 110.43171875 -9.2109375 110.4609375 C-13.94756249 109.67813393 -16.26861848 106.90514947 -19.203125 103.2734375 C-19.87859375 102.31695312 -20.5540625 101.36046875 -21.25 100.375 C-21.93578125 99.41335938 -22.6215625 98.45171875 -23.328125 97.4609375 C-26.36820759 92.98604957 -26.99392897 89.34993074 -26 84 C-22.51255351 77.85075689 -15.98922516 73.16400906 -10.78955078 68.44897461 C-6.52663605 64.56541334 -2.63036647 60.48845308 1 56 C-0.59562371 51.95839024 -3.48367686 49.37230136 -6.5625 46.4375 C-12.18392923 40.94999505 -17.19982945 35.23108819 -22 29 C-22.47566406 28.41476562 -22.95132813 27.82953125 -23.44140625 27.2265625 C-25.32409229 24.74692722 -26.05285279 22.74534565 -26.6875 19.6875 C-25.2247868 11.84203828 -18.66565946 5.84983858 -12.3984375 1.26171875 C-8.2491601 -0.92104444 -4.5236277 -1.0844313 0 0 Z " fill="#273144" transform="translate(682,395)"/>
<path d="M0 0 C3.18208561 1.89023715 5.50442406 4.29112697 8 7 C8.60328125 7.55171875 9.2065625 8.1034375 9.828125 8.671875 C13.13857335 11.92044581 14.4285123 14.3867221 14.6875 19.0625 C14.3552683 23.94999746 12.65475633 26.8043113 9 30 C7.77258901 31.05153197 6.54327416 32.10084398 5.3125 33.1484375 C0.91440127 36.98620154 -3.05014739 41.14605974 -7 45.4375 C-8.01900391 46.53481445 -8.01900391 46.53481445 -9.05859375 47.65429688 C-10.70933758 49.43291523 -12.35637533 51.21480532 -14 53 C-10.35727478 58.06202102 -6.5926791 62.71152222 -2.125 67.0625 C-1.60687744 67.57490234 -1.08875488 68.08730469 -0.55493164 68.61523438 C2.96120268 72.06539688 6.57905496 75.36205829 10.37890625 78.5 C13.07258946 80.99246832 14.8046453 83.06663868 15.5625 86.6875 C14.06739592 95.4920018 6.07049384 102.88094221 0 109 C-3.49698996 110.74849498 -7.1838413 110.55625364 -11 110 C-13.57071778 108.35474062 -15.01520933 107.18849287 -17 105 C-17.63421875 104.32582031 -18.2684375 103.65164063 -18.921875 102.95703125 C-24 97.38125 -24 97.38125 -24 95 C-24.89271606 94.60300903 -24.89271606 94.60300903 -25.8034668 94.19799805 C-28.08046055 92.95611649 -29.4102915 91.74365193 -31.14453125 89.83203125 C-31.73210205 89.19297852 -32.31967285 88.55392578 -32.92504883 87.89550781 C-33.54790771 87.20811523 -34.1707666 86.52072266 -34.8125 85.8125 C-40.78467817 79.31194821 -46.90677598 73.01258377 -53.2512207 66.87426758 C-54.14200317 66.00064575 -54.14200317 66.00064575 -55.05078125 65.109375 C-55.57325439 64.60374023 -56.09572754 64.09810547 -56.6340332 63.57714844 C-59.462959 60.31086413 -60.32558502 57.33501905 -60.4375 53.0625 C-60.47746094 52.22847656 -60.51742188 51.39445312 -60.55859375 50.53515625 C-59.74873412 46.85963949 -57.77751263 45.5042533 -55 43 C-53.90360992 41.90495291 -52.81411809 40.80296923 -51.73046875 39.6953125 C-41.09517424 28.96451373 -41.09517424 28.96451373 -37.0625 25.5625 C-34.400843 23.2667275 -31.84584759 20.90991818 -29.359375 18.42578125 C-28.69542725 17.76312256 -28.03147949 17.10046387 -27.34741211 16.41772461 C-23.29325522 12.34800287 -19.24402801 8.2738566 -15.23046875 4.1640625 C-10.46706738 -0.45752132 -6.42544016 -1.24116972 0 0 Z " fill="#253042" transform="translate(353,395)"/>
<path d="M0 0 C4.29114899 2.23042772 7.06615434 6.06818049 10.171875 9.68359375 C14.08313563 14.15963691 18.22427056 18.37202427 22.4375 22.5625 C23.14970703 23.27857422 23.86191406 23.99464844 24.59570312 24.73242188 C28.62214734 28.75155193 32.74322592 32.59507762 37.05151367 36.30981445 C40.24182547 39.07720308 43.33971471 41.94244379 46.4375 44.8125 C47.06076172 45.38419922 47.68402344 45.95589844 48.32617188 46.54492188 C48.91849609 47.09341797 49.51082031 47.64191406 50.12109375 48.20703125 C50.6514624 48.6966333 51.18183105 49.18623535 51.72827148 49.69067383 C53.59505087 51.61264308 53.99519645 52.97117871 54.4375 55.625 C53.79516309 60.58017048 51.19713291 63.28240359 48 67 C47.00806641 68.15628906 47.00806641 68.15628906 45.99609375 69.3359375 C35.10895637 81.77247774 35.10895637 81.77247774 30.17578125 82.3046875 C26.22660589 81.92579983 25.02450289 80.84438254 22.1875 78.125 C21.32898438 77.30386719 20.47046875 76.48273438 19.5859375 75.63671875 C15.57601723 71.54805383 11.7501557 67.32710273 8 63 C6.25575213 61.00603335 4.51097549 59.01253282 2.765625 57.01953125 C1.58337138 55.66726328 0.40631622 54.31043366 -0.765625 52.94921875 C-7.05388922 45.78208296 -13.82480589 39.11627314 -20.61230469 32.42456055 C-21.42086914 31.62445557 -22.22943359 30.82435059 -23.0625 30 C-24.16271484 28.9171875 -24.16271484 28.9171875 -25.28515625 27.8125 C-28.51569849 24.3979861 -28.52388496 21.21679599 -28.46484375 16.6640625 C-27.6162234 11.80054081 -24.62096761 9.13817193 -21 6 C-20.32453125 5.39671875 -19.6490625 4.7934375 -18.953125 4.171875 C-13.0722485 -0.42121833 -7.32027559 -1.51524586 0 0 Z " fill="#293245" transform="translate(618,504)"/>
<path d="M0 0 C6.48009295 3.0787772 12.45529308 8.57059449 15.625 15 C16.28140336 20.00844756 14.89922739 24.1301362 12 28.1875 C9.36646029 31.37048324 6.46316109 34.04316905 3.26953125 36.65234375 C-4.99164096 43.42218796 -11.7356259 52.24387553 -18.6875 60.3125 C-37.28754012 81.89338629 -37.28754012 81.89338629 -41.5625 82.3125 C-49.7789836 81.63901774 -55.07174834 74.80736304 -60.375 69 C-64.04537109 64.34685195 -66.20501464 59.58466249 -66.17578125 53.6015625 C-64.5289449 48.25135269 -59.33171244 44.84687798 -55.11303711 41.41723633 C-47.96144186 35.58565739 -41.40763105 29.18913281 -34.90209961 22.6574707 C-33.31540054 21.06541034 -31.72342258 19.4787701 -30.13085938 17.89257812 C-25.1719537 12.93502621 -20.30248222 7.97244883 -15.87719727 2.52124023 C-11.32056919 -2.09315104 -5.92992164 -1.75701382 0 0 Z " fill="#293345" transform="translate(418.375,504)"/>
<path d="M0 0 C1.22741409 0.00141495 2.45482819 0.0028299 3.71943665 0.00428772 C7.60074404 0.00983989 11.48199159 0.0223833 15.36328125 0.03515625 C18.01106687 0.04017744 20.6588534 0.04473926 23.30664062 0.04882812 C29.76304091 0.05979361 36.2194068 0.0764834 42.67578125 0.09765625 C42.67578125 0.75765625 42.67578125 1.41765625 42.67578125 2.09765625 C35.8665049 2.2682624 29.05702737 2.42765896 22.24731445 2.57983398 C19.93833695 2.63268681 17.62941334 2.68795914 15.32055664 2.74584961 C2.0460742 3.07691998 -11.08396633 3.20379808 -24.32421875 2.09765625 C-24.32421875 1.76765625 -24.32421875 1.43765625 -24.32421875 1.09765625 C-16.19499265 0.19439468 -8.17473198 -0.03611852 0 0 Z " fill="#486380" transform="translate(465.32421875,819.90234375)"/>
<path d="M0 0 C-0.99897713 2.99693138 -1.65130253 4.02709413 -4 6 C-4.66 6 -5.32 6 -6 6 C-6.226875 6.7425 -6.45375 7.485 -6.6875 8.25 C-8.2589561 11.5425747 -9.99995716 12.97497109 -13 15 C-13.66 15 -14.32 15 -15 15 C-15 15.99 -15 16.98 -15 18 C-16.97133986 19.37535339 -18.97681922 20.70211044 -21 22 C-22.68615782 23.64694485 -24.35570171 25.31126121 -26 27 C-26.99 27.66 -27.98 28.32 -29 29 C-27.48082292 25.41196043 -25.36615504 23.13449933 -22.60546875 20.41015625 C-21.73212891 19.54326172 -20.85878906 18.67636719 -19.95898438 17.78320312 C-19.04439453 16.88537109 -18.12980469 15.98753906 -17.1875 15.0625 C-16.28451172 14.16853516 -15.38152344 13.27457031 -14.45117188 12.35351562 C-12.76033312 10.68006977 -11.06744422 9.00869095 -9.37182617 7.34008789 C-7.66342958 5.65455199 -5.98462257 3.93883559 -4.32543945 2.20483398 C-2 0 -2 0 0 0 Z " fill="#1B2836" transform="translate(342,397)"/>
<path d="M0 0 C1.08904794 3.26714381 1.1550317 3.89029928 0 7 C-1.29327628 9.02613283 -2.6296945 11.02514795 -4 13 C-4.515625 13.94875 -5.03125 14.8975 -5.5625 15.875 C-6.036875 16.57625 -6.51125 17.2775 -7 18 C-7.99 18 -8.98 18 -10 18 C-6.7 12.06 -3.4 6.12 0 0 Z " fill="#363B46" transform="translate(751,586)"/>
<path d="M0 0 C-0.75 2.375 -0.75 2.375 -2 5 C-2.598125 5.28875 -3.19625 5.5775 -3.8125 5.875 C-7.25506362 7.64546129 -8.92132065 10.81382755 -11 14 C-11.99 13.34 -12.98 12.68 -14 12 C-12.04761147 9.99387601 -10.08862178 7.99507567 -8.125 6 C-7.29162109 5.14148438 -7.29162109 5.14148438 -6.44140625 4.265625 C-2.2265625 0 -2.2265625 0 0 0 Z " fill="#7C90AA" transform="translate(734,665)"/>
<path d="M0 0 C0.66 0.66 1.32 1.32 2 2 C1.4225 2.70125 0.845 3.4025 0.25 4.125 C-2.00492952 7.00629883 -4.00502096 9.93628219 -6 13 C-6.66 11.68 -7.32 10.36 -8 9 C-5.36 6.03 -2.72 3.06 0 0 Z " fill="#2B3543" transform="translate(665,400)"/>
<path d="M0 0 C0.99 0.33 1.98 0.66 3 1 C-4.11389522 8.66742597 -4.11389522 8.66742597 -9 10 C-8.06409496 8.8944811 -7.12620142 7.79064547 -6.1875 6.6875 C-5.66542969 6.07261719 -5.14335937 5.45773437 -4.60546875 4.82421875 C-3.12827531 3.14575321 -1.59960869 1.56117966 0 0 Z " fill="#3A4049" transform="translate(392,518)"/>
<path d="M0 0 C0 3.96130371 -1.34877125 4.82914401 -4 7.6875 C-4.7425 8.49574219 -5.485 9.30398438 -6.25 10.13671875 C-6.8275 10.75160156 -7.405 11.36648438 -8 12 C-8.99 11.67 -9.98 11.34 -11 11 C-7.37 7.37 -3.74 3.74 0 0 Z " fill="#42484F" transform="translate(708,646)"/>
<path d="M0 0 C0.99 0.33 1.98 0.66 3 1 C0.69 5.29 -1.62 9.58 -4 14 C-5.14897419 9.40410325 -4.7140729 8.73828148 -2.5625 4.75 C-2.08941406 3.85796875 -1.61632812 2.9659375 -1.12890625 2.046875 C-0.75636719 1.37140625 -0.38382812 0.6959375 0 0 Z " fill="#37424D" transform="translate(277,333)"/>
<path d="M0 0 C0.66 0.33 1.32 0.66 2 1 C1.01 2.485 1.01 2.485 0 4 C-0.66 4 -1.32 4 -2 4 C-2 4.66 -2 5.32 -2 6 C-3.98 6.33 -5.96 6.66 -8 7 C-3.375 1.125 -3.375 1.125 0 0 Z " fill="#E4E8E7" transform="translate(346,442)"/>
<path d="M0 0 C4.82360189 -0.19294408 8.49646738 0.24252386 13 2 C12.67 2.66 12.34 3.32 12 4 C7.71 3.34 3.42 2.68 -1 2 C-0.67 1.34 -0.34 0.68 0 0 Z " fill="#3C424D" transform="translate(408,503)"/>
<path d="M0 0 C-0.33 0.99 -0.66 1.98 -1 3 C-1.56203125 2.68289063 -2.1240625 2.36578125 -2.703125 2.0390625 C-5.15196317 0.93125475 -7.08387855 0.61024601 -9.75 0.375 C-10.54921875 0.30023438 -11.3484375 0.22546875 -12.171875 0.1484375 C-12.77515625 0.09945313 -13.3784375 0.05046875 -14 0 C-14 -0.33 -14 -0.66 -14 -1 C-4.58997722 -2.51708428 -4.58997722 -2.51708428 0 0 Z " fill="#D3D9E1" transform="translate(358,395)"/>
<path d="M0 0 C0.33 0.99 0.66 1.98 1 3 C-1.64 5.31 -4.28 7.62 -7 10 C-7 7 -7 7 -5.46875 5.17578125 C-4.8190625 4.56089844 -4.169375 3.94601562 -3.5 3.3125 C-2.8503125 2.68988281 -2.200625 2.06726563 -1.53125 1.42578125 C-0.77328125 0.72001953 -0.77328125 0.72001953 0 0 Z " fill="#EEF0F3" transform="translate(370,537)"/>
<path d="M0 0 C0.66 0 1.32 0 2 0 C0.61811547 3.21043882 -0.92421903 5.04936365 -3.625 7.25 C-4.57246094 8.03117187 -4.57246094 8.03117187 -5.5390625 8.828125 C-6.02117188 9.21484375 -6.50328125 9.6015625 -7 10 C-7.66 9.67 -8.32 9.34 -9 9 C-7.88121617 7.82737096 -6.75476949 6.66204862 -5.625 5.5 C-4.68527344 4.52546875 -4.68527344 4.52546875 -3.7265625 3.53125 C-2 2 -2 2 0 2 C0 1.34 0 0.68 0 0 Z " fill="#F0F1F2" transform="translate(669,463)"/>
<path d="M0 0 C3.34019306 0.59646305 5.50470633 1.68294159 8 4 C8 4.99 8 5.98 8 7 C4.2047869 5.50902342 2.38957269 3.24299151 0 0 Z " fill="#F3F6FB" transform="translate(328,658)"/>
<path d="M0 0 C0.66 0 1.32 0 2 0 C2.99 3.3 3.98 6.6 5 10 C4.01 10.495 4.01 10.495 3 11 C0 3.6 0 3.6 0 0 Z " fill="#3E404C" transform="translate(260,561)"/>
<path d="M0 0 C0.33 0.99 0.66 1.98 1 3 C-0.65 4.65 -2.3 6.3 -4 8 C-4.99 7.67 -5.98 7.34 -7 7 C-4.69 4.69 -2.38 2.38 0 0 Z " fill="#303D4A" transform="translate(312,424)"/>
<path d="M0 0 C0.99 0 1.98 0 3 0 C2.34 3.3 1.68 6.6 1 10 C0.34 9.67 -0.32 9.34 -1 9 C-0.67 6.03 -0.34 3.06 0 0 Z " fill="#F2F3F7" transform="translate(770,528)"/>
<path d="M0 0 C0.66 0.33 1.32 0.66 2 1 C0.02 3.31 -1.96 5.62 -4 8 C-4.99 7.67 -5.98 7.34 -7 7 C-4.69 4.69 -2.38 2.38 0 0 Z " fill="#1A2637" transform="translate(304,432)"/>
<path d="M0 0 C0.66 0.33 1.32 0.66 2 1 C-0.46153846 6.66153846 -0.46153846 6.66153846 -3.1875 8.375 C-3.785625 8.58125 -4.38375 8.7875 -5 9 C-3.7508258 5.54074837 -2.32472205 2.85306797 0 0 Z " fill="#7B91AE" transform="translate(764,624)"/>
<path d="M0 0 C0.66 0 1.32 0 2 0 C0.515 5.445 0.515 5.445 -1 11 C-1.33 11 -1.66 11 -2 11 C-2.28571429 3.57142857 -2.28571429 3.57142857 0 0 Z " fill="#264449" transform="translate(257,378)"/>
<path d="M0 0 C0.99 0.33 1.98 0.66 3 1 C3 1.66 3 2.32 3 3 C1.37373596 4.38232443 -0.2925002 5.71937515 -2 7 C-2.66 6.67 -3.32 6.34 -4 6 C-2.68 4.02 -1.36 2.04 0 0 Z " fill="#E5ECEF" transform="translate(304,296)"/>
<path d="M0 0 C0.66 0.66 1.32 1.32 2 2 C0.35 3.65 -1.3 5.3 -3 7 C-3.66 6.34 -4.32 5.68 -5 5 C-3.35 3.35 -1.7 1.7 0 0 Z " fill="#383E48" transform="translate(665,400)"/>
<path d="M0 0 C2.52259061 1.97420135 2.9929808 2.96745642 3.6875 6.1875 C3.790625 7.115625 3.89375 8.04375 4 9 C3.01 8.67 2.02 8.34 1 8 C1.33 6.68 1.66 5.36 2 4 C1.34 4 0.68 4 0 4 C0 2.68 0 1.36 0 0 Z " fill="#D9DBDC" transform="translate(764,382)"/>
<path d="M0 0 C0 0.66 0 1.32 0 2 C-1.98 2.99 -1.98 2.99 -4 4 C-4 3.34 -4 2.68 -4 2 C-4.61875 2.20625 -5.2375 2.4125 -5.875 2.625 C-6.57625 2.74875 -7.2775 2.8725 -8 3 C-8.66 2.34 -9.32 1.68 -10 1 C-6.56484998 0.37542727 -3.50935186 0 0 0 Z " fill="#E5ECE7" transform="translate(472,203)"/>
<path d="M0 0 C0.99 0.33 1.98 0.66 3 1 C1.68 2.32 0.36 3.64 -1 5 C-2.32 4.34 -3.64 3.68 -5 3 C-2.6875 1.4375 -2.6875 1.4375 0 0 Z " fill="#71839B" transform="translate(664,718)"/>
<path d="M0 0 C0.33 0.66 0.66 1.32 1 2 C-3.75 6.875 -3.75 6.875 -6 8 C-4.55746343 4.63408134 -2.66735273 2.48952921 0 0 Z " fill="#1F2833" transform="translate(407,349)"/>
<path d="M0 0 C0 3 0 3 -2.5 5.6875 C-3.325 6.450625 -4.15 7.21375 -5 8 C-5.66 7.67 -6.32 7.34 -7 7 C-4.69 4.69 -2.38 2.38 0 0 Z " fill="#495259" transform="translate(485,270)"/>
</svg>
