<?xml version="1.0" encoding="UTF-8"?>
<svg version="1.1" xmlns="http://www.w3.org/2000/svg" width="1024" height="1024">
<path d="M0 0 C337.92 0 675.84 0 1024 0 C1024 337.92 1024 675.84 1024 1024 C686.08 1024 348.16 1024 0 1024 C0 686.08 0 348.16 0 0 Z " fill="#473D40" transform="translate(0,0)"/>
<path d="M0 0 C1.89013651 0.00138269 1.89013651 0.00138269 3.8184576 0.00279331 C4.51590588 0.00193729 5.21335415 0.00108128 5.93193722 0.00019932 C8.2937078 -0.00146562 10.65540863 0.00408346 13.01717281 0.00952244 C14.72939934 0.00982854 16.44162599 0.00969569 18.15385246 0.00915718 C22.75542592 0.00893064 27.35697357 0.01474293 31.95854092 0.02176762 C36.27028138 0.02744604 40.58201545 0.02772983 44.89375973 0.02844334 C57.51880386 0.03369886 70.14384315 0.0476599 82.7688818 0.06054783 C110.9632568 0.08117283 139.1576318 0.10179783 168.2063818 0.12304783 C168.2063818 57.21304783 168.2063818 114.30304783 168.2063818 173.12304783 C111.4463818 173.12304783 54.6863818 173.12304783 -3.7936182 173.12304783 C-3.8142432 144.76367283 -3.8348682 116.40429783 -3.8561182 87.18554783 C-3.86522221 78.21504246 -3.87432621 69.24453709 -3.88370609 60.00219822 C-3.88822269 49.08874607 -3.88822269 49.08874607 -3.88906193 43.98753452 C-3.8899975 40.40757223 -3.89376047 36.8276246 -3.89919376 33.24766636 C-3.90601979 28.6901252 -3.90811553 24.13260557 -3.90669048 19.57505977 C-3.90698875 17.89687189 -3.90899112 16.21868331 -3.91283333 14.54049981 C-3.91776074 12.28466788 -3.91662535 10.02892113 -3.91387272 7.7730875 C-3.91479451 6.50562215 -3.9157163 5.2381568 -3.91666603 3.9322834 C-3.75166535 0.16524602 -3.75166535 0.16524602 0 0 Z " fill="#F9F8ED" transform="translate(415.7936182022095,331.8769521713257)"/>
<path d="M0 0 C4.05541852 2.13831158 6.30782344 3.75675737 8 8 C8.90130828 15.3775299 7.38926837 22.76475103 6.0625 30 C5.69598473 32.04108858 5.33266753 34.0827542 4.97265625 36.125 C4.81031494 37.01445312 4.64797363 37.90390625 4.48071289 38.8203125 C3.33299557 46.41191757 2.84248369 53.92871374 2.83203125 61.6015625 C2.82870285 62.48170013 2.82537445 63.36183777 2.82194519 64.26864624 C2.81691991 66.11903365 2.81453549 67.96942999 2.81469727 69.81982422 C2.81252155 72.59748924 2.79434779 75.37474922 2.77539062 78.15234375 C2.72904057 92.45791861 3.72941143 106.24663429 7.1875 120.1875 C7.40325684 121.06567383 7.61901367 121.94384766 7.84130859 122.84863281 C16.74866418 158.03926915 32.66584288 191.38177711 55.26489258 219.81079102 C57.05794198 222.07310619 58.81373106 224.36164222 60.5703125 226.65234375 C63.52867111 230.45777671 66.63663772 234.05237385 69.9375 237.5625 C70.45908691 238.1198584 70.98067383 238.6772168 71.51806641 239.25146484 C72.54899108 240.34931199 73.58209899 241.44511424 74.61767578 242.53857422 C75.77236987 243.75934406 76.91677335 244.98983688 78.05859375 246.22265625 C83.53917359 251.96253234 89.78416491 256.73234603 96.08056641 261.52929688 C97.99777268 262.99829339 99.89598185 264.48939534 101.79296875 265.984375 C134.27084987 291.30423455 172.40927471 304.37467564 213 309 C213.72380859 309.09498779 214.44761719 309.18997559 215.19335938 309.2878418 C238.59402752 312.09642848 264.11526558 311.5052158 287 306 C288.04220703 305.75862305 289.08441406 305.51724609 290.15820312 305.26855469 C335.02872335 294.69592174 377.53950767 270.93266902 408 236 C408.98419922 234.90365234 408.98419922 234.90365234 409.98828125 233.78515625 C413.57957836 229.76385905 416.93167646 225.59722906 420.203125 221.3125 C421.37099747 219.80949891 422.56786652 218.32843611 423.796875 216.875 C430.25699699 209.18692094 435.37451574 200.69390149 440.64160156 192.171875 C442.35439786 189.43337107 444.14769739 186.75111179 445.9375 184.0625 C449.37783034 178.64087098 451.70767822 172.98173907 454 167 C454.58466347 165.51772601 455.17069179 164.03598991 455.7578125 162.5546875 C461.39728984 148.81996033 461.39728984 148.81996033 465.125 134.5 C465.8988764 130.1011236 465.8988764 130.1011236 467 129 C469.3756852 128.9116033 471.72208674 128.88469695 474.09765625 128.90234375 C475.16094398 128.90446617 475.16094398 128.90446617 476.24571228 128.90663147 C478.51801712 128.91224557 480.79022475 128.92480037 483.0625 128.9375 C484.59960796 128.94251319 486.13671745 128.94707641 487.67382812 128.95117188 C491.44925642 128.96221958 495.22461171 128.97949359 499 129 C495.9274399 162.23517654 479.61430723 194.18684271 462 222 C461.54367187 222.72074707 461.08734375 223.44149414 460.6171875 224.18408203 C452.01621731 237.65759382 442.72695352 249.56102726 431.26171875 260.73828125 C429.24541135 262.75458865 427.39557221 264.81860053 425.5625 267 C419.3701602 274.21225459 412.03507987 280.4033608 404.4609375 286.1171875 C402.64755878 287.50456614 400.86529502 288.93284371 399.1015625 290.3828125 C377.35573813 308.22017142 351.62011018 322.84325318 325 332 C324.20239258 332.27505371 323.40478516 332.55010742 322.58300781 332.83349609 C312.56447696 336.24039005 302.46541082 339.28855492 292.1875 341.8125 C291.41390137 342.007229 290.64030273 342.20195801 289.84326172 342.40258789 C273.91610306 346.13998997 257.83750286 346.3690982 241.5625 346.3125 C239.97585037 346.31026428 239.97585037 346.31026428 238.35714722 346.3079834 C222.41444272 346.2675958 206.72754425 345.87080273 191 343 C190.23494141 342.86078125 189.46988281 342.7215625 188.68164062 342.578125 C183.71450585 341.62443512 178.86517961 340.3751256 174 339 C173.13342773 338.76297363 172.26685547 338.52594727 171.37402344 338.28173828 C157.29676312 334.39793577 144.08458876 329.48189552 131 323 C130.25524414 322.63116699 129.51048828 322.26233398 128.74316406 321.88232422 C107.48401157 311.22449035 87.55335935 297.8461591 69 283 C68.18966309 282.36102783 67.37932617 281.72205566 66.54443359 281.0637207 C59.68603828 275.57494123 53.41515356 269.6886579 47.25 263.4375 C46.35667969 262.54353516 45.46335937 261.64957031 44.54296875 260.72851562 C13.06996545 229.04692836 -9.40504154 188.36342231 -20 145 C-20.1635498 144.34644531 -20.32709961 143.69289063 -20.49560547 143.01953125 C-22.94466017 133.13729686 -24.68430739 123.19308676 -26.1875 113.125 C-26.35443359 112.00834961 -26.52136719 110.89169922 -26.69335938 109.74121094 C-31.02577113 79.65501818 -28.34733473 50.82122798 -23 21.0625 C-22.85852539 20.2475708 -22.71705078 19.4326416 -22.57128906 18.59301758 C-21.39120717 12.49054816 -19.54581883 6.66575034 -15.17578125 2.08984375 C-9.94120251 -1.14747434 -5.94107113 -1.82295343 0 0 Z " fill="#F9F9EE" transform="translate(259,348)"/>
<path d="M0 0 C1.31677734 0.15118286 1.31677734 0.15118286 2.66015625 0.30541992 C3.48 0.42506104 4.29984375 0.54470215 5.14453125 0.66796875 C5.87647705 0.76746826 6.60842285 0.86696777 7.36254883 0.96948242 C9.1875 1.8125 9.1875 1.8125 10.37988281 4.06323242 C11.15391843 6.69818258 11.72098587 9.23427985 12.15234375 11.9453125 C12.31283203 12.91726563 12.47332031 13.88921875 12.63867188 14.890625 C12.95914553 16.89841178 13.27946185 18.90622369 13.59960938 20.9140625 C15.27313878 31.04858317 17.7844575 40.60456747 21.8125 50.0625 C22.33191162 51.28283936 22.33191162 51.28283936 22.86181641 52.52783203 C35.21041888 80.76662723 56.87596358 103.48455631 82.23779297 120.50390625 C83.85785569 121.59125113 85.46400185 122.6992964 87.06640625 123.8125 C105.14979861 135.45486289 127.19003566 139.86342968 148.22680664 142.16772461 C153.08544852 142.71044852 153.08544852 142.71044852 154.1875 143.8125 C155.48302988 152.82785789 155.30933918 161.97904072 155.25 171.0625 C155.24496786 172.40494622 155.24040802 173.7473943 155.23632812 175.08984375 C155.22467009 178.3307781 155.20830774 181.57161369 155.1875 184.8125 C110.8945216 185.69778095 64.9694432 163.70917586 32.1875 134.8125 C31.67912598 134.37502441 31.17075195 133.93754883 30.64697266 133.48681641 C-3.35833518 104.13389992 -25.74773763 56.27703475 -29.8125 11.8125 C-29.8737491 9.81332953 -29.8999994 7.81245226 -29.875 5.8125 C-29.86597656 4.86375 -29.85695313 3.915 -29.84765625 2.9375 C-29.83605469 2.23625 -29.82445312 1.535 -29.8125 0.8125 C-21.78852075 -4.12382057 -8.95282718 -1.16989844 0 0 Z " fill="#F9F8ED" transform="translate(330.8125,428.1875)"/>
<path d="M0 0 C0.33 13.2 0.66 26.4 1 40 C-2.50625 40.680625 -6.0125 41.36125 -9.625 42.0625 C-52.23864036 50.80450724 -92.18218111 72.7437916 -116.80859375 109.6484375 C-130.01064833 129.75196384 -138.60091909 149.07126279 -142.70776367 172.76611328 C-143.08004527 174.85534164 -143.53244563 176.93000927 -144 179 C-147.28622918 180.64311459 -150.90726651 179.99748737 -154.5078125 179.87890625 C-155.34843231 179.85529526 -156.18905212 179.83168427 -157.05514526 179.80735779 C-159.7452662 179.73066362 -162.4351034 179.64666417 -165.125 179.5625 C-166.94660061 179.50928506 -168.76821514 179.45654463 -170.58984375 179.40429688 C-175.06007618 179.27504071 -179.5300676 179.13923154 -184 179 C-181.77696517 144.5659571 -172.60303018 111.39013049 -150.015625 84.4453125 C-147.80955992 81.76896223 -145.78723537 78.99419477 -143.75 76.1875 C-128.24232307 55.44863753 -108.46517727 38.70175654 -86 26 C-85.40493652 25.65727051 -84.80987305 25.31454102 -84.19677734 24.96142578 C-73.57414941 18.87010825 -62.48005222 14.22886912 -51 10 C-50.3292041 9.75121094 -49.6584082 9.50242188 -48.96728516 9.24609375 C-40.01655989 6.00055752 -30.88477517 4.02761115 -21.5625 2.1875 C-20.46019043 1.96811768 -19.35788086 1.74873535 -18.22216797 1.52270508 C-17.1601416 1.32314209 -16.09811523 1.1235791 -15.00390625 0.91796875 C-14.06361572 0.74031982 -13.1233252 0.5626709 -12.15454102 0.37963867 C-8.1300905 -0.10469076 -4.05348948 0 0 0 Z " fill="#F8F8ED" transform="translate(485,223)"/>
<path d="M0 0 C13.2 0 26.4 0 40 0 C38.87211083 15.79044838 38.87211083 15.79044838 37.6171875 21.69921875 C37.48250565 22.3382312 37.34782379 22.97724365 37.20906067 23.63562012 C36.77731626 25.65600643 36.3286393 27.67192446 35.875 29.6875 C35.71971832 30.38654449 35.56443665 31.08558899 35.40444946 31.80581665 C32.84180676 43.25948696 29.75313882 54.24699743 25 65 C24.6194043 65.86689453 24.23880859 66.73378906 23.84667969 67.62695312 C19.07626052 78.34997636 14.06793204 88.58574625 7 98 C6.4121875 98.79664063 5.824375 99.59328125 5.21875 100.4140625 C-0.48696157 107.83632288 -6.97887855 114.58634258 -13.43310547 121.35400391 C-14.70494782 122.6900527 -15.96553729 124.03680717 -17.22265625 125.38671875 C-26.97550871 135.59511846 -39.13738695 143.46785642 -51 151 C-51.65452148 151.41781738 -52.30904297 151.83563477 -52.98339844 152.26611328 C-80.76549389 169.8173204 -110.41965772 178.67283269 -143 181 C-143 167.14 -143 153.28 -143 139 C-138.05 138.38125 -138.05 138.38125 -133 137.75 C-93.01439746 132.37361124 -58.25059344 113.0148344 -33.57666016 80.85107422 C-30.19386437 76.34709393 -26.99400396 71.76942409 -24 67 C-23.38769531 66.06285156 -22.77539062 65.12570312 -22.14453125 64.16015625 C-14.53644752 52.25505038 -8.60615609 40.01470942 -4.625 26.4375 C-4.3863623 25.63634766 -4.14772461 24.83519531 -3.90185547 24.00976562 C-1.68333953 15.95701795 -1.06640937 8.531275 0 0 Z " fill="#F8F8EE" transform="translate(653,432)"/>
<path d="M0 0 C21.54773295 2.39419255 21.54773295 2.39419255 30.61328125 4.82421875 C31.32822754 5.0154834 32.04317383 5.20674805 32.77978516 5.40380859 C33.51245605 5.60055176 34.24512695 5.79729492 35 6 C35.75974121 6.1954541 36.51948242 6.3909082 37.30224609 6.59228516 C64.03297511 13.53841268 88.71640201 26.46007556 110 44 C110.5667041 44.45987305 111.1334082 44.91974609 111.71728516 45.39355469 C125.28655828 56.44501121 136.52191324 69.02106668 147 83 C147.73605469 83.96679688 148.47210937 84.93359375 149.23046875 85.9296875 C160.00366631 100.72566375 169.05966573 117.68705211 175 135 C175.4125 136.18335938 175.825 137.36671875 176.25 138.5859375 C179.02336032 146.99268596 181.20887171 155.52815586 183.3125 164.125 C183.57933594 165.20442871 183.84617187 166.28385742 184.12109375 167.39599609 C184.36601563 168.42289551 184.6109375 169.44979492 184.86328125 170.5078125 C185.08282471 171.42191895 185.30236816 172.33602539 185.52856445 173.27783203 C186.04019365 176.23208656 186.08002238 179.00754791 186 182 C180.03686834 182.02464574 174.07376605 182.042834 168.1105957 182.05493164 C166.08031702 182.05997278 164.05004198 182.06680557 162.01977539 182.07543945 C159.10822653 182.08751467 156.1967255 182.09323034 153.28515625 182.09765625 C151.91485008 182.10539818 151.91485008 182.10539818 150.51686096 182.11329651 C148.34424573 182.11349168 146.17172704 182.06211805 144 182 C142.1891699 180.1891699 142.47809072 177.60585487 142.15087891 175.17211914 C136.77302501 135.68408227 116.66578261 101.19913501 85 77 C84.030625 76.20335937 83.06125 75.40671875 82.0625 74.5859375 C58.26553103 55.17609814 30.10098381 46.54129221 0 43 C0 28.81 0 14.62 0 0 Z " fill="#F8F8ED" transform="translate(510,222)"/>
<path d="M0 0 C6.18912529 2.92702263 10.35360194 6.57194755 13 13 C13.55366539 16.17890804 13.55780252 19.2908683 13.53344727 22.51196289 C13.54637062 23.9035537 13.54637062 23.9035537 13.55955505 25.32325745 C13.58215834 28.37334517 13.57548756 31.4225101 13.56640625 34.47265625 C13.57164355 36.60062431 13.57792041 38.72859004 13.58518982 40.85655212 C13.59558304 45.30918326 13.59104671 49.76149458 13.57641602 54.21411133 C13.55921182 59.91623359 13.58274991 65.61734972 13.61790562 71.31935978 C13.63987585 75.71091878 13.63843929 80.10223676 13.6301403 84.49383354 C13.62932094 86.59615624 13.63618151 88.69849665 13.65091133 90.8007679 C13.66835415 93.74028402 13.65381754 96.67798805 13.63110352 99.61743164 C13.64864182 100.91508453 13.64864182 100.91508453 13.66653442 102.23895264 C13.60308843 106.27962673 13.33902895 109.13238997 10.83555603 112.39891052 C4.95057063 117.79727805 0.20341911 118.44356696 -7.45849609 118.40405273 C-8.85967934 118.41434761 -8.85967934 118.41434761 -10.28916931 118.42485046 C-13.36741473 118.44310427 -16.44514973 118.43928252 -19.5234375 118.43359375 C-21.6704627 118.4381566 -23.81748644 118.44346248 -25.96450806 118.44947815 C-30.46175066 118.45840677 -34.95881567 118.45598931 -39.45605469 118.44604492 C-45.20831268 118.43456256 -50.95995613 118.45475717 -56.71213341 118.48396206 C-61.14578115 118.50234377 -65.57928222 118.50202751 -70.01295853 118.49632454 C-72.13316331 118.49617153 -74.25337817 118.50219895 -76.3735466 118.51461601 C-79.34365669 118.5295591 -82.31263908 118.51882376 -85.28271484 118.50170898 C-86.151548 118.51137695 -87.02038116 118.52104492 -87.9155426 118.53100586 C-94.32201172 118.45403317 -99.85143079 117.05733514 -104.56336021 112.48194027 C-108.86192943 107.4551271 -109.35319881 104.21392089 -109.27734375 97.7578125 C-108.74253304 92.43983556 -105.73074402 89.52347461 -101.875 86.1875 C-97.53172358 82.88283316 -95.43335612 82.8772316 -89.97998047 82.88647461 C-88.89689606 82.88625557 -88.89689606 82.88625557 -87.79193115 82.8860321 C-85.40031959 82.88672993 -83.00878549 82.89451625 -80.6171875 82.90234375 C-78.96094811 82.90420839 -77.30470816 82.90563208 -75.64846802 82.90663147 C-71.28532392 82.91045301 -66.922213 82.92028022 -62.55908203 82.93133545 C-58.10840301 82.94155736 -53.65771863 82.94613076 -49.20703125 82.95117188 C-40.47133892 82.9619028 -31.73567359 82.97897488 -23 83 C-23.00888245 82.12383026 -23.01776489 81.24766052 -23.0269165 80.34494019 C-23.10715922 72.07639033 -23.16801356 63.80797178 -23.20724869 55.53912163 C-23.22809828 51.28828151 -23.25636734 47.0377639 -23.30175781 42.78710938 C-23.34531017 38.68276945 -23.36915688 34.57873917 -23.37950897 30.47418594 C-23.38688357 28.91050468 -23.40128466 27.34683983 -23.42292023 25.78329086 C-23.45208062 23.58806874 -23.45595097 21.39411599 -23.45410156 19.19873047 C-23.46298401 17.95074677 -23.47186646 16.70276306 -23.48101807 15.41696167 C-22.79027904 10.51022547 -20.57194051 7.41474646 -16.9296875 4.13671875 C-16.25164062 3.65847656 -15.57359375 3.18023438 -14.875 2.6875 C-14.19179688 2.19636719 -13.50859375 1.70523438 -12.8046875 1.19921875 C-8.4619316 -1.68655195 -4.96696312 -1.24174078 0 0 Z " fill="#F7F7EC" transform="translate(763,628)"/>
<path d="M0 0 C4.8930704 2.17980768 7.76664525 4.94049191 10.828125 9.30078125 C11.97278338 12.7347564 11.98791907 15.44439479 12.03344727 19.06713867 C12.04334686 19.75032669 12.05324646 20.43351471 12.06344604 21.1374054 C12.09501179 23.39365178 12.1197989 25.64991922 12.14453125 27.90625 C12.16510504 29.47138514 12.18610162 31.03651477 12.20750427 32.60163879 C12.26268109 36.71975241 12.31210971 40.83791581 12.36035156 44.95611572 C12.41059865 49.15893989 12.46626797 53.36169183 12.52148438 57.56445312 C12.62901226 65.80983475 12.73046913 74.05527683 12.828125 82.30078125 C14.10146446 82.30958061 14.10146446 82.30958061 15.40052795 82.31855774 C23.41882959 82.3765737 31.4368553 82.44870127 39.45488834 82.53649616 C43.57659494 82.58113472 47.69820419 82.62040493 51.82006836 82.6472168 C55.80139069 82.67331516 59.78233707 82.71376303 63.76342583 82.76396751 C65.27873479 82.78059224 66.79410871 82.79213381 68.30949593 82.79839516 C70.43988142 82.80808467 72.56931461 82.83619881 74.69946289 82.8684082 C75.9096962 82.87951126 77.1199295 82.89061432 78.36683655 82.90205383 C84.45217357 83.60306178 88.95767391 85.87451379 93.203125 90.36328125 C93.87085938 91.05550781 94.53859375 91.74773437 95.2265625 92.4609375 C98.48714757 96.20663401 98.16679683 99.67052865 98.09765625 104.47265625 C97.67572335 108.89989426 96.6648903 110.82574376 93.828125 114.30078125 C87.45945244 119.09773635 80.7567495 118.77410631 73.1015625 118.55859375 C71.17214873 118.53040579 69.24273352 118.50227053 67.31329155 118.47608376 C65.24888054 118.44571228 63.18474018 118.40670027 61.1204834 118.36730957 C56.75227689 118.29112047 52.38537812 118.28255326 48.01660156 118.28808594 C41.15449934 118.29641942 34.29341667 118.27351214 27.43150711 118.22043991 C23.51097302 118.19110169 19.59106184 118.17357698 15.67041016 118.18066406 C11.78507336 118.18726115 7.90088693 118.16484338 4.01578903 118.12222672 C2.55908686 118.11118635 1.10226678 118.11031245 -0.3544426 118.12035751 C-12.95180598 118.19651282 -12.95180598 118.19651282 -17.48291016 114.56298828 C-22.5093244 109.53389543 -22.48926573 103.70785198 -22.55419922 97.01586914 C-22.57067001 96.08843399 -22.58714081 95.16099884 -22.60411072 94.20545959 C-22.65531807 91.14484376 -22.69184062 88.08428196 -22.7265625 85.0234375 C-22.75544227 82.89261013 -22.78459039 80.76178638 -22.81399536 78.63096619 C-22.87290993 74.16654777 -22.92369482 69.7021177 -22.96972656 65.23754883 C-23.03002228 59.51962312 -23.11791626 53.80248683 -23.21287346 48.08504581 C-23.28162344 43.68509561 -23.3319298 39.28507464 -23.37707901 34.88482475 C-23.40164211 32.77684309 -23.4328091 30.66892756 -23.47072983 28.56114388 C-23.52176198 25.61229877 -23.54701108 22.6642903 -23.56591797 19.71508789 C-23.58650772 18.84684387 -23.60709747 17.97859985 -23.62831116 17.08404541 C-23.62848025 11.65207632 -22.76392851 8.62727369 -19.171875 4.30078125 C-13.52398192 -0.89963422 -7.31029864 -2.35349542 0 0 Z " fill="#F9F9EE" transform="translate(247.171875,627.69921875)"/>
<path d="M0 0 C1.66364337 0.00680693 3.32729649 0.01151855 4.99095154 0.01425171 C9.37389172 0.02764253 13.75601802 0.07182784 18.13867188 0.12182617 C22.52009935 0.16549622 26.90160193 0.17630526 31.28320312 0.19140625 C39.51456329 0.22568446 47.74366545 0.32420094 55.97393799 0.45959473 C59.76110642 0.52069489 63.54782985 0.5420994 67.33544922 0.56152344 C69.29399174 0.59574608 71.2524964 0.63227124 73.2109375 0.671875 C74.45744835 0.66566635 74.45744835 0.66566635 75.72914124 0.65933228 C82.88621969 0.88430456 87.03726154 4.2944619 91.95002747 9.23806763 C93.80746637 12.51331286 93.65179017 15.62289041 93.60595703 19.28613281 C93.60788559 20.06390579 93.60981415 20.84167877 93.61180115 21.64302063 C93.6131145 24.21287202 93.59127889 26.78183923 93.56640625 29.3515625 C93.55613393 31.14271866 93.54620033 32.93387679 93.53659058 34.72503662 C93.51210062 38.48110398 93.47458911 42.23680005 93.4296875 45.99267578 C93.37460232 50.79218737 93.36526595 55.590589 93.36760139 60.39036942 C93.3619556 64.09175167 93.32488353 67.79234592 93.27923203 71.49343109 C93.26246172 73.26187884 93.25692795 75.03047183 93.26309586 76.79898834 C93.29628796 92.34456663 93.29628796 92.34456663 88.93310547 97.54589844 C84.05937889 102.08697816 79.67894924 103.08151807 73.13671875 102.9765625 C68.28324438 102.2157476 64.90363855 99.68123856 61.24609375 96.5234375 C60.55477356 95.9474884 59.86345337 95.37153931 59.15118408 94.77813721 C56.72839137 91.91072986 56.75967928 90.46110208 56.79199219 86.74511719 C56.79229431 85.5842157 56.79259644 84.42331421 56.79290771 83.22723389 C56.81355286 81.97919983 56.834198 80.73116577 56.85546875 79.4453125 C56.86112854 78.16360168 56.86678833 76.88189087 56.87261963 75.56134033 C56.88785907 72.16130122 56.92712459 68.76195056 56.97143555 65.36218262 C57.01242576 61.88998731 57.03063854 58.41768026 57.05078125 54.9453125 C57.09362175 48.13773884 57.16185163 41.33062126 57.24609375 34.5234375 C55.8600016 34.53676117 55.8600016 34.53676117 54.44590759 34.550354 C45.72146575 34.63062743 36.99714863 34.69146671 28.27242184 34.73068619 C23.78732945 34.7515275 19.30254318 34.77978155 14.81762695 34.82519531 C10.48634917 34.86877701 6.15536515 34.89260059 1.82388496 34.90294647 C0.17450908 34.9103158 -1.47485141 34.92470648 -3.12410164 34.94635773 C-5.4412373 34.97555675 -7.75717175 34.9793868 -10.07446289 34.97753906 C-12.04969688 34.99086273 -12.04969688 34.99086273 -14.06483459 35.00445557 C-19.62078334 34.28001539 -23.27853817 32.11528201 -27.12890625 27.9609375 C-30.15700504 23.41878932 -30.64887435 18.83300788 -29.75390625 13.5234375 C-28.1914492 10.3929432 -26.2692462 7.94525209 -23.75390625 5.5234375 C-22.90328613 4.66959473 -22.05266602 3.81575195 -21.17626953 2.93603516 C-15.14860504 -1.28231001 -7.04094289 -0.10383185 0 0 Z " fill="#F8F8EC" transform="translate(683.75390625,184.4765625)"/>
<path d="M0 0 C0.93090958 -0.01518677 1.86181915 -0.03037354 2.82093811 -0.04602051 C5.88978503 -0.08831806 8.95724719 -0.09331585 12.02636719 -0.09423828 C14.16860518 -0.10777365 16.3108377 -0.12220167 18.45306396 -0.13748169 C22.94199539 -0.16288803 27.43044126 -0.16818001 31.91943359 -0.16113281 C37.65439543 -0.15504248 43.38671259 -0.21286421 49.12111282 -0.28779411 C53.54635731 -0.33604044 57.97097011 -0.3428351 62.39644623 -0.33813858 C64.50948508 -0.34217593 66.62254962 -0.3605689 68.73532867 -0.3939476 C87.29055198 -0.65702467 87.29055198 -0.65702467 93.82226562 5.02636719 C98.33834358 10.00803412 100.01840945 13.8191495 99.81152344 20.47216797 C99.28668209 25.40223509 97.07902433 28.57714773 93.50878906 31.84960938 C87.10189168 36.50935065 79.15806241 35.44769117 71.60449219 35.29638672 C69.95684359 35.28518121 68.30917485 35.27664743 66.66149902 35.2706604 C62.34720629 35.24786808 58.03414619 35.18903049 53.72033691 35.12243652 C49.30949575 35.06080476 44.89845331 35.03360106 40.48730469 35.00341797 C31.8487213 34.93927541 23.21113554 34.83701561 14.57324219 34.71044922 C14.59655861 35.75162148 14.59655861 35.75162148 14.62034607 36.81382751 C14.76121753 43.38889311 14.86748553 49.96353134 14.93592739 56.53977108 C14.97229993 59.9199967 15.02154339 63.29896483 15.10131836 66.6784668 C15.18663362 70.5735743 15.22602632 74.4669187 15.25683594 78.36279297 C15.29296494 79.56314682 15.32909393 80.76350067 15.36631775 82.00022888 C15.36969262 89.2802078 14.26506391 93.46251888 9.47108459 99.01564026 C5.75829244 102.33123348 2.73825716 103.12570485 -2.28222656 102.94873047 C-8.86681681 102.21710933 -13.68076745 99.62171312 -17.95132446 94.53521729 C-21.23782652 88.24309567 -20.35300631 80.57229379 -20.25097656 73.64013672 C-20.24806972 71.87232697 -20.2476886 70.10451143 -20.24971008 68.33670044 C-20.24650241 64.64292054 -20.21964585 60.95033724 -20.17456055 57.25683594 C-20.11780943 52.53110846 -20.10971121 47.80686724 -20.11796856 43.08085442 C-20.12077033 39.4346853 -20.1031401 35.78884572 -20.07883644 32.14276505 C-20.06865213 30.40052619 -20.06352875 28.65824991 -20.06363487 26.91598129 C-20.0596528 24.47944833 -20.02944894 22.04461687 -19.99194336 19.60839844 C-19.99532715 18.89447937 -19.99871094 18.1805603 -20.00219727 17.44500732 C-19.84833172 10.84471621 -17.14744159 7.5409181 -12.76593018 2.87985229 C-8.35729931 0.01564035 -5.15009202 -0.02272034 0 0 Z " fill="#F9F9ED" transform="translate(244.4267578125,185.28955078125)"/>
<path d="M0 0 C8.31218831 1.13865593 15.33808572 12.3602601 20.10351562 18.61157227 C24.18486352 24.10123908 27.91476297 29.82430836 31.67041016 35.5390625 C36.1321001 42.29438729 41.02810647 48.53867749 46.30078125 54.6796875 C47.04714844 55.56914062 47.79351563 56.45859375 48.5625 57.375 C49.24441406 58.16648437 49.92632813 58.95796875 50.62890625 59.7734375 C52 62 52 62 52.08984375 64.1640625 C51 66 51 66 48.6484375 67.2109375 C43.64294609 68.2934956 38.73324858 68.46680908 33.625 68.625 C32.60277344 68.66367187 31.58054687 68.70234375 30.52734375 68.7421875 C28.01840403 68.83597964 25.50946236 68.92167879 23 69 C22.83927002 69.6290625 22.67854004 70.258125 22.51293945 70.90625 C20.85196041 76.95569854 18.66602502 81.80316745 15.1875 87 C14.29465705 88.37440547 13.40272878 89.74940557 12.51171875 91.125 C12.08165527 91.78242188 11.6515918 92.43984375 11.20849609 93.1171875 C9.0625587 96.46051461 7.11209032 99.91816595 5.15625 103.375 C4.7746875 103.91125 4.393125 104.4475 4 105 C3.34 105 2.68 105 2 105 C0.73828125 103.3828125 0.73828125 103.3828125 -0.6875 101.125 C-2.88897652 97.69391831 -5.16791505 94.36158974 -7.5625 91.0625 C-12.97815361 83.30006316 -16.33285962 77.54197583 -16 68 C-16.59949463 67.98541748 -17.19898926 67.97083496 -17.81665039 67.95581055 C-20.56587455 67.88076179 -23.31395889 67.78429248 -26.0625 67.6875 C-27.00544922 67.66494141 -27.94839844 67.64238281 -28.91992188 67.61914062 C-34.66372859 67.39899472 -38.88152706 66.6479756 -44 64 C-43.46136379 59.42159226 -41.57883597 56.76346027 -39 53 C-37.62264965 50.83482669 -36.24777698 48.66807583 -34.875 46.5 C-30.89575287 40.2647886 -26.67738681 34.23310602 -22.3359375 28.24609375 C-20.33578957 25.46662397 -18.41153654 22.65288176 -16.5 19.8125 C-13.14473059 14.9793143 -9.25184495 10.72479136 -5.234375 6.4453125 C-3.33832677 4.37026671 -1.63482029 2.28237898 0 0 Z " fill="#F9FAF0" transform="translate(741,344)"/>
<path d="M0 0 C0.33 0 0.66 0 1 0 C1 43.56 1 87.12 1 132 C2.65 131.67 4.3 131.34 6 131 C7.9864443 130.91349867 9.97554422 130.88086643 11.96386719 130.88476562 C13.21782288 130.88536987 14.47177856 130.88597412 15.76373291 130.88659668 C17.19144792 130.89293088 18.61916193 130.89949264 20.046875 130.90625 C21.60105334 130.91009482 23.15523227 130.91370589 24.70941162 130.91711426 C50.93431441 130.99125618 77.15928643 131.23597749 103.38340235 131.44538116 C112.56039842 131.51860057 121.73741221 131.58953316 130.9144249 131.66063499 C145.27629778 131.77196514 159.6381459 131.88621055 174 132 C174 110.55 174 89.1 174 67 C174.33 67 174.66 67 175 67 C175 89.11 175 111.22 175 134 C149.125 133.9375 149.125 133.9375 141.01611328 133.90991211 C138.86751353 133.90698831 136.71891322 133.90444085 134.5703125 133.90234375 C133.47710693 133.89722778 132.38390137 133.89211182 131.25756836 133.88684082 C125.47269467 133.8861904 119.83539571 134.10789227 114.09347534 134.83351135 C111.29482453 135.05608077 108.73656464 134.56134659 106 134 C105.67 134.33 105.34 134.66 105 135 C101.11140699 135.14673936 97.74772357 135.0090025 94 134 C93.67 134.33 93.34 134.66 93 135 C90.66702567 135.04092937 88.33294775 135.04241723 86 135 C86 134.67 86 134.34 86 134 C80.03686834 133.97535426 74.07376605 133.957166 68.1105957 133.94506836 C66.08031702 133.94002722 64.05004198 133.93319443 62.01977539 133.92456055 C59.10822653 133.91248533 56.1967255 133.90676966 53.28515625 133.90234375 C52.3716188 133.89718246 51.45808136 133.89202118 50.51686096 133.88670349 C48.34424573 133.88650832 46.17172704 133.93788195 44 134 C43.67 134.33 43.34 134.66 43 135 C37.11452717 135.40837975 31.14756897 135.01919901 25.26171875 134.73828125 C24.24352051 134.68978027 23.22532227 134.6412793 22.17626953 134.59130859 C20.12093974 134.48978297 18.06590092 134.38215996 16.01123047 134.26806641 C15.04975098 134.21956543 14.08827148 134.17106445 13.09765625 134.12109375 C12.23664307 134.0739624 11.37562988 134.02683105 10.48852539 133.97827148 C7.95338823 133.9091743 7.95338823 133.9091743 5.36889648 134.61743164 C3 135 3 135 0 133 C-0.4393158 130.56983948 -0.4393158 130.56983948 -0.52709961 127.41625977 C-0.56493057 126.20348862 -0.60276154 124.99071747 -0.64173889 123.74119568 C-0.66710548 122.37045065 -0.6914326 120.99968607 -0.71484375 119.62890625 C-0.74917525 118.17281197 -0.78368108 116.7167218 -0.81834412 115.26063538 C-1.26458219 93.97144052 -0.87428187 72.66705621 -0.60510254 51.37786865 C-0.53310639 45.56381873 -0.46908847 39.74968075 -0.40429688 33.93554688 C-0.27711406 22.62360112 -0.14144126 11.31177586 0 0 Z " fill="#2A2221" transform="translate(410,373)"/>
<path d="M0 0 C0.33 0 0.66 0 1 0 C1 43.56 1 87.12 1 132 C2.65 131.67 4.3 131.34 6 131 C8.77266208 130.88367192 11.51996962 130.81247639 14.29296875 130.796875 C15.08020828 130.79117493 15.86744781 130.78547485 16.67854309 130.77960205 C18.33507964 130.77019055 19.99163459 130.76363345 21.64819336 130.75976562 C24.18961491 130.74999187 26.73024999 130.71890658 29.27148438 130.6875 C30.88280771 130.68097582 32.4941368 130.67572306 34.10546875 130.671875 C34.86691696 130.6595282 35.62836517 130.6471814 36.41288757 130.63446045 C38.54760742 130.64355469 38.54760742 130.64355469 42 131 C42.66 131.99 43.32 132.98 44 134 C43 135 43 135 41.0859375 135.1328125 C35.80013292 135.11757963 30.54147286 134.99027147 25.26171875 134.73828125 C24.24352051 134.68978027 23.22532227 134.6412793 22.17626953 134.59130859 C20.12093974 134.48978297 18.06590092 134.38215996 16.01123047 134.26806641 C15.04975098 134.21956543 14.08827148 134.17106445 13.09765625 134.12109375 C12.23664307 134.0739624 11.37562988 134.02683105 10.48852539 133.97827148 C7.95338823 133.9091743 7.95338823 133.9091743 5.36889648 134.61743164 C3 135 3 135 0 133 C-0.4393158 130.56983948 -0.4393158 130.56983948 -0.52709961 127.41625977 C-0.56493057 126.20348862 -0.60276154 124.99071747 -0.64173889 123.74119568 C-0.66710548 122.37045065 -0.6914326 120.99968607 -0.71484375 119.62890625 C-0.74917525 118.17281197 -0.78368108 116.7167218 -0.81834412 115.26063538 C-1.26458219 93.97144052 -0.87428187 72.66705621 -0.60510254 51.37786865 C-0.53310639 45.56381873 -0.46908847 39.74968075 -0.40429688 33.93554688 C-0.27711406 22.62360112 -0.14144126 11.31177586 0 0 Z " fill="#302C2B" transform="translate(410,373)"/>
<path d="M0 0 C1.98 0 3.96 0 6 0 C7.17805562 3.72193044 7.12937623 7.25982612 7.1328125 11.14453125 C7.13376923 11.83254318 7.13472595 12.52055511 7.13571167 13.22941589 C7.13639069 14.68264864 7.13455582 16.13588445 7.13037109 17.58911133 C7.12504347 19.79450441 7.13031276 21.99969155 7.13671875 24.20507812 C7.13605744 25.62239628 7.13477519 27.0397143 7.1328125 28.45703125 C7.13168457 29.73553955 7.13055664 31.01404785 7.12939453 32.33129883 C7.00053592 35.98480506 6.58487283 39.39754344 6 43 C5.67 43 5.34 43 5 43 C4.22701049 37.54360345 3.86188584 32.28731478 3.90234375 26.78125 C3.90446617 25.66623108 3.90446617 25.66623108 3.90663147 24.52868652 C3.91216891 22.18574771 3.92470909 19.84290927 3.9375 17.5 C3.94252311 15.89843889 3.94708458 14.29687627 3.95117188 12.6953125 C3.96211773 8.79683712 3.97933804 4.8984355 4 1 C2.68 0.67 1.36 0.34 0 0 Z " fill="#383035" transform="translate(481,221)"/>
<path d="M0 0 C3.62050373 3.3667301 6.40408707 7.11259369 9.25 11.125 C9.70890625 11.75792969 10.1678125 12.39085937 10.640625 13.04296875 C14 17.75209263 14 17.75209263 14 20 C14.66 20 15.32 20 16 20 C16.33 19.01 16.66 18.02 17 17 C17.33 17.66 17.66 18.32 18 19 C17.0625 21.125 17.0625 21.125 16 23 C14 23 14 23 11.875 21.125 C1.57829059 10.39798034 1.57829059 10.39798034 -1 4 C-0.625 1.75 -0.625 1.75 0 0 Z " fill="#29242B" transform="translate(729,429)"/>
<path d="M0 0 C0.90089355 -0.00193359 1.80178711 -0.00386719 2.72998047 -0.00585938 C3.67760254 -0.00134766 4.62522461 0.00316406 5.6015625 0.0078125 C6.57367676 0.00974609 7.54579102 0.01167969 8.54736328 0.01367188 C16.47414309 0.06073836 24.33009885 0.44402439 32.2265625 1.1328125 C31.8965625 2.1228125 31.5665625 3.1128125 31.2265625 4.1328125 C29.2465625 3.8028125 27.2665625 3.4728125 25.2265625 3.1328125 C24.8965625 3.7928125 24.5665625 4.4528125 24.2265625 5.1328125 C23.70707031 4.80410156 23.18757812 4.47539062 22.65234375 4.13671875 C19.44246362 2.80831425 16.88220875 2.97797634 13.4140625 3.0703125 C5.62909035 3.18457334 -2.01271412 2.74926712 -9.7734375 2.1328125 C-9.7734375 1.8028125 -9.7734375 1.4728125 -9.7734375 1.1328125 C-6.46017351 0.39285756 -3.39283108 0.00478345 0 0 Z " fill="#322C2D" transform="translate(662.7734375,402.8671875)"/>
<path d="M0 0 C7.92 0 15.84 0 24 0 C19.71445913 2.85702725 15.25439118 2.29088949 10.24804688 2.21484375 C8.0241873 2.26516607 6.13764137 2.37761342 4 3 C1.44191697 5.95816236 0.22923691 8.31228927 -1 12 C-1.66 12 -2.32 12 -3 12 C-3.33 12.99 -3.66 13.98 -4 15 C-4.33 14.34 -4.66 13.68 -5 13 C-4.32782515 11.33556704 -3.65050165 9.67131083 -2.88671875 8.046875 C-1.75395063 5.43202701 -0.90114336 2.70343009 0 0 Z " fill="#302B2B" transform="translate(764,412)"/>
<path d="M0 0 C22.77 0.33 45.54 0.66 69 1 C69 1.33 69 1.66 69 2 C46.56 2.33 24.12 2.66 1 3 C0.67 2.01 0.34 1.02 0 0 Z " fill="#35302E" transform="translate(665,745)"/>
<path d="M0 0 C13.2 0 26.4 0 40 0 C40 0.33 40 0.66 40 1 C38.98800537 1.03758423 38.98800537 1.03758423 37.95556641 1.07592773 C34.84524807 1.1932631 31.73513304 1.31535527 28.625 1.4375 C27.56410156 1.47681641 26.50320313 1.51613281 25.41015625 1.55664062 C19.60003761 1.78833247 13.86714326 2.15574047 8.09765625 2.89257812 C5.0964074 3.04627336 2.7138273 2.21408063 0 1 C0 0.67 0 0.34 0 0 Z " fill="#221C17" transform="translate(516,505)"/>
<path d="M0 0 C0.33 0 0.66 0 1 0 C1.01981934 1.15000488 1.03963867 2.30000977 1.06005859 3.48486328 C1.13636046 7.76779385 1.22503946 12.05039556 1.31738281 16.33300781 C1.35557122 18.18352751 1.39044151 20.03411887 1.421875 21.88476562 C1.46774641 24.55104107 1.52570359 27.21682748 1.5859375 29.8828125 C1.59748871 30.70492218 1.60903992 31.52703186 1.62094116 32.37405396 C1.73747288 36.95068528 2.27244426 40.69020304 4 45 C3.01 45.495 3.01 45.495 2 46 C1.34 45.67 0.68 45.34 0 45 C0 30.15 0 15.3 0 0 Z " fill="#3A3535" transform="translate(224,695)"/>
<path d="M0 0 C0.69738281 0.00902344 1.39476562 0.01804687 2.11328125 0.02734375 C3.82566958 0.05080112 5.53788004 0.08666896 7.25 0.125 C7.25 0.455 7.25 0.785 7.25 1.125 C1.03234718 2.9672675 -4.26277762 3.30520062 -10.75 3.125 C-10.75 6.425 -10.75 9.725 -10.75 13.125 C-11.08 13.125 -11.41 13.125 -11.75 13.125 C-11.75 9.495 -11.75 5.865 -11.75 2.125 C-7.50197923 0.00098962 -4.58238937 -0.1126107 0 0 Z " fill="#E6E0C8" transform="translate(312.75,426.875)"/>
<path d="M0 0 C0 0.66 0 1.32 0 2 C-0.66 2 -1.32 2 -2 2 C-2.25523437 2.58265625 -2.51046875 3.1653125 -2.7734375 3.765625 C-4.11741087 6.21388223 -5.61810296 7.81743248 -7.625 9.75 C-8.57246094 10.67039062 -8.57246094 10.67039062 -9.5390625 11.609375 C-10.02117188 12.06828125 -10.50328125 12.5271875 -11 13 C-11.33 12.34 -11.66 11.68 -12 11 C-5.34883721 0 -5.34883721 0 0 0 Z " fill="#EFF2EF" transform="translate(666,712)"/>
<path d="M0 0 C2.25056722 0.11433363 4.50046674 0.24186436 6.75 0.375 C8.62945312 0.47941406 8.62945312 0.47941406 10.546875 0.5859375 C13.60998121 0.95323304 15.41974266 1.39711286 18 3 C15.11788698 3.96070434 13.30149956 4.10581883 10.3125 4.0625 C9.10013672 4.04896484 9.10013672 4.04896484 7.86328125 4.03515625 C6.94095703 4.01775391 6.94095703 4.01775391 6 4 C6 3.34 6 2.68 6 2 C4.35 2 2.7 2 1 2 C0.67 1.34 0.34 0.68 0 0 Z " fill="#EBEACD" transform="translate(322,428)"/>
<path d="M0 0 C0.66 0.66 1.32 1.32 2 2 C1.071875 3.1446875 1.071875 3.1446875 0.125 4.3125 C-2.05597052 6.99625809 -2.05597052 6.99625809 -4 10 C-4.66 10 -5.32 10 -6 10 C-6.33 7.69 -6.66 5.38 -7 3 C-4.69 2.01 -2.38 1.02 0 0 Z " fill="#787764" transform="translate(702,394)"/>
<path d="M0 0 C4.04224085 1.39588173 6.94148485 3.30564036 10.25 6 C11.12140625 6.70125 11.9928125 7.4025 12.890625 8.125 C15 10 15 10 16 12 C12.46433646 10.38753587 9.45224677 8.28040353 6.3125 6 C5.33925781 5.29875 4.36601563 4.5975 3.36328125 3.875 C1 2 1 2 0 0 Z " fill="#353238" transform="translate(581,289)"/>
<path d="M0 0 C3.37462715 0.54723683 5.08235 1.0549 8 3 C8 3.99 8 4.98 8 6 C5.21788056 5.62403791 3.4120716 5.32681541 1.1875 3.5625 C0 2 0 2 0 0 Z " fill="#393336" transform="translate(227,742)"/>
<path d="M0 0 C3.70488428 0.92622107 5.16604069 1.67210485 8 4 C7.34 5.32 6.68 6.64 6 8 C5.34 8 4.68 8 4 8 C2.68 5.36 1.36 2.72 0 0 Z " fill="#EAE7E7" transform="translate(739,441)"/>
<path d="M0 0 C0.33 0 0.66 0 1 0 C0.48994715 6.0400995 -0.25099856 11.50199712 -3 17 C-3.66 17 -4.32 17 -5 17 C-4.80664062 16.35933594 -4.61328125 15.71867187 -4.4140625 15.05859375 C-2.9059252 10.04889015 -1.42282214 5.03460143 0 0 Z " fill="#565151" transform="translate(685,474)"/>
<path d="M0 0 C2.64 0 5.28 0 8 0 C8 0.99 8 1.98 8 3 C5.21176345 4.0326802 4.1322726 4.04509293 1.25 3.0625 C0.5075 2.711875 -0.235 2.36125 -1 2 C-0.67 1.34 -0.34 0.68 0 0 Z " fill="#F9F5DC" transform="translate(314,428)"/>
<path d="M0 0 C1.98 0 3.96 0 6 0 C6 0.66 6 1.32 6 2 C5.01 2.66 4.02 3.32 3 4 C2.26393501 7.56769552 2.26393501 7.56769552 2 11 C1.67 11 1.34 11 1 11 C0.67 7.37 0.34 3.74 0 0 Z " fill="#E8E9E5" transform="translate(510,571)"/>
<path d="M0 0 C2.0625 1.6875 2.0625 1.6875 4 4 C3.75 6.75 3.75 6.75 3 9 C0.4277953 7.71389765 -0.00974907 6.66606019 -1 4 C-0.625 1.75 -0.625 1.75 0 0 Z " fill="#2E2A33" transform="translate(729,429)"/>
<path d="M0 0 C0.66 1.32 1.32 2.64 2 4 C0.625 6.75 0.625 6.75 -1 9 C-1.99 8.67 -2.98 8.34 -4 8 C-2.68 5.36 -1.36 2.72 0 0 Z " fill="#464E51" transform="translate(643,468)"/>
<path d="M0 0 C0.99 0.33 1.98 0.66 3 1 C2.67 2.32 2.34 3.64 2 5 C2.99 5.33 3.98 5.66 5 6 C4.67 7.65 4.34 9.3 4 11 C1.54176828 7.31265242 0.98757384 4.30300029 0 0 Z " fill="#585355" transform="translate(346,461)"/>
<path d="M0 0 C0.33 0.66 0.66 1.32 1 2 C-2.28804981 4.91227269 -4.59885603 6.49701212 -9 7 C-6.24479785 4.04070881 -3.53372712 1.96318174 0 0 Z " fill="#5B5651" transform="translate(644,648)"/>
<path d="M0 0 C0.99 0.33 1.98 0.66 3 1 C3.33 2.98 3.66 4.96 4 7 C3.34 7 2.68 7 2 7 C0.5393715 4.35261084 0 3.10551666 0 0 Z " fill="#3F363A" transform="translate(297,541)"/>
<path d="M0 0 C0.66 0.33 1.32 0.66 2 1 C1.25 6.75 1.25 6.75 -1 9 C-1.09765625 2.84765625 -1.09765625 2.84765625 -1 1 C-0.67 0.67 -0.34 0.34 0 0 Z " fill="#353839" transform="translate(709,517)"/>
<path d="M0 0 C2.46800047 1.15173355 4.04783565 2.04783565 6 4 C5.67 4.99 5.34 5.98 5 7 C3.29115995 5.37660195 1.62553283 3.70680947 0 2 C0 1.34 0 0.68 0 0 Z " fill="#4D4949" transform="translate(381,521)"/>
<path d="M0 0 C1 2 1 2 0.375 4.0625 C-1 6 -1 6 -3.625 6.75 C-4.800625 6.87375 -4.800625 6.87375 -6 7 C-4.02 4.69 -2.04 2.38 0 0 Z " fill="#4B4846" transform="translate(386,310)"/>
<path d="M0 0 C-2 2 -2 2 -5.125 2.125 C-6.548125 2.063125 -6.548125 2.063125 -8 2 C-8 1.34 -8 0.68 -8 0 C-5.13822943 -1.43088528 -3.06624227 -0.59991697 0 0 Z " fill="#3B373B" transform="translate(466,224)"/>
<path d="M0 0 C0.66 0 1.32 0 2 0 C2.66 1.98 3.32 3.96 4 6 C3.01 6 2.02 6 1 6 C0.67 4.02 0.34 2.04 0 0 Z " fill="#353032" transform="translate(342,193)"/>
</svg>
