<?xml version="1.0" encoding="UTF-8"?>
<svg version="1.1" xmlns="http://www.w3.org/2000/svg" width="1024" height="1024">
<path d="M0 0 C337.92 0 675.84 0 1024 0 C1024 337.92 1024 675.84 1024 1024 C686.08 1024 348.16 1024 0 1024 C0 686.08 0 348.16 0 0 Z " fill="#4D5B60" transform="translate(0,0)"/>
<path d="M0 0 C57.75 0 115.5 0 175 0 C175 57.09 175 114.18 175 173 C88.375 173.495 88.375 173.495 0 174 C0 116.58 0 59.16 0 0 Z " fill="#455459" transform="translate(417,374)"/>
<path d="M0 0 C1.86715095 -0.00571097 3.7342984 -0.01267803 5.60144043 -0.02079773 C10.6447389 -0.03866078 15.68786275 -0.03757408 20.73118329 -0.03185534 C24.95089264 -0.02875453 29.17056888 -0.03486562 33.39027351 -0.04089409 C43.34728746 -0.05491426 53.30421556 -0.05339803 63.26123047 -0.04199219 C73.51613575 -0.03050437 83.7707797 -0.04460359 94.02565056 -0.07138866 C102.84975347 -0.09356938 111.67377449 -0.10017795 120.49790329 -0.09431225 C125.75973427 -0.09094826 131.02139763 -0.0933211 136.28320503 -0.11056328 C141.23033178 -0.1260689 146.17707197 -0.12203674 151.12418365 -0.10325813 C152.93411881 -0.09958274 154.74408285 -0.10264995 156.55399132 -0.11314392 C168.90130279 -0.17924199 179.15305504 0.47900671 188.55639648 9.34936523 C195.57634559 17.27317045 198.68665963 25.83750538 198.65086365 36.39167786 C198.65610033 37.16647812 198.661337 37.94127838 198.66673237 38.73955745 C198.68166221 41.32023986 198.68243597 43.90072278 198.68310547 46.48144531 C198.69073163 48.3381534 198.69915991 50.19485834 198.70832825 52.05155945 C198.73023381 57.08471985 198.73906674 62.11781951 198.74415469 67.1510222 C198.74780262 70.29848525 198.75404492 73.4459325 198.76115608 76.59338951 C198.78563591 87.58212353 198.79869952 98.57081043 198.80224609 109.55957031 C198.80588124 119.78943048 198.83577902 130.01899061 198.87765068 140.24875909 C198.91238005 149.04304936 198.92779499 157.83724029 198.92849213 166.63159865 C198.92928397 171.87901932 198.93798025 177.12613409 198.96648979 182.37348366 C198.99271605 187.31074773 198.99485014 192.24745323 198.97883415 197.18475533 C198.97702336 198.99147513 198.98367689 200.7982274 198.99965286 202.60487747 C199.07879496 212.13982616 199.0260547 220.26541474 193.37670898 228.40405273 C192.71670898 229.37858398 192.05670898 230.35311523 191.37670898 231.35717773 C184.36350844 239.41140023 175.99109487 243.96778698 165.37670898 245.40405273 C162.83462983 245.5036836 160.31923727 245.56032019 157.77749634 245.56468201 C157.03228521 245.56976983 156.28707408 245.57485765 155.51928079 245.58009964 C153.03246821 245.59574339 150.54568452 245.60432786 148.05883789 245.61279297 C146.2711265 245.62233825 144.48341694 245.6322297 142.69570923 245.6424408 C136.83158543 245.67375776 130.96744777 245.69408979 125.10327148 245.71264648 C124.10325843 245.71594381 123.10324538 245.71924113 122.07292891 245.72263837 C112.62898315 245.75342391 103.18503403 245.78011192 93.74105263 245.79705715 C81.69498947 245.81893026 69.64937385 245.86083982 57.60348952 245.93049473 C49.11571792 245.97789323 40.62806636 246.00201202 32.14016664 246.00925404 C27.08024374 246.01418755 22.0208259 246.02904751 16.96104813 246.06899834 C12.19198803 246.1061577 7.42371533 246.11417941 2.6545372 246.1009922 C0.91643354 246.10104567 -0.82170768 246.11114397 -2.55967712 246.13274384 C-15.82553441 246.28862853 -28.29525649 244.44657551 -39.24829102 236.27905273 C-45.46888914 230.12741911 -49.71235826 220.79400455 -49.77102071 212.09520006 C-49.77083635 211.37216173 -49.77065199 210.64912339 -49.77046204 209.9041748 C-49.77413872 209.13349781 -49.77781541 208.36282081 -49.78160352 207.56878996 C-49.79264457 204.97806356 -49.79648497 202.38737727 -49.80029297 199.79663086 C-49.80655749 197.94213737 -49.81320428 196.08764515 -49.82020569 194.2331543 C-49.84125634 188.13387935 -49.85161153 182.03460413 -49.86157227 175.93530273 C-49.86561996 173.83458951 -49.86973689 171.73387641 -49.87392235 169.63316345 C-49.89297912 159.76014335 -49.90720706 149.88713074 -49.91553432 140.01409578 C-49.92529786 128.62650593 -49.95159234 117.23911091 -49.99203521 105.85158968 C-50.02223371 97.04548369 -50.03700689 88.23943341 -50.04031533 79.43327665 C-50.04266228 74.17630084 -50.05157603 68.91953306 -50.0767765 63.66261292 C-50.10012637 58.71151804 -50.10426267 53.7607671 -50.09401512 48.80963135 C-50.09352127 46.99849806 -50.099797 45.18734745 -50.11357117 43.37626648 C-50.27957843 20.24268166 -50.27957843 20.24268166 -42.28344727 11.80639648 C-29.27246379 0.81594221 -16.25740437 -0.04507316 0 0 Z M-13.62329102 36.40405273 C-13.62329102 93.82405273 -13.62329102 151.24405273 -13.62329102 210.40405273 C44.12670898 210.07405273 101.87670898 209.74405273 161.37670898 209.40405273 C161.37670898 152.31405273 161.37670898 95.22405273 161.37670898 36.40405273 C103.62670898 36.40405273 45.87670898 36.40405273 -13.62329102 36.40405273 Z " fill="#FAFAEF" transform="translate(430.623291015625,337.595947265625)"/>
<path d="M0 0 C0.6790892 -0.00145523 1.35817841 -0.00291046 2.05784607 -0.00440979 C3.49100035 -0.00275201 4.92417265 0.00879613 6.35717773 0.02954102 C8.55463911 0.05854156 10.74969458 0.05014185 12.94726562 0.03710938 C14.33985551 0.04334564 15.73243776 0.05173572 17.125 0.0625 C19.0287439 0.0771228 19.0287439 0.0771228 20.97094727 0.09204102 C21.96924561 0.22537842 22.96754395 0.35871582 23.99609375 0.49609375 C29.18045353 8.27263342 23.76995403 24.52843971 21.99609375 33.49609375 C20.50442329 40.53964998 18.79441241 47.52520662 16.99609375 54.49609375 C16.80821289 55.23182617 16.62033203 55.96755859 16.42675781 56.72558594 C10.05729137 81.21567348 -1.14630768 104.38762501 -15.00390625 125.49609375 C-15.4716748 126.21265137 -15.93944336 126.92920898 -16.42138672 127.66748047 C-23.60601512 138.60652498 -31.20798602 148.80843489 -40.00390625 158.49609375 C-40.9636221 159.56633412 -41.92325823 160.636646 -42.8828125 161.70703125 C-51.66655293 171.44651546 -60.75220383 180.30044307 -71.00390625 188.49609375 C-72.75433447 189.95391307 -74.50433187 191.41224983 -76.25390625 192.87109375 C-112.59331985 222.50010427 -156.66433601 242.91698998 -203.00390625 250.49609375 C-204.25945313 250.71910156 -205.515 250.94210937 -206.80859375 251.171875 C-215.11184732 252.53109357 -223.59937294 253.24414122 -232.00390625 252.49609375 C-234.44468477 250.05531523 -234.24006806 248.74727016 -234.25614929 245.41624451 C-234.24896378 244.72974319 -234.24177826 244.04324188 -234.234375 243.3359375 C-234.23391678 242.63086563 -234.23345856 241.92579376 -234.23298645 241.19935608 C-234.22996488 239.70897743 -234.22208135 238.21860191 -234.2097168 236.72827148 C-234.19145081 234.43917742 -234.18920716 232.15048748 -234.18945312 229.86132812 C-234.18453831 228.41536106 -234.17871015 226.96939676 -234.171875 225.5234375 C-234.17076218 224.83491196 -234.16964935 224.14638641 -234.16850281 223.43699646 C-234.11996124 218.61214874 -234.11996124 218.61214874 -233.00390625 217.49609375 C-231.15786288 217.25621027 -229.30414797 217.07499677 -227.44921875 216.91796875 C-213.15718333 215.61392201 -199.69229158 213.83090315 -186.00390625 209.49609375 C-184.92036865 209.16569092 -184.92036865 209.16569092 -183.81494141 208.82861328 C-156.83816 200.57555218 -131.41935152 188.77013228 -109.00390625 171.49609375 C-107.83727358 170.61584036 -106.67060601 169.73563322 -105.50390625 168.85546875 C-97.22015353 162.53685227 -89.52432655 155.69941973 -82.00390625 148.49609375 C-81.25367188 147.78710938 -80.5034375 147.078125 -79.73046875 146.34765625 C-69.59336889 136.5310971 -61.28715588 124.87541438 -53.00390625 113.49609375 C-52.57996582 112.91972168 -52.15602539 112.34334961 -51.71923828 111.74951172 C-36.92699715 91.43626483 -26.92477084 68.20712455 -19.00390625 44.49609375 C-18.72724121 43.68495117 -18.45057617 42.87380859 -18.16552734 42.03808594 C-14.86361572 32.24292066 -12.93792922 22.38401999 -11.43408203 12.15917969 C-11.21727783 10.75394043 -11.21727783 10.75394043 -10.99609375 9.3203125 C-10.8760498 8.48588623 -10.75600586 7.65145996 -10.63232422 6.79174805 C-8.92143146 0.5417385 -6.21655897 -0.00906836 0 0 Z " fill="#F9F9F0" transform="translate(753.00390625,466.50390625)"/>
<path d="M0 0 C1.56258545 0.00108765 1.56258545 0.00108765 3.15673828 0.00219727 C4.29755859 0.00026367 5.43837891 -0.00166992 6.61376953 -0.00366211 C7.80615234 0.02018555 8.99853516 0.0440332 10.22705078 0.06860352 C11.41169922 0.05764648 12.59634766 0.04668945 13.81689453 0.03540039 C23.56452756 0.11782119 23.56452756 0.11782119 28.35205078 4.63110352 C30.96140433 8.2371977 30.86767323 12.51703233 31.22705078 16.81860352 C32.62500658 31.00259996 36.0346478 44.39795578 41.35205078 57.63110352 C41.72749023 58.56631836 42.10292969 59.5015332 42.48974609 60.46508789 C50.1786502 79.44320928 58.39585781 97.92153566 70.35205078 114.63110352 C70.99787109 115.55020508 71.64369141 116.46930664 72.30908203 117.41625977 C77.04549981 124.05845511 82.11940529 130.3755984 87.35205078 136.63110352 C88.25190719 137.71954861 89.15164268 138.80809368 90.05126953 139.89672852 C99.76896243 151.60023307 110.151134 161.0530181 122.35253906 170.13110352 C124.04493394 171.40070963 125.71482844 172.70022457 127.37939453 174.00610352 C154.43389294 195.12180959 189.38327749 212.26364622 223.53955078 217.19360352 C224.349646 217.31727295 225.15974121 217.44094238 225.99438477 217.56835938 C229.93841393 218.16261218 233.88540515 218.70777073 237.84423828 219.19360352 C238.53364502 219.27924561 239.22305176 219.3648877 239.93334961 219.453125 C241.80220298 219.67996672 243.6727975 219.89232892 245.54345703 220.10375977 C248.35205078 220.63110352 248.35205078 220.63110352 250.35205078 222.63110352 C250.61083984 225.56445312 250.61083984 225.56445312 250.61767578 229.28344727 C250.61958923 229.9393837 250.62150269 230.59532013 250.62347412 231.27113342 C250.62483546 232.65894962 250.62114252 234.04677857 250.61279297 235.43457031 C250.60210912 237.55701413 250.61268038 239.67860826 250.62548828 241.80102539 C250.62416634 243.14933455 250.62160323 244.49764318 250.61767578 245.84594727 C250.61541992 247.07434326 250.61316406 248.30273926 250.61083984 249.56835938 C250.35205078 252.63110352 250.35205078 252.63110352 248.35205078 255.63110352 C238.66967837 256.81319821 228.63406966 255.28247556 219.10205078 253.63110352 C217.81282715 253.40962646 216.52360352 253.18814941 215.1953125 252.95996094 C167.60591922 244.47927859 121.30657497 221.10146782 86.35205078 187.63110352 C84.62821315 186.0834804 82.89923886 184.54155483 81.16455078 183.00610352 C73.73364597 176.32543429 66.76587505 169.29374423 60.35205078 161.63110352 C59.88782715 161.08067383 59.42360352 160.53024414 58.9453125 159.96313477 C51.06349575 150.58458387 43.87523796 140.99908314 37.35205078 130.63110352 C36.68326904 129.57536133 36.68326904 129.57536133 36.00097656 128.49829102 C24.67643771 110.55026445 15.63256583 92.58975683 8.35205078 72.63110352 C8.02430664 71.74374512 7.6965625 70.85638672 7.35888672 69.94213867 C-11.42142164 18.58040305 -11.42142164 18.58040305 -4.48803711 3.02954102 C-2.64794922 0.63110352 -2.64794922 0.63110352 0 0 Z " fill="#F9F9EF" transform="translate(240.64794921875,464.368896484375)"/>
<path d="M0 0 C2.45247837 2.30767872 2.96680037 3.7249547 3.37231445 7.08447266 C3.3693335 8.2657373 3.36635254 9.44700195 3.36328125 10.6640625 C3.36231445 12.59378906 3.36231445 12.59378906 3.36132812 14.5625 C3.35302979 15.22894531 3.34473145 15.89539063 3.33618164 16.58203125 C3.31249538 18.62539823 3.31563736 20.66746725 3.32226562 22.7109375 C3.26692248 32.73307752 3.26692248 32.73307752 1 35 C-0.91333008 35.51489258 -0.91333008 35.51489258 -3.26953125 35.89453125 C-4.14697998 36.04237061 -5.02442871 36.19020996 -5.9284668 36.3425293 C-6.88019775 36.49761963 -7.83192871 36.65270996 -8.8125 36.8125 C-35.39890986 41.44591502 -62.07582366 48.18108771 -86 61 C-87.3614917 61.72775635 -87.3614917 61.72775635 -88.75048828 62.47021484 C-100.1122524 68.60187168 -110.96598727 74.84469604 -121 83 C-122.15486525 83.88502751 -123.31258411 84.76633989 -124.47265625 85.64453125 C-131.02735612 90.63632922 -137.05022495 95.79547763 -142.77734375 101.74609375 C-144.75112357 103.74762443 -146.76893973 105.52946155 -148.9375 107.3125 C-167.06395327 122.88078446 -181.93573801 146.33264396 -191.96533203 167.81298828 C-193.10081537 170.21309676 -194.28016345 172.58865109 -195.46484375 174.96484375 C-206.58358694 197.44782796 -213.12525752 220.38737892 -217.421875 245.04296875 C-218 248 -218 248 -219 250 C-224.14455164 251.71485055 -229.55179554 251.26899673 -234.9375 251.3125 C-236.13052734 251.34150391 -237.32355469 251.37050781 -238.55273438 251.40039062 C-239.69935547 251.40876953 -240.84597656 251.41714844 -242.02734375 251.42578125 C-243.07656006 251.44036377 -244.12577637 251.45494629 -245.20678711 251.4699707 C-248.74758215 250.87421592 -249.90415444 249.88294925 -252 247 C-253.78680017 238.55230918 -251.10790354 228.88591914 -249.5625 220.5 C-249.43228455 219.78367401 -249.30206909 219.06734802 -249.16790771 218.32931519 C-245.2911299 197.31366513 -238.47637109 177.16253652 -229 158 C-228.3208252 156.62303955 -228.3208252 156.62303955 -227.62792969 155.21826172 C-221.81021049 143.53098227 -215.76511647 132.50879096 -208 122 C-207.02710422 120.61227227 -206.05863758 119.22143272 -205.09375 117.828125 C-195.1329927 103.45832604 -184.08547815 90.61499653 -172 78 C-171.14921875 77.10667969 -170.2984375 76.21335937 -169.421875 75.29296875 C-164.48281122 70.22065685 -159.22293353 65.67331721 -153.65625 61.30126953 C-152.48623083 60.38201803 -151.31990841 59.45805201 -150.15625 58.53076172 C-112.0150814 28.19377568 -50.74946931 -5.16096298 0 0 Z " fill="#F9F9EF" transform="translate(487,186)"/>
<path d="M0 0 C0.83523193 0.0093457 1.67046387 0.01869141 2.53100586 0.02832031 C3.82155884 0.03847168 3.82155884 0.03847168 5.13818359 0.04882812 C12.48589105 0.16644615 19.55711269 0.90044433 26.78100586 2.27832031 C27.41699707 2.39127441 28.05298828 2.50422852 28.70825195 2.62060547 C64.42213212 9.06307552 109.07874997 26.51395357 135.78100586 52.27832031 C136.4779952 53.59605628 137.14960078 54.92793154 137.78100586 56.27832031 C137.32773926 56.7263501 136.87447266 57.17437988 136.4074707 57.63598633 C134.32092 59.70152791 132.23845088 61.77113984 130.15600586 63.84082031 C129.4431543 64.54529297 128.73030273 65.24976563 127.99584961 65.97558594 C123.70186305 70.24987531 119.65937992 74.62304798 115.78100586 79.27832031 C112.11946436 77.95872567 109.26795021 76.33965002 106.14819336 74.02441406 C100.95313288 70.31297067 95.57568091 67.26326279 89.90600586 64.34082031 C88.40444946 63.56496582 88.40444946 63.56496582 86.87255859 62.7734375 C77.39714157 57.95743524 67.76612788 53.90279967 57.78100586 50.27832031 C56.87866211 49.94348633 55.97631836 49.60865234 55.04663086 49.26367188 C35.79959207 42.18559995 16.07238138 38.18991433 -4.09863281 34.72119141 C-6.21899414 34.27832031 -6.21899414 34.27832031 -8.21899414 33.27832031 C-8.26837563 28.90008114 -8.30470454 24.52198885 -8.32885742 20.14355469 C-8.33892457 18.65361712 -8.35257932 17.16369934 -8.36987305 15.67382812 C-8.39409067 13.53413003 -8.40546978 11.39469278 -8.41430664 9.25488281 C-8.43001709 7.32249756 -8.43001709 7.32249756 -8.44604492 5.35107422 C-8.02059341 -0.40670284 -5.07442984 0.02730164 0 0 Z " fill="#FAFAEF" transform="translate(527.218994140625,186.7216796875)"/>
<path d="M0 0 C2.15869141 1.60302734 2.15869141 1.60302734 4 4 C4.45068359 7.09228516 4.45068359 7.09228516 4.3984375 10.7890625 C4.39880332 12.2003587 4.40023976 13.61165492 4.40258789 15.02294922 C4.39728058 15.77155212 4.39197327 16.52015503 4.38650513 17.29144287 C4.30123859 34.58584883 6.24778564 51.29734825 8.91748047 68.36181641 C9.05265579 69.22780457 9.18783112 70.09379272 9.32710266 70.98602295 C9.58242502 72.60370477 9.84324895 74.22053233 10.11076355 75.83624268 C10.76883008 79.91925348 11.32769162 83.85132251 11 88 C9 90 9 90 7.15687561 90.24790955 C1.59092176 90.17389962 -3.66679379 89.55211296 -9.12890625 88.50390625 C-9.96284409 88.35090561 -10.79678192 88.19790497 -11.6559906 88.04026794 C-14.29294519 87.55516162 -16.92773986 87.05937364 -19.5625 86.5625 C-22.20116026 86.07120993 -24.84022534 85.58222489 -27.47972107 85.09544373 C-29.11315295 84.79354148 -30.74605802 84.48876882 -32.37831116 84.18055725 C-39.19517443 82.90940132 -45.94393937 81.93109327 -52.890625 81.75390625 C-53.92960938 81.72103516 -54.96859375 81.68816406 -56.0390625 81.65429688 C-58.19519254 81.59265569 -60.35145284 81.53542592 -62.5078125 81.48242188 C-63.54164063 81.44826172 -64.57546875 81.41410156 -65.640625 81.37890625 C-66.57422852 81.3538501 -67.50783203 81.32879395 -68.46972656 81.30297852 C-72.35955297 80.83720521 -74.35928576 79.7953694 -76.8125 76.75 C-78.38168911 73.11608838 -78.32361499 71.75024246 -77 68 C-72.29721204 61.82364297 -66.55394571 56.40114092 -61.0625 50.9375 C-59.92264648 49.7918457 -59.92264648 49.7918457 -58.75976562 48.62304688 C-54.60224681 44.47262887 -50.35110876 40.51424433 -45.90014648 36.68188477 C-42.79041633 33.92935604 -39.90390375 30.96634446 -37 28 C-32.79788283 23.74894988 -28.57356558 19.6391738 -24 15.78515625 C-20.35547195 12.53213024 -17.00435016 8.96688092 -13.61328125 5.453125 C-9.32707746 1.42960335 -6.01114598 -0.89527706 0 0 Z " fill="#FAFBF4" transform="translate(715,232)"/>
<path d="M0 0 C2.32185958 2.14126121 3.82279733 4.20906275 5.3046875 6.9921875 C5.92887573 8.16346191 5.92887573 8.16346191 6.56567383 9.35839844 C6.99775146 10.18887695 7.4298291 11.01935547 7.875 11.875 C8.32190186 12.73125977 8.76880371 13.58751953 9.22924805 14.46972656 C14.57721334 24.87077209 18.30989435 35.68185446 21.88671875 46.78515625 C22.837213 49.8181486 22.837213 49.8181486 23.96166992 51.75830078 C26.2471037 56.69243032 27.00496963 62.27552746 28.14160156 67.5769043 C28.61589358 69.77038511 29.11211932 71.95811362 29.609375 74.14648438 C31.64153245 83.3894683 33.03681424 92.51468158 32 102 C29.16740425 104.83259575 27.2730534 104.25838261 23.3125 104.265625 C22.65419189 104.26753845 21.99588379 104.2694519 21.31762695 104.27142334 C19.9256146 104.2727845 18.53358953 104.26909283 17.14160156 104.26074219 C15.00817411 104.250041 12.87558869 104.26063906 10.7421875 104.2734375 C9.39062314 104.27211589 8.0390593 104.26955347 6.6875 104.265625 C5.45386719 104.26336914 4.22023438 104.26111328 2.94921875 104.25878906 C0 104 0 104 -2 102 C-2.5152224 99.74552974 -2.93568622 97.46918833 -3.3125 95.1875 C-7.25334623 72.862862 -13.38716037 51.81438572 -23.24316406 31.35717773 C-23.61666992 30.56770752 -23.99017578 29.7782373 -24.375 28.96484375 C-24.71273437 28.2699585 -25.05046875 27.57507324 -25.3984375 26.85913086 C-26 25 -26 25 -25 22 C-23.3203125 20.7109375 -23.3203125 20.7109375 -21.125 19.375 C-12.87743076 14.06546262 -5.20141058 8.42987232 0 0 Z " fill="#F9F9F0" transform="translate(746,334)"/>
<path d="M0 0 C3.39890142 2.06889652 5.88937011 4.11279537 7 8 C7 17.01009418 0.85844534 23.3165605 -5.15234375 29.41015625 C-7.06805258 31.30751522 -9.00064392 33.18676378 -10.9375 35.0625 C-18.39018537 42.24597525 -18.39018537 42.24597525 -25.37890625 49.87109375 C-31.07655 56.54479743 -37.51152318 62.56418129 -43.74804688 68.72753906 C-52.27610565 77.15543061 -52.27610565 77.15543061 -60.31347656 86.046875 C-63.8650806 90.15990805 -67.60925651 94.08386739 -71.375 98 C-72.17421875 98.87011719 -72.9734375 99.74023438 -73.796875 100.63671875 C-80.51060284 107.5568557 -80.51060284 107.5568557 -85.90625 107.71484375 C-89.43660547 107.45246326 -90.13824241 106.89217092 -93.125 104.5625 C-95.43875877 101.14426405 -95.49282167 98.21013674 -94.75390625 94.22265625 C-92.73777021 88.27871114 -87.90417926 84.88212586 -83.125 81.125 C-75.68737695 75.19104837 -69.4315659 68.17431164 -63.0078125 61.18115234 C-60.50456933 58.46179747 -57.97810604 55.76477627 -55.44995117 53.06860352 C-52.62499 50.05345934 -49.81259143 47.02667774 -47 44 C-46.51192871 43.47599609 -46.02385742 42.95199219 -45.52099609 42.41210938 C-35.21144957 31.33085827 -25.36208891 19.89410841 -16 8 C-11.25844391 2.01159027 -8.20140614 -1.4837534 0 0 Z " fill="#F8F9EF" transform="translate(806,664)"/>
<path d="M0 0 C7.06768763 1.84054365 11.64673482 10.57494306 15.91259766 16.10449219 C19.87528594 21.21231762 24.12226491 25.96224402 28.546875 30.671875 C30.59889244 32.88402097 32.5940541 35.11636785 34.5703125 37.39453125 C38.39814125 41.79029329 42.37089403 46.03847098 46.375 50.2734375 C47.06464844 51.00626953 47.75429688 51.73910156 48.46484375 52.49414062 C52.00628285 56.24887864 55.58348609 59.95260472 59.25 63.5859375 C60.70513712 65.05137864 62.159474 66.51761454 63.61328125 67.984375 C65.26295516 69.64329448 66.91269658 71.30214682 68.5625 72.9609375 C69.78743164 74.1984375 69.78743164 74.1984375 71.03710938 75.4609375 C75.4156286 79.85690103 79.84868018 84.09638905 84.59033203 88.10009766 C87.12857057 90.3724895 88.77829906 92.51456163 90.25 95.5859375 C90.25 100.89696282 88.92726009 103.79724528 85.25 107.5859375 C82.33225221 109.04481139 80.50271895 108.95416983 77.25 108.5859375 C72.26672014 105.68657467 68.81980837 102.21389321 65.1328125 97.82421875 C63.0593374 95.35927844 60.91302319 92.97259529 58.75 90.5859375 C56.1234904 87.6817935 53.53672097 84.75596834 51 81.7734375 C47.09632945 77.25779009 42.80850499 73.12041703 38.51660156 68.97729492 C37.05807291 67.54970346 35.64935992 66.07157374 34.25 64.5859375 C34.25 63.9259375 34.25 63.2659375 34.25 62.5859375 C33.59 62.5859375 32.93 62.5859375 32.25 62.5859375 C30.91015625 61.22265625 30.91015625 61.22265625 29.3125 59.2734375 C26.32773632 55.74881012 23.18001152 52.49964791 19.875 49.2734375 C16.29482527 45.76247422 12.99035503 42.14521857 9.875 38.2109375 C6.35532157 33.7700436 2.55410932 29.83835456 -1.5 25.8984375 C-12.61660947 14.98739607 -12.61660947 14.98739607 -12.875 8.3984375 C-10.3463285 2.07675876 -6.70054813 -0.46286681 0 0 Z " fill="#F8F9F0" transform="translate(208.75,664.4140625)"/>
<path d="M0 0 C2.92152702 1.8344472 5.4326609 3.86532181 7 7 C7.55910987 12.68428373 7.55910987 12.68428373 7 15 C4.12552001 18.32890145 0.87964236 20.92762853 -2.65112305 23.53320312 C-9.28038275 28.4528067 -14.92496055 33.85246133 -20.46264648 39.95678711 C-24.74894743 44.65559771 -29.15807252 49.20092256 -33.671875 53.6796875 C-34.26591629 54.26945374 -34.85995758 54.85921997 -35.47200012 55.46685791 C-37.88155733 57.85572936 -40.29321071 60.24234176 -42.71420288 62.61962891 C-49.64291988 69.42452569 -56.10095453 76.25915567 -62 84 C-71.62870809 96.19765876 -71.62870809 96.19765876 -76.8515625 97.96484375 C-80.96936978 98.1166803 -83.22536479 97.56680625 -86.5625 95.125 C-89.00040217 91.52114461 -89.42142818 89.38285302 -89 85 C-86.40310091 80.58767609 -83.36092879 77.16853386 -79.6875 73.625 C-75.9510558 69.97161524 -72.38277077 66.2503378 -68.98339844 62.28125 C-58.40785209 50.11754923 -46.96261602 38.77483262 -35.57055664 27.38525391 C-33.04168735 24.85648753 -30.51985036 22.32082517 -27.99957371 19.78349876 C-26.03754843 17.81035059 -24.07099058 15.84176847 -22.10313225 13.87443924 C-20.72141964 12.49098864 -19.34424594 11.10300956 -17.96717834 9.7149353 C-16.70447365 8.45684555 -16.70447365 8.45684555 -15.41625977 7.17333984 C-14.31472313 6.06966568 -14.31472313 6.06966568 -13.19093323 4.94369507 C-9.01612215 1.23999493 -5.67963532 -0.9272874 0 0 Z " fill="#F7F8EE" transform="translate(286,157)"/>
<path d="M0 0 C6.57995491 1.84536327 12.23318017 8.35776723 17.09448242 12.96240234 C17.72749268 13.55674072 18.36050293 14.1510791 19.01269531 14.76342773 C24.61305056 20.05627481 30.06648797 25.49370717 35.46362305 30.99316406 C39.34709269 34.9301779 43.3493713 38.59888819 47.61035156 42.12670898 C48.10011475 42.60873779 48.58987793 43.0907666 49.09448242 43.58740234 C49.09448242 44.24740234 49.09448242 44.90740234 49.09448242 45.58740234 C49.75448242 45.58740234 50.41448242 45.58740234 51.09448242 45.58740234 C52.81857869 47.21773197 54.45636797 48.87432333 56.09448242 50.58740234 C57.12009941 51.60738408 58.14886097 52.62421167 59.18041992 53.63818359 C64.41438799 58.82166576 69.57301279 63.98541559 74.33666992 69.61083984 C77.37865805 73.0313865 80.68229881 76.19297514 83.95776367 79.38818359 C86.9854051 82.50438492 88.03685519 84.0769897 88.53198242 88.46240234 C88.42717595 91.80387938 88.05569358 92.64558561 86.09448242 95.58740234 C83.01607501 97.63967395 80.91311247 98.44600511 77.18457031 98.19775391 C70.00492866 96.10114088 63.90787489 87.4064031 58.96948242 82.08740234 C58.29272461 81.36681641 57.6159668 80.64623047 56.91870117 79.90380859 C53.29990321 76.0330247 49.78426018 72.11241903 46.4230957 68.01513672 C44.95556607 66.32779246 44.95556607 66.32779246 42.09448242 64.58740234 C42.09448242 63.92740234 42.09448242 63.26740234 42.09448242 62.58740234 C41.43448242 62.58740234 40.77448242 62.58740234 40.09448242 62.58740234 C38.64916992 61.11865234 38.64916992 61.11865234 36.96948242 59.08740234 C31.57196729 52.75118893 25.72667467 47.0399957 19.41088867 41.62646484 C17.61392101 40.04464845 15.86183203 38.44109877 14.12182617 36.79833984 C7.87112928 30.90577056 1.57161165 25.49078603 -5.44458008 20.52490234 C-9.35251927 17.44817561 -10.76185423 15.70079333 -11.40551758 10.71240234 C-11.26721725 7.63522002 -10.67896026 5.61575643 -8.90551758 3.08740234 C-5.80629668 0.50471826 -4.05420607 -0.31495407 0 0 Z " fill="#F8F9F0" transform="translate(722.905517578125,156.41259765625)"/>
<path d="M0 0 C12.40892184 5.45992561 17.83551799 23.46868295 23 35 C23.47002441 36.04317383 23.94004883 37.08634766 24.42431641 38.16113281 C25.84766691 41.34785376 27.24139802 44.54584297 28.625 47.75 C29.06303955 48.73693848 29.5010791 49.72387695 29.95239258 50.74072266 C32.51995061 56.81946675 33.47517883 61.40180255 33 68 C26.74827614 70.86964374 21.90352555 72.51137226 15 72 C11.22281333 65.95650133 8.67147413 59.53701743 6.02639771 52.9335022 C1.6055272 41.92398636 -3.09071157 31.30721507 -9 21 C-13.9795497 12.26791883 -13.9795497 12.26791883 -14.0625 7.125 C-11.55901195 -0.23820014 -7.20639262 -1.18426732 0 0 Z " fill="#F8F9F0" transform="translate(790,306)"/>
<path d="M0 0 C0.99 0 1.98 0 3 0 C4.56502566 2.24744965 5.91626404 4.4324171 7.25 6.8125 C8.05349527 8.19990989 8.85819235 9.58662445 9.6640625 10.97265625 C10.25815918 12.00350342 10.25815918 12.00350342 10.86425781 13.05517578 C12.38680933 15.66236524 13.99488308 18.20893539 15.625 20.75 C16.17671875 21.61238281 16.7284375 22.47476563 17.296875 23.36328125 C18.50905549 25.23993683 19.72860045 27.11184429 20.953125 28.98046875 C21.58734375 29.95628906 22.2215625 30.93210937 22.875 31.9375 C23.44992187 32.81277344 24.02484375 33.68804688 24.6171875 34.58984375 C25.87772273 36.78687831 26.55225721 38.52593406 27 41 C18.49349241 46.64859002 18.49349241 46.64859002 13.8125 47.75 C5.38466866 45.50257831 0.60188311 36.79727689 -4 30 C-4.40105957 29.41524902 -4.80211914 28.83049805 -5.21533203 28.22802734 C-6.47022555 26.39027843 -7.70664385 24.54141859 -8.9375 22.6875 C-9.32728027 22.11322266 -9.71706055 21.53894531 -10.11865234 20.94726562 C-12.4808181 17.31510697 -13.58916908 14.31046413 -14 10 C-13.07316406 9.36191406 -12.14632812 8.72382812 -11.19140625 8.06640625 C-9.98173309 7.23182554 -8.77209973 6.39718714 -7.5625 5.5625 C-6.64500977 4.93118164 -6.64500977 4.93118164 -5.70898438 4.28710938 C-2.71897291 2.31239178 -2.71897291 2.31239178 0 0 Z " fill="#F8F9F3" transform="translate(235,590)"/>
<path d="M0 0 C2.64545044 8.15319153 5.18516734 16.31939182 7.3125 24.625 C7.80169922 26.53152344 7.80169922 26.53152344 8.30078125 28.4765625 C8.95330846 31.76471637 9.13871186 34.66064039 9 38 C2.94526627 40.57886807 -2.44074057 41.61020794 -9 42 C-12.62030881 36.38823151 -14.25609632 30.40854066 -16.1875 24.0625 C-16.55552734 22.89525391 -16.92355469 21.72800781 -17.30273438 20.52539062 C-17.65013672 19.39423828 -17.99753906 18.26308594 -18.35546875 17.09765625 C-18.67153076 16.07164307 -18.98759277 15.04562988 -19.31323242 13.98852539 C-20.02465905 10.89269414 -20.12422146 8.16513917 -20 5 C-17.60712296 4.1572257 -15.21128981 3.32562998 -12.8125 2.5 C-11.80219727 2.14228516 -11.80219727 2.14228516 -10.77148438 1.77734375 C-7.06795533 0.51272408 -3.92059464 -0.30451221 0 0 Z " fill="#F7F9F3" transform="translate(207,510)"/>
<path d="M0 0 C7.41931118 1.38599134 14.70344245 3.13766999 22 5.0625 C23.55267578 5.4656543 23.55267578 5.4656543 25.13671875 5.87695312 C32.7387749 7.86938745 32.7387749 7.86938745 35 9 C35.10152799 15.7685324 35.03026944 22.30324864 34 29 C25.63655642 28.57994228 18.0234592 26.89910645 10 24.5625 C8.88238281 24.24990234 7.76476562 23.93730469 6.61328125 23.61523438 C-1.58569864 21.27620091 -1.58569864 21.27620091 -5 19 C-4.54537103 11.95325093 -2.82975898 6.44048536 0 0 Z " fill="#F9FAF4" transform="translate(399,737)"/>
<path d="M0 0 C4.14792959 3.00062992 5.95982201 6.00714567 7 11 C6.9375 13.625 6.9375 13.625 6 16 C1.84008665 19.94742269 -2.92768231 21.96424933 -8.125 24.1875 C-8.93582031 24.54263672 -9.74664063 24.89777344 -10.58203125 25.26367188 C-16.23182646 27.7243678 -20.68143629 29.55425997 -27 29 C-29.9061075 26.80078351 -31.78605 24.439525 -33 21 C-33.50196108 16.28156581 -32.88263018 13.7559815 -30 10 C-27.50239313 8.32309291 -24.85181332 7.07272994 -22.125 5.8125 C-21.41730469 5.47025391 -20.70960938 5.12800781 -19.98046875 4.77539062 C-7.33047304 -1.29048255 -7.33047304 -1.29048255 0 0 Z " fill="#F7F9EE" transform="translate(667,718)"/>
<path d="M0 0 C4.33331896 -0.0292427 8.66661221 -0.04688017 13 -0.0625 C14.22074219 -0.07087891 15.44148438 -0.07925781 16.69921875 -0.08789062 C29.13156616 -0.12149156 29.13156616 -0.12149156 35 1 C37 3 37 3 37.23046875 6.87890625 C37.22647576 8.44016476 37.21171261 10.00142414 37.1875 11.5625 C37.18685547 12.35591797 37.18621094 13.14933594 37.18554688 13.96679688 C37.14025522 19.85974478 37.14025522 19.85974478 36 21 C33.59843439 21.11329038 31.22672116 21.16417175 28.82421875 21.16796875 C28.10265091 21.17129715 27.38108307 21.17462555 26.63764954 21.17805481 C25.1068282 21.18312803 23.57599575 21.18546301 22.04516602 21.18530273 C19.70765771 21.18748121 17.37062733 21.20560994 15.03320312 21.22460938 C13.54687662 21.22754486 12.06054786 21.22952862 10.57421875 21.23046875 C9.52713997 21.24124702 9.52713997 21.24124702 8.45890808 21.25224304 C4.82860608 21.23524691 2.02710641 21.11557951 -1 19 C-2.2041355 16.591729 -2.166929 14.99907251 -2.1875 12.3125 C-2.20167969 11.48363281 -2.21585937 10.65476562 -2.23046875 9.80078125 C-1.94744361 6.36130629 -1.02534627 3.28678192 0 0 Z " fill="#F9FAF2" transform="translate(478,753)"/>
<path d="M0 0 C6.9364214 -0.77071349 11.89512452 1.91212766 18 5 C18.66 5.33 19.32 5.66 20 6 C18.8215989 11.59740522 17.49452098 17.14967031 16.0625 22.6875 C15.58490234 24.54955078 15.58490234 24.54955078 15.09765625 26.44921875 C12.65764331 34.34235669 12.65764331 34.34235669 10 37 C3.56405309 37.34478287 -3.13911102 36.93044449 -9 34 C-8.68800475 22.200907 -4.30196524 10.86812272 0 0 Z " fill="#F7F9F1" transform="translate(200,340)"/>
<path d="M0 0 C6.6 0 13.2 0 20 0 C20 10.56 20 21.12 20 32 C6 34 6 34 0 34 C-1.81268688 32.18731312 -1.13039163 29.39128747 -1.1328125 26.953125 C-1.13410156 25.715625 -1.13539063 24.478125 -1.13671875 23.203125 C-1.13285156 21.89859375 -1.12898437 20.5940625 -1.125 19.25 C-1.12886719 17.9609375 -1.13273438 16.671875 -1.13671875 15.34375 C-1.13478516 13.47976563 -1.13478516 13.47976563 -1.1328125 11.578125 C-1.13168457 10.43762695 -1.13055664 9.29712891 -1.12939453 8.12207031 C-1 5 -1 5 0 0 Z " fill="#F7F8F2" transform="translate(180,433)"/>
<path d="M0 0 C3.6578218 2.03993908 5.66946174 3.50419262 8 7 C8.48442687 12.65164683 7.32197975 17.35319503 5.6875 22.6875 C5.36749023 23.80608398 5.36749023 23.80608398 5.04101562 24.94726562 C2.7931952 32.46907665 2.7931952 32.46907665 0 35 C-4.9788827 35.99265008 -9.81794538 35.36684454 -14.625 33.875 C-17 32 -17 32 -17.7578125 29.41796875 C-18.06204465 25.12436989 -17.29275448 21.58317321 -16.25 17.4375 C-16.07984375 16.69564453 -15.9096875 15.95378906 -15.734375 15.18945312 C-13.75688982 7.02505658 -9.82560306 -1.60418009 0 0 Z " fill="#F7F8F0" transform="translate(820,508)"/>
<path d="M0 0 C1.9375 1.75 1.9375 1.75 3 4 C3.51240234 4.90492188 3.51240234 4.90492188 4.03515625 5.828125 C5.14768905 8.33244983 5.39998153 10.26616193 5.5 13 C5.5515625 13.845625 5.603125 14.69125 5.65625 15.5625 C5 18 5 18 2.40234375 20.171875 C-1.03349409 22.01799682 -4.18447519 23.20495884 -7.9375 24.25 C-9.10152344 24.58515625 -10.26554688 24.9203125 -11.46484375 25.265625 C-16.53382839 26.31862954 -20.43501543 27.02064211 -24.875 24.125 C-27.87388696 21.12611304 -28.21340819 19.33295137 -28.375 15.1875 C-28.42398438 14.33542969 -28.47296875 13.48335937 -28.5234375 12.60546875 C-27.75771364 8.79399253 -25.98446825 7.42136103 -23 5 C-15.72310669 1.44065001 -8.11294486 -1.19699186 0 0 Z " fill="#F7F9F0" transform="translate(587,746)"/>
<path d="M0 0 C3.69072642 0.57682876 6.39601506 1.57789996 9.609375 3.46875 C10.44597656 3.95730469 11.28257812 4.44585938 12.14453125 4.94921875 C13.00433594 5.46097656 13.86414063 5.97273437 14.75 6.5 C15.62527344 7.01175781 16.50054687 7.52351562 17.40234375 8.05078125 C23.82430686 11.82430686 23.82430686 11.82430686 25 13 C25.06422257 18.8699426 23.94518333 25.45143569 20 30 C17.20626036 30.87098767 15.55677932 31.18349715 12.75170898 30.2590332 C11.63517944 29.66094849 11.63517944 29.66094849 10.49609375 29.05078125 C9.67302734 28.61443359 8.84996094 28.17808594 8.00195312 27.72851562 C7.15568359 27.26123047 6.30941406 26.79394531 5.4375 26.3125 C4.58736328 25.86455078 3.73722656 25.41660156 2.86132812 24.95507812 C-1.29789358 22.71399161 -4.90473413 20.66115936 -8 17 C-6.19389405 10.65660349 -3.74372266 5.43061745 0 0 Z " fill="#F7F9F1" transform="translate(335,703)"/>
<path d="M0 0 C5.14782628 1.56273298 8.50236935 3.56605403 11.5 8.0625 C12.49294834 14.02019003 9.83656571 18.33920043 6.5 23.0625 C3.33399843 26.80755649 1.03853108 28.92263354 -3.9375 29.375 C-9.18506694 27.44168586 -12.59992163 23.96257837 -16.5 20.0625 C-16.34056397 12.2501346 -12.00398716 7.28058297 -6.5625 2 C-3.5 0.0625 -3.5 0.0625 0 0 Z " fill="#F6F9F0" transform="translate(768.5,613.9375)"/>
<path d="M0 0 C2.94017569 1.40326567 4.79894406 3.40180821 7.0625 5.734375 C7.908125 6.59546875 8.75375 7.4565625 9.625 8.34375 C15.91489852 15.15780673 15.91489852 15.15780673 16.51171875 18.5 C15.9492614 21.6106337 14.82467078 23.25675499 12.875 25.734375 C12.28332031 26.51296875 11.69164062 27.2915625 11.08203125 28.09375 C8.65181011 30.36885064 7.38412677 30.91855008 4.0625 30.984375 C-2.34750539 27.89962526 -10.02294157 21.97964467 -13.9375 15.984375 C-13.79757429 11.93925002 -12.30491532 9.78604912 -9.625 6.859375 C-9.03074219 6.19679688 -8.43648438 5.53421875 -7.82421875 4.8515625 C-2.89828989 -0.02337331 -2.89828989 -0.02337331 0 0 Z " fill="#F6F8F0" transform="translate(282.9375,655.015625)"/>
<path d="M0 0 C3.67323044 2.05149515 6.76041378 4.90936549 8 9 C8.5467028 12.07520323 8.540523 14.05254333 6.97265625 16.80078125 C2.76168391 22.24821638 -2.70109969 25.42549258 -9.54296875 26.33984375 C-12.83356466 25.88470568 -13.69569363 24.67924819 -15.75 22.125 C-16.34296875 21.40570312 -16.9359375 20.68640625 -17.546875 19.9453125 C-20.11583466 16.50622134 -20.4958355 14.29724098 -20 10 C-15.10810577 2.58803904 -8.97421122 -1.28203017 0 0 Z " fill="#F6F9F0" transform="translate(722,674)"/>
<path d="M0 0 C3.62541625 0.92732937 5.61967348 2.22930441 8.51953125 4.5703125 C9.38191406 5.24578125 10.24429688 5.92125 11.1328125 6.6171875 C13.53208192 9.16556406 14.19646483 10.32811095 14.20703125 13.8203125 C12.9140625 16.57421875 12.9140625 16.57421875 11.01953125 19.3828125 C10.40722656 20.31222656 9.79492188 21.24164063 9.1640625 22.19921875 C5.59209783 26.98322732 5.59209783 26.98322732 3.20703125 28.8203125 C-0.65784305 28.7037528 -3.2687892 27.14514226 -6.41796875 25.0078125 C-7.17335937 24.50636719 -7.92875 24.00492187 -8.70703125 23.48828125 C-10.92534026 21.71446487 -12.41942755 20.31388897 -13.79296875 17.8203125 C-13.43093232 11.29331292 -8.60346115 6.19658377 -4.79296875 1.1953125 C-2.79296875 -0.1796875 -2.79296875 -0.1796875 0 0 Z " fill="#F6F7EE" transform="translate(240.79296875,274.1796875)"/>
<path d="M0 0 C3.64733305 5.68983956 4.83205167 12.79763241 3.5625 19.4375 C0.6144686 22.96075704 -1.48909088 24.16159917 -5.875 25.4375 C-10.34447376 25.4375 -12.53194938 24.58172387 -16.4375 22.4375 C-18.47625926 19.3793611 -18.69240139 18.72689991 -18.703125 15.27734375 C-18.70570313 14.48392578 -18.70828125 13.69050781 -18.7109375 12.87304688 C-18.70320312 12.04869141 -18.69546875 11.22433594 -18.6875 10.375 C-18.69523438 9.54677734 -18.70296875 8.71855469 -18.7109375 7.86523438 C-18.70835937 7.07310547 -18.70578125 6.28097656 -18.703125 5.46484375 C-18.70086914 4.74031006 -18.69861328 4.01577637 -18.69628906 3.26928711 C-18.4375 1.4375 -18.4375 1.4375 -16.4375 -0.5625 C-11.2577234 -2.13212927 -4.67460832 -2.99654379 0 0 Z " fill="#F6F7F0" transform="translate(831.4375,432.5625)"/>
<path d="M0 0 C3.27928748 2.45946561 5.72760732 5.0671499 7 9 C7.48239106 13.34151954 7.27120594 15.49499583 5.1875 19.375 C2.81031684 22.22761979 1.56114969 22.84797793 -2.0859375 23.203125 C-6.90659225 23.30184148 -10.12278867 23.19299757 -14 20 C-17.32516905 16.23473504 -17.70589276 13.40347931 -17.53125 8.484375 C-16.74821593 4.8225392 -15.21033161 3.14929146 -12.203125 1.00390625 C-8.13578844 -0.84947229 -4.3321677 -0.99125871 0 0 Z " fill="#F8FAF6" transform="translate(698,438)"/>
<path d="M0 0 C3.80882265 1.77745057 5.41995191 3.14690026 7 7 C7.52237554 10.07376764 7.54763664 12.92775845 7 16 C4.47031526 19.28175318 2.92268669 20.69243777 -1 22 C-4.99559217 22.36996224 -7.25854799 22.43813073 -10.75 20.375 C-14.35034819 16.57463247 -15.96963068 13.73105152 -16.0625 8.4375 C-14.64249131 3.84335425 -12.9073784 2.71124216 -9 0 C-5.84760408 -1.57619796 -3.38428252 -0.68832865 0 0 Z " fill="#F6F8F1" transform="translate(695,486)"/>
<path d="M0 0 C3.3 0.33 6.6 0.66 10 1 C10 1.66 10 2.32 10 3 C10.99 2.67 11.98 2.34 13 2 C13.02505615 2.6612085 13.0501123 3.32241699 13.07592773 4.00366211 C13.19153102 6.98182305 13.31441754 9.9596392 13.4375 12.9375 C13.47681641 13.97841797 13.51613281 15.01933594 13.55664062 16.09179688 C13.61948242 17.57583008 13.61948242 17.57583008 13.68359375 19.08984375 C13.72025146 20.00628662 13.75690918 20.92272949 13.79467773 21.86694336 C13.77003864 23.9820728 13.77003864 23.9820728 15 25 C15.38720155 29.23784829 15.47087643 33.49800277 15.625 37.75 C15.6765625 38.94367188 15.728125 40.13734375 15.78125 41.3671875 C15.82507813 42.51960938 15.86890625 43.67203125 15.9140625 44.859375 C15.9548291 45.91608398 15.9955957 46.97279297 16.03759766 48.06152344 C16.00190191 50.85135477 15.64647855 53.2929101 15 56 C14.34 55.67 13.68 55.34 13 55 C10.03883826 44.03351487 10.62900098 32.15485657 10.54370117 20.89306641 C10.52214069 18.49866817 10.48279636 16.10506278 10.44140625 13.7109375 C10.44129044 12.97974701 10.44117462 12.24855652 10.4410553 11.49520874 C10.3840995 8.59779471 10.34041041 6.50885365 8.70288086 4.06103516 C5.98454776 2.36728955 3.13706467 2.2959495 0 2 C0 1.34 0 0.68 0 0 Z " fill="#535958" transform="translate(708,230)"/>
<path d="M0 0 C-0.9590625 0.1546875 -0.9590625 0.1546875 -1.9375 0.3125 C-2.618125 0.539375 -3.29875 0.76625 -4 1 C-4.33 1.99 -4.66 2.98 -5 4 C-15.23 4 -25.46 4 -36 4 C-36 3.34 -36 2.68 -36 2 C-37.32 1.67 -38.64 1.34 -40 1 C-26.65012592 0.20468835 -13.37293838 -0.12803877 0 0 Z " fill="#415259" transform="translate(696,404)"/>
<path d="M0 0 C0.66 0.33 1.32 0.66 2 1 C0.12880171 5.55596107 -3.19761005 7.91749407 -6.90625 11 C-9.05539217 12.81948763 -9.05539217 12.81948763 -9.9609375 14.984375 C-11.43971606 17.85298304 -13.58361784 19.29509064 -16.125 21.25 C-17.03507813 21.95640625 -17.94515625 22.6628125 -18.8828125 23.390625 C-19.58148437 23.92171875 -20.28015625 24.4528125 -21 25 C-21 20.88101283 -18.82296907 19.26048707 -16.125 16.4375 C-15.63410889 15.91317383 -15.14321777 15.38884766 -14.63745117 14.84863281 C-9.87076966 9.78799449 -4.96385143 4.86694327 0 0 Z " fill="#242A2B" transform="translate(666,241)"/>
<path d="M0 0 C0.33 0 0.66 0 1 0 C1.48828125 1.98567708 1.9765625 3.97135417 2.46484375 5.95703125 C2.91010705 7.65683202 3.44433985 9.33301954 4 11 C7.07466081 12.2023496 10.22859256 12.16447345 13.5 12.24609375 C15.0778125 12.29540039 15.0778125 12.29540039 16.6875 12.34570312 C18.89572862 12.40689814 21.10406884 12.46419034 23.3125 12.51757812 C24.364375 12.55173828 25.41625 12.58589844 26.5 12.62109375 C27.4590625 12.6461499 28.418125 12.67120605 29.40625 12.69702148 C32.04485637 13.00523972 33.72793872 13.66067614 36 15 C31.83339324 15.05851976 27.66689363 15.0937706 23.5 15.125 C22.32695313 15.14175781 21.15390625 15.15851563 19.9453125 15.17578125 C13.58918152 15.21148985 8.07542812 14.90984993 2 13 C2 11.68 2 10.36 2 9 C1.34 9 0.68 9 0 9 C0 6.03 0 3.06 0 0 Z " fill="#394448" transform="translate(636,300)"/>
<path d="M0 0 C0.66 0.33 1.32 0.66 2 1 C2.19732164 5.22876835 2.38114059 9.45801938 2.5625 13.6875 C2.61857422 14.88568359 2.67464844 16.08386719 2.73242188 17.31835938 C2.78076172 18.47529297 2.82910156 19.63222656 2.87890625 20.82421875 C2.9260376 21.88729248 2.97316895 22.95036621 3.02172852 24.0456543 C3.0011179 26.84800382 2.6525411 29.2821773 2 32 C1.34 31.67 0.68 31.34 0 31 C-1.09651015 27.22717561 -1.05186691 23.72544263 -0.87890625 19.82421875 C-0.83056641 18.66728516 -0.78222656 17.51035156 -0.73242188 16.31835938 C-0.67634766 15.12017578 -0.62027344 13.92199219 -0.5625 12.6875 C-0.51029297 11.46998047 -0.45808594 10.25246094 -0.40429688 8.99804688 C-0.27490121 5.99842021 -0.13994552 2.99914994 0 0 Z " fill="#4D5253" transform="translate(721,254)"/>
<path d="M0 0 C0.66 0.33 1.32 0.66 2 1 C3.13988652 7.76423678 2.9756731 14.23802019 2.5625 21.0625 C2.51029297 22.02349609 2.45808594 22.98449219 2.40429688 23.97460938 C2.27611412 26.31685793 2.14123891 28.65850875 2 31 C1.01 31 0.02 31 -1 31 C-0.67 20.77 -0.34 10.54 0 0 Z " fill="#475150" transform="translate(200,434)"/>
<path d="M0 0 C3.84535116 0.81884304 5.4715488 1.9006082 8 5 C9.49602725 8.10287134 10.76806452 11.02071686 11.5625 14.375 C11.7790625 15.179375 11.7790625 15.179375 12 16 C12.66 16.33 13.32 16.66 14 17 C15.03515625 18.7421875 15.03515625 18.7421875 16.0625 20.875 C16.57490234 21.92300781 16.57490234 21.92300781 17.09765625 22.9921875 C18 25 18 25 19 28 C16 27 16 27 14.83666992 25.26928711 C14.47162354 24.5294458 14.10657715 23.78960449 13.73046875 23.02734375 C13.31603516 22.20943359 12.90160156 21.39152344 12.47460938 20.54882812 C12.04986328 19.68708984 11.62511719 18.82535156 11.1875 17.9375 C7.9779183 11.45324367 4.55160097 5.64107469 0 0 Z " fill="#505352" transform="translate(793,307)"/>
<path d="M0 0 C4.89954235 1.52821264 8.1482591 4.37140435 11.9375 7.6875 C12.53240234 8.19216797 13.12730469 8.69683594 13.74023438 9.21679688 C17.91408469 12.82501065 21.52196835 16.72088008 25 21 C22.1394109 19.64062915 20.14072301 18.35479531 18 16 C17.34 16.33 16.68 16.66 16 17 C15.649375 16.29875 15.29875 15.5975 14.9375 14.875 C12.16708605 10.76406317 8.4687263 7.23436315 4 5 C4 4.34 4 3.68 4 3 C2.68 2.34 1.36 1.68 0 1 C0 0.67 0 0.34 0 0 Z " fill="#444C4D" transform="translate(719,179)"/>
<path d="M0 0 C0.33 0.66 0.66 1.32 1 2 C-1 5 -1 5 -3.875 7.3125 C-6.96480263 9.81160507 -9.00237871 12.54257853 -11 16 C-11 16.66 -11 17.32 -11 18 C-11.639375 18.12375 -12.27875 18.2475 -12.9375 18.375 C-13.618125 18.58125 -14.29875 18.7875 -15 19 C-15.33 19.66 -15.66 20.32 -16 21 C-16.66 20.67 -17.32 20.34 -18 20 C-15.37992868 14.83012748 -11.4093195 11.18486356 -7.3125 7.1875 C-6.61060547 6.49462891 -5.90871094 5.80175781 -5.18554688 5.08789062 C-3.46148959 3.38728991 -1.73292722 1.69155339 0 0 Z " fill="#4C5250" transform="translate(807,686)"/>
<path d="M0 0 C5.88391525 1.0045709 8.12629067 4.15934656 11.44921875 8.7421875 C14.9576953 13.85024656 14.9576953 13.85024656 16 16 C15.67 16.66 15.34 17.32 15 18 C13.0609583 15.75131288 11.12372378 13.50111139 9.1875 11.25 C8.64029297 10.61578125 8.09308594 9.9815625 7.52929688 9.328125 C4.91608821 6.28730038 2.3441871 3.25718629 0 0 Z " fill="#4A5354" transform="translate(210,664)"/>
<path d="M0 0 C0.99 0.33 1.98 0.66 3 1 C0.21641519 3.84137242 -2.57815727 6.67168155 -5.375 9.5 C-6.1690625 10.31082031 -6.963125 11.12164062 -7.78125 11.95703125 C-8.92207031 13.10751953 -8.92207031 13.10751953 -10.0859375 14.28125 C-10.7876709 14.99345703 -11.4894043 15.70566406 -12.21240234 16.43945312 C-14 18 -14 18 -16 18 C-16 16 -16 16 -14 14 C-13.67 13.01 -13.34 12.02 -13 11 C-12.401875 10.855625 -11.80375 10.71125 -11.1875 10.5625 C-7.15772102 9.52627112 -5.22233476 6.33350214 -3 3 C-2.01904252 1.98131338 -1.02297922 0.97648017 0 0 Z " fill="#364548" transform="translate(682,253)"/>
<path d="M0 0 C1.30505365 2.50971856 2.39145323 4.98714292 3.4375 7.625 C4.73671038 11.20148477 4.73671038 11.20148477 8 13 C10.97449608 13.24219315 10.97449608 13.24219315 14.1875 13.125 C15.81751953 13.09792969 15.81751953 13.09792969 17.48046875 13.0703125 C18.31191406 13.04710937 19.14335938 13.02390625 20 13 C16.70223555 15.75546541 14.43694634 16.59057999 10.03125 16.41796875 C6.28919867 15.64796973 4.59361833 13.77887678 2 11 C-0.09019773 7.29464947 -0.19583723 4.21050044 0 0 Z " fill="#454F50" transform="translate(557,758)"/>
<path d="M0 0 C0 0.99 0 1.98 0 3 C0.66 3 1.32 3 2 3 C2 3.66 2 4.32 2 5 C2.66 5 3.32 5 4 5 C4 7.97 4 10.94 4 14 C3.67 14 3.34 14 3 14 C2.7525 12.948125 2.505 11.89625 2.25 10.8125 C1.21787462 7.1779442 -0.38990465 4.77322631 -3 2 C-6.79359325 0.10320337 -11.04395608 0.78275572 -15 2 C-15 1.34 -15 0.68 -15 0 C-10.19651495 -1.60116168 -4.8351138 -1.6117046 0 0 Z " fill="#3C4646" transform="translate(291,157)"/>
<path d="M0 0 C0.95003906 0.18046875 1.90007812 0.3609375 2.87890625 0.546875 C5.4375 1.25 5.4375 1.25 8.4375 3.25 C2.03120576 3.45852314 -3.49222642 3.4083195 -9.5625 1.25 C-6.09060765 -0.94968593 -3.97304966 -0.80001544 0 0 Z " fill="#47535A" transform="translate(438.5625,712.75)"/>
<path d="M0 0 C0.33 0.66 0.66 1.32 1 2 C-2.49359465 5.59634744 -6.11098131 8.83451967 -10 12 C-10 8.28053558 -9.11128458 7.59485764 -6.6875 4.875 C-6.07261719 4.17117188 -5.45773437 3.46734375 -4.82421875 2.7421875 C-3 1 -3 1 0 0 Z " fill="#384245" transform="translate(655,254)"/>
<path d="M0 0 C7.8316181 -0.2700558 15.27279225 0.76892281 23 2 C23 2.33 23 2.66 23 3 C21.41058594 2.98259766 21.41058594 2.98259766 19.7890625 2.96484375 C18.40104342 2.95546524 17.01302245 2.94636511 15.625 2.9375 C14.57699219 2.92493164 14.57699219 2.92493164 13.5078125 2.91210938 C9.62704624 2.8164558 9.62704624 2.8164558 6 4 C6 3.34 6 2.68 6 2 C3.03 1.505 3.03 1.505 0 1 C0 0.67 0 0.34 0 0 Z " fill="#3A4344" transform="translate(701,320)"/>
<path d="M0 0 C4.44288181 1.39633428 6.86524764 3.60401828 10 7 C10.33 7.33 10.66 7.66 11 8 C11.07179964 9.51928038 11.08392007 11.04167482 11.0625 12.5625 C11.05347656 13.38878906 11.04445313 14.21507812 11.03515625 15.06640625 C11.02355469 15.70449219 11.01195312 16.34257813 11 17 C10.67 17 10.34 17 10 17 C9.86464844 16.43152344 9.72929687 15.86304688 9.58984375 15.27734375 C7.99427571 9.55431826 5.85116346 6.27060583 1.42578125 2.3125 C0.95527344 1.879375 0.48476563 1.44625 0 1 C0 0.67 0 0.34 0 0 Z " fill="#3C4446" transform="translate(289,748)"/>
<path d="M0 0 C0 3 0 3 -1.96875 5.26171875 C-2.8040625 6.06222656 -3.639375 6.86273437 -4.5 7.6875 C-5.3353125 8.49574219 -6.170625 9.30398438 -7.03125 10.13671875 C-8.00578125 11.05904297 -8.00578125 11.05904297 -9 12 C-9.99 11.67 -10.98 11.34 -12 11 C-11.34 10.67 -10.68 10.34 -10 10 C-9.67 9.34 -9.34 8.68 -9 8 C-8.67 7.67 -8.34 7.34 -8 7 C-8.99 6.67 -9.98 6.34 -11 6 C-9.9275 5.7525 -8.855 5.505 -7.75 5.25 C-4.00350563 4.00116854 -2.47926118 2.97511342 0 0 Z " fill="#414D4E" transform="translate(676,608)"/>
<path d="M0 0 C1.72357119 2.58535679 2.44735018 4.03811614 3.1875 6.9375 C3.36667969 7.60652344 3.54585937 8.27554688 3.73046875 8.96484375 C4.03268678 11.24680888 3.68756692 12.82026659 3 15 C2.34 14.01 1.68 13.02 1 12 C1.33 11.34 1.66 10.68 2 10 C1.01 10.33 0.02 10.66 -1 11 C-0.67 7.37 -0.34 3.74 0 0 Z " fill="#435257" transform="translate(239,505)"/>
<path d="M0 0 C1.64680455 4.04215662 0.24159458 6.77818603 -1.3125 10.6875 C-1.98732422 12.42580078 -1.98732422 12.42580078 -2.67578125 14.19921875 C-4 17 -4 17 -6 18 C-5.4140625 11.84765625 -5.4140625 11.84765625 -5 10 C-4.34 9.67 -3.68 9.34 -3 9 C-2.61004898 7.13507598 -2.61004898 7.13507598 -2.5 5 C-2.34375 2.8125 -2.34375 2.8125 -2 1 C-1.34 0.67 -0.68 0.34 0 0 Z " fill="#3F4D50" transform="translate(734,507)"/>
<path d="M0 0 C0.66 0.33 1.32 0.66 2 1 C0.36599057 3.72334905 -0.77608658 4.89585423 -3.6875 6.25 C-7.61896683 7.14014343 -10.97708562 7.13872119 -15 7 C-15 6.67 -15 6.34 -15 6 C-14.33613281 5.81824219 -13.67226563 5.63648438 -12.98828125 5.44921875 C-8.19817211 4.08561104 -4.24544754 2.65340471 0 0 Z " fill="#4A4F4D" transform="translate(725,694)"/>
<path d="M0 0 C1.14275391 0.14888672 1.14275391 0.14888672 2.30859375 0.30078125 C4.42925775 0.66463868 6.48421163 1.13360538 8.5625 1.6875 C8.5625 2.3475 8.5625 3.0075 8.5625 3.6875 C3.2825 3.0275 -1.9975 2.3675 -7.4375 1.6875 C-4.14453201 -0.50781199 -3.68779625 -0.5161671 0 0 Z " fill="#626B68" transform="translate(469.4375,680.3125)"/>
<path d="M0 0 C2.3125 0.0625 2.3125 0.0625 5 1 C7.03797068 4.53248251 8.12326143 6.84134254 7.6875 10.9375 C7.460625 11.618125 7.23375 12.29875 7 13 C6.34 13 5.68 13 5 13 C4.89042969 12.39671875 4.78085937 11.7934375 4.66796875 11.171875 C3.49202872 5.06315013 3.49202872 5.06315013 0 0 Z " fill="#434A4B" transform="translate(775,616)"/>
<path d="M0 0 C0.66 0.33 1.32 0.66 2 1 C-1.27301919 3.96909598 -3.38065762 4.34354794 -7.75 4.1875 C-9.22726562 4.14689453 -9.22726562 4.14689453 -10.734375 4.10546875 C-11.85585938 4.05326172 -11.85585938 4.05326172 -13 4 C-13.33 4.66 -13.66 5.32 -14 6 C-15.32 4.35 -16.64 2.7 -18 1 C-17.360625 1.165 -16.72125 1.33 -16.0625 1.5 C-10.15184752 2.46500449 -5.38401255 2.69769762 0 0 Z " fill="#364243" transform="translate(702,458)"/>
<path d="M0 0 C2.91517292 1.07401108 4.77810176 1.77810176 7 4 C7.1953125 6.8203125 7.1953125 6.8203125 7.125 10.125 C7.10695313 11.22070312 7.08890625 12.31640625 7.0703125 13.4453125 C7.04710937 14.28835938 7.02390625 15.13140625 7 16 C6.67 16 6.34 16 6 16 C5.85304688 15.02160156 5.85304688 15.02160156 5.703125 14.0234375 C4.73513262 8.36568892 3.56508917 4.51577961 0 0 Z " fill="#3F4645" transform="translate(265,465)"/>
<path d="M0 0 C1 3 1 3 -0.43359375 6.13671875 C-1.09135973 7.3260128 -1.75977815 8.50946371 -2.4375 9.6875 C-2.77587891 10.29400391 -3.11425781 10.90050781 -3.46289062 11.52539062 C-4.29957915 13.0220025 -5.14862831 14.51169189 -6 16 C-7 14 -7 14 -6.0625 10.875 C-5.711875 9.92625 -5.36125 8.9775 -5 8 C-4.34 8 -3.68 8 -3 8 C-3.33 7.01 -3.66 6.02 -4 5 C-3.01 4.67 -2.02 4.34 -1 4 C-0.26676204 1.98491642 -0.26676204 1.98491642 0 0 Z " fill="#47504C" transform="translate(261,335)"/>
<path d="M0 0 C0.33 0.99 0.66 1.98 1 3 C-5.6 2.67 -12.2 2.34 -19 2 C-19 1.67 -19 1.34 -19 1 C-16.39590255 0.83218705 -13.7917318 0.66570349 -11.1875 0.5 C-10.08051758 0.42845703 -10.08051758 0.42845703 -8.95117188 0.35546875 C-5.96175412 0.16609387 -2.99625426 0 0 0 Z " fill="#3E4B4C" transform="translate(263,462)"/>
<path d="M0 0 C0.66 0.33 1.32 0.66 2 1 C2 2.32 2 3.64 2 5 C-5.42857143 8.28571429 -5.42857143 8.28571429 -9 9 C-3.85714286 3.42857143 -3.85714286 3.42857143 0 3 C0 2.01 0 1.02 0 0 Z " fill="#3E4241" transform="translate(262,628)"/>
<path d="M0 0 C0.66 0.33 1.32 0.66 2 1 C1.71640113 2.4391134 1.42278601 3.87625518 1.125 5.3125 C0.88136719 6.51326172 0.88136719 6.51326172 0.6328125 7.73828125 C0 10 0 10 -2 13 C-2.05447047 11.58376784 -2.09300508 10.16691809 -2.125 8.75 C-2.14820313 7.96109375 -2.17140625 7.1721875 -2.1953125 6.359375 C-1.9828378 3.79268059 -1.28654105 2.2083933 0 0 Z " fill="#445152" transform="translate(242,379)"/>
<path d="M0 0 C0 0.33 0 0.66 0 1 C-1.2375 1.061875 -2.475 1.12375 -3.75 1.1875 C-7.12506197 1.60491049 -7.82076967 1.82548626 -10.375 4.3125 C-11.70370109 6.50996719 -12.95745403 8.65427157 -14 11 C-13.72139186 7.3780942 -13.42061885 4.68350563 -11.5 1.5625 C-7.77615754 -0.76490154 -4.27841547 -0.32910888 0 0 Z " fill="#D4DED5" transform="translate(790,306)"/>
<path d="M0 0 C0.66 0 1.32 0 2 0 C0.4169423 4.2742558 -2.50568404 6.26531794 -6 9 C-6.33 8.34 -6.66 7.68 -7 7 C-4.66666667 4.66666667 -2.33333333 2.33333333 0 0 Z " fill="#E0E2DD" transform="translate(663,241)"/>
<path d="M0 0 C0.66 0.33 1.32 0.66 2 1 C1.360625 1.598125 0.72125 2.19625 0.0625 2.8125 C-2.20310389 4.90810337 -2.20310389 4.90810337 -3 8 C-5.5625 9.6875 -5.5625 9.6875 -8 11 C-7.43040847 7.37386801 -6.07625466 5.74482259 -3.4375 3.25 C-2.79683594 2.63640625 -2.15617188 2.0228125 -1.49609375 1.390625 C-1.00238281 0.93171875 -0.50867188 0.4728125 0 0 Z " fill="#494E4E" transform="translate(250,212)"/>
<path d="M0 0 C2.64 0 5.28 0 8 0 C8 0.66 8 1.32 8 2 C8.66 2 9.32 2 10 2 C10.33 3.98 10.66 5.96 11 8 C10.54109375 7.59007812 10.0821875 7.18015625 9.609375 6.7578125 C8.68898438 5.94957031 8.68898438 5.94957031 7.75 5.125 C7.14671875 4.59132813 6.5434375 4.05765625 5.921875 3.5078125 C4.02581254 2.0202513 2.18709995 0.99677564 0 0 Z " fill="#424C4A" transform="translate(581,744)"/>
<path d="M0 0 C0.33 0.66 0.66 1.32 1 2 C0.04737966 3.48285242 -0.91228405 4.96118201 -1.875 6.4375 C-2.40867187 7.26121094 -2.94234375 8.08492187 -3.4921875 8.93359375 C-5 11 -5 11 -7 12 C-6.67 11.2575 -6.34 10.515 -6 9.75 C-4.77217129 6.86116688 -4.77217129 6.86116688 -5 3 C-4.360625 2.690625 -3.72125 2.38125 -3.0625 2.0625 C-1.06389179 1.1654837 -1.06389179 1.1654837 0 0 Z " fill="#3D4649" transform="translate(701,576)"/>
<path d="M0 0 C0 3 0 3 -1.75 5.04296875 C-2.4925 5.75066406 -3.235 6.45835937 -4 7.1875 C-4.7425 7.90292969 -5.485 8.61835938 -6.25 9.35546875 C-6.8275 9.89816406 -7.405 10.44085938 -8 11 C-8 8 -8 8 -6.625 6.5625 C-6.08875 6.046875 -5.5525 5.53125 -5 5 C-4.67 4.29875 -4.34 3.5975 -4 2.875 C-3 1 -3 1 0 0 Z " fill="#424D49" transform="translate(208,227)"/>
<path d="M0 0 C0.66 0.33 1.32 0.66 2 1 C2 3.97 2 6.94 2 10 C0.35 10.66 -1.3 11.32 -3 12 C-2.690625 11.505 -2.38125 11.01 -2.0625 10.5 C-0.58355618 7.02013219 -0.37597149 3.75971491 0 0 Z " fill="#3B4241" transform="translate(730,681)"/>
<path d="M0 0 C1 3 1 3 -0.21484375 5.69921875 C-0.78332031 6.68535156 -1.35179687 7.67148437 -1.9375 8.6875 C-2.50339844 9.68136719 -3.06929687 10.67523437 -3.65234375 11.69921875 C-4.31943359 12.83810547 -4.31943359 12.83810547 -5 14 C-5.578125 12.1171875 -5.578125 12.1171875 -6 10 C-4.75 8.125 -4.75 8.125 -3 6 C-1.96958573 4.01549844 -0.96314063 2.01800895 0 0 Z " fill="#465453" transform="translate(719,545)"/>
<path d="M0 0 C0.99 0.33 1.98 0.66 3 1 C3 1.66 3 2.32 3 3 C2.34 3 1.68 3 1 3 C0.67 3.66 0.34 4.32 0 5 C-1.30915279 6.03145371 -2.64082143 7.03542166 -4 8 C-4.66 7.67 -5.32 7.34 -6 7 C-4.02 4.69 -2.04 2.38 0 0 Z " fill="#4E5555" transform="translate(297,678)"/>
<path d="M0 0 C0.66 0.99 1.32 1.98 2 3 C-2.95 5.97 -2.95 5.97 -8 9 C-8.33 8.34 -8.66 7.68 -9 7 C-8.360625 6.896875 -7.72125 6.79375 -7.0625 6.6875 C-6.381875 6.460625 -5.70125 6.23375 -5 6 C-4.67 5.01 -4.34 4.02 -4 3 C-2.68 3 -1.36 3 0 3 C0 2.01 0 1.02 0 0 Z " fill="#495350" transform="translate(620,650)"/>
<path d="M0 0 C1.20628008 2.33214148 2.1654738 4.49642139 3 7 C3.66 7 4.32 7 5 7 C5 7.99 5 8.98 5 10 C2.54765115 9.01906046 1.2190732 8.31296172 -0.3125 6.125 C-1.1132654 3.64990694 -0.86325845 2.41712366 0 0 Z " fill="#474F50" transform="translate(247,601)"/>
<path d="M0 0 C0.99 0.33 1.98 0.66 3 1 C0.69 3.31 -1.62 5.62 -4 8 C-4.66 7.34 -5.32 6.68 -6 6 C-4 4 -2 2 0 0 Z " fill="#EDF1F1" transform="translate(619,568)"/>
<path d="M0 0 C9.61181435 -0.56540084 9.61181435 -0.56540084 14 3 C14.33 3.66 14.66 4.32 15 5 C11.62537285 4.45276317 9.91765 3.9451 7 2 C4.67612053 1.60612212 2.34206251 1.26513915 0 1 C0 0.67 0 0.34 0 0 Z " fill="#48504C" transform="translate(813,507)"/>
<path d="M0 0 C1 2 1 2 1 6 C-2.465 7.485 -2.465 7.485 -6 9 C-4.47291037 5.56404834 -2.40072955 2.88087546 0 0 Z " fill="#4F5555" transform="translate(251,294)"/>
<path d="M0 0 C0.99 0.33 1.98 0.66 3 1 C1.02 3.31 -0.96 5.62 -3 8 C-4 5 -4 5 -3 2 C-2.01 2 -1.02 2 0 2 C0 1.34 0 0.68 0 0 Z " fill="#425250" transform="translate(388,347)"/>
<path d="M0 0 C0.99 0.33 1.98 0.66 3 1 C3 1.66 3 2.32 3 3 C3.99 3.33 4.98 3.66 6 4 C7.6875 6.5625 7.6875 6.5625 9 9 C5.18063472 7.44396229 2.73955562 5.04395069 0 2 C0 1.34 0 0.68 0 0 Z " fill="#465051" transform="translate(801,229)"/>
<path d="M0 0 C3.21043882 1.38188453 5.04936365 2.92421903 7.25 5.625 C8.03117188 6.57246094 8.03117188 6.57246094 8.828125 7.5390625 C9.40820312 8.26222656 9.40820312 8.26222656 10 9 C7.1394109 7.64062915 5.14072301 6.35479531 3 4 C2.01 4.495 2.01 4.495 1 5 C0.67 3.35 0.34 1.7 0 0 Z " fill="#4A5254" transform="translate(734,191)"/>
<path d="M0 0 C0.33 0 0.66 0 1 0 C1.53190541 1.43344 2.05015258 2.87195367 2.5625 4.3125 C2.85253906 5.11300781 3.14257812 5.91351563 3.44140625 6.73828125 C4 9 4 9 3 12 C1.29159719 10.36587557 0.06546953 9.13093906 -1 7 C-0.71758117 4.6599583 -0.38749213 2.32495277 0 0 Z " fill="#384345" transform="translate(233,426)"/>
<path d="M0 0 C3.77968573 0.77023007 5.47959631 2.02952423 8 5 C8 5.66 8 6.32 8 7 C7.01 7 6.02 7 5 7 C3.61328125 5.46875 3.61328125 5.46875 2.3125 3.5 C1.87550781 2.8503125 1.43851563 2.200625 0.98828125 1.53125 C0.49908203 0.77328125 0.49908203 0.77328125 0 0 Z " fill="#464C4C" transform="translate(793,307)"/>
<path d="M0 0 C0.66 0.33 1.32 0.66 2 1 C-0.31 3.31 -2.62 5.62 -5 8 C-5.66 7.67 -6.32 7.34 -7 7 C-5.55609075 3.19333016 -3.65047197 1.73397418 0 0 Z " fill="#3C4948" transform="translate(662,273)"/>
<path d="M0 0 C6.75 1.625 6.75 1.625 9 5 C5.37 4.01 1.74 3.02 -2 2 C-1.34 1.34 -0.68 0.68 0 0 Z " fill="#626C68" transform="translate(438,673)"/>
<path d="M0 0 C0.66 0.33 1.32 0.66 2 1 C-1.465 3.97 -1.465 3.97 -5 7 C-5.66 6.67 -6.32 6.34 -7 6 C-5.01180815 3.01771223 -3.42353587 1.21480305 0 0 Z " fill="#4B5351" transform="translate(336,243)"/>
<path d="M0 0 C3.375 -0.125 3.375 -0.125 7 0 C7.66 0.66 8.32 1.32 9 2 C7.63875 1.9071875 7.63875 1.9071875 6.25 1.8125 C2.71017358 2.01672076 1.55068845 2.64551835 -1 5 C-0.67 3.35 -0.34 1.7 0 0 Z " fill="#DEE7DC" transform="translate(200,340)"/>
<path d="M0 0 C2.97 0.495 2.97 0.495 6 1 C4.35 2.65 2.7 4.3 1 6 C-0.0625 4.125 -0.0625 4.125 -1 2 C-0.67 1.34 -0.34 0.68 0 0 Z " fill="#E2EAE5" transform="translate(399,737)"/>
<path d="M0 0 C1 2 1 2 0.375 4.0625 C-1 6 -1 6 -3.625 6.75 C-4.800625 6.87375 -4.800625 6.87375 -6 7 C-4.02 4.69 -2.04 2.38 0 0 Z " fill="#616460" transform="translate(789,704)"/>
<path d="M0 0 C0.53625 0.226875 1.0725 0.45375 1.625 0.6875 C-5 3.8125 -5 3.8125 -8.375 2.6875 C-2.95961538 -0.38942308 -2.95961538 -0.38942308 0 0 Z " fill="#5A645F" transform="translate(597.375,704.3125)"/>
<path d="M0 0 C1.875 0.625 1.875 0.625 4 2 C5.25 5.125 5.25 5.125 6 8 C1.125 3.375 1.125 3.375 0 0 Z " fill="#3E484A" transform="translate(220,674)"/>
<path d="M0 0 C3 3.75 3 3.75 3 6 C3.66 6 4.32 6 5 6 C4.67 6.99 4.34 7.98 4 9 C-0.00390625 4.60546875 -0.00390625 4.60546875 -1 3 C-0.67 2.01 -0.34 1.02 0 0 Z " fill="#4B5554" transform="translate(323,592)"/>
<path d="M0 0 C0.66 0.33 1.32 0.66 2 1 C1.67 2.32 1.34 3.64 1 5 C-0.65 5.33 -2.3 5.66 -4 6 C-2.68 4.02 -1.36 2.04 0 0 Z " fill="#E3EAE6" transform="translate(746,334)"/>
<path d="M0 0 C1.32 0.66 2.64 1.32 4 2 C0.535 4.97 0.535 4.97 -3 8 C-2.34 6.68 -1.68 5.36 -1 4 C-0.63215869 2.6757713 -0.28797019 1.34386088 0 0 Z " fill="#4B5353" transform="translate(309,265)"/>
<path d="M0 0 C0.66 0.33 1.32 0.66 2 1 C0.95125002 3.62187494 0.35068687 4.79371361 -2.125 6.25 C-2.74375 6.4975 -3.3625 6.745 -4 7 C-1.125 1.125 -1.125 1.125 0 0 Z " fill="#2D393D" transform="translate(666,241)"/>
</svg>
