<?xml version="1.0" encoding="UTF-8"?>
<svg version="1.1" xmlns="http://www.w3.org/2000/svg" width="1024" height="1024">
<path d="M0 0 C337.92 0 675.84 0 1024 0 C1024 337.92 1024 675.84 1024 1024 C686.08 1024 348.16 1024 0 1024 C0 686.08 0 348.16 0 0 Z " fill="#7E9A99" transform="translate(0,0)"/>
<path d="M0 0 C1.58400159 1.41370791 3.21615661 2.77459121 4.8828125 4.08984375 C6.97989207 5.79201873 8.67121521 7.43193882 10.4140625 9.48046875 C11.00832031 10.1765625 11.60257813 10.87265625 12.21484375 11.58984375 C12.89933594 12.399375 13.58382813 13.20890625 14.2890625 14.04296875 C15.12824219 15.0175 15.96742188 15.99203125 16.83203125 16.99609375 C46.51572681 51.56337298 69.43434179 92.1421261 76.87886047 137.55674744 C77.26586423 139.90236479 77.67132367 142.24417822 78.078125 144.58642578 C80.13367646 156.85732473 80.89229435 168.85974325 80.8515625 181.29296875 C80.8503389 182.71829926 80.8503389 182.71829926 80.84909058 184.17242432 C80.71340717 218.86034014 72.14696628 253.67546733 57.2890625 285.04296875 C56.95519531 285.7508252 56.62132812 286.45868164 56.27734375 287.18798828 C47.64204095 305.31467993 37.29026186 322.6928132 24.2890625 338.04296875 C23.71671875 338.72617187 23.144375 339.409375 22.5546875 340.11328125 C18.6809232 344.6445193 14.52721758 348.83399026 10.28125 353.015625 C8.19176818 355.06732388 8.19176818 355.06732388 6.2265625 357.66796875 C3.92955026 360.48366117 1.35809314 362.69378337 -1.40625 365.04296875 C-2.99627926 366.42279075 -4.55219303 367.84257797 -6.078125 369.29296875 C-19.02674552 381.57251161 -33.89916804 390.8953732 -49.7109375 399.04296875 C-50.38527832 399.39311035 -51.05961914 399.74325195 -51.75439453 400.10400391 C-72.9685843 410.97894159 -95.37554972 417.53855073 -118.7109375 422.04296875 C-119.68522705 422.23439453 -120.6595166 422.42582031 -121.66333008 422.62304688 C-130.3447094 424.27650081 -138.88836244 424.7799985 -147.7109375 425.04296875 C-148.74492676 425.07696777 -149.77891602 425.1109668 -150.84423828 425.14599609 C-183.19465108 426.07786206 -213.72119707 420.07947676 -243.7109375 408.04296875 C-244.34821777 407.79047363 -244.98549805 407.53797852 -245.64208984 407.27783203 C-255.0254508 403.53099518 -263.93209011 399.01598059 -272.7109375 394.04296875 C-273.50902832 393.59115234 -274.30711914 393.13933594 -275.12939453 392.67382812 C-285.83347967 386.55954665 -295.48887008 380.25236405 -304.7109375 372.04296875 C-306.6205556 370.47186211 -308.53715155 368.90919492 -310.4609375 367.35546875 C-317.00949953 361.99242226 -323.28049197 356.79280689 -328.75 350.30859375 C-330.18071811 348.65557282 -331.66236291 347.04623737 -333.171875 345.46484375 C-360.95001053 316.33361852 -378.99146081 276.75817062 -388.7109375 238.04296875 C-388.89253418 237.33382324 -389.07413086 236.62467773 -389.26123047 235.89404297 C-404.19347434 176.77316793 -392.96705219 111.47197775 -362.0859375 59.16796875 C-353.00791139 44.14862107 -342.3897872 30.13183093 -330.7109375 17.04296875 C-330.21319824 16.48351562 -329.71545898 15.9240625 -329.20263672 15.34765625 C-323.37361924 8.82997077 -317.45319329 2.62906154 -310.7109375 -2.95703125 C-309.76992188 -3.78589844 -308.82890625 -4.61476563 -307.859375 -5.46875 C-299.94283082 -12.41371271 -291.638502 -18.38116484 -282.7109375 -23.95703125 C-282.05641602 -24.36808105 -281.40189453 -24.77913086 -280.72753906 -25.20263672 C-194.04816659 -79.16128351 -82.0340854 -72.97472709 0 0 Z " fill="#7F9C9C" transform="translate(659.7109375,319.95703125)"/>
<path d="M0 0 C1.001521 -0.00950684 2.00304199 -0.01901367 3.03491211 -0.02880859 C27.09900374 0.07790578 50.39706598 10.64492119 67.5625 27.375 C85.04176489 45.12528125 92.40483502 67.58074455 92.30126953 92.23608398 C91.73637574 113.60270452 84.96975085 132.86651541 69.56933594 147.96240234 C52.37776324 164.25 52.37776324 164.25 43.875 164.25 C42.40391656 168.88614174 41.00393026 173.49678982 40.03125 178.265625 C37.44227621 190.59536292 37.44227621 190.59536292 33.25 194.1875 C28.58032359 197.04119114 26.36502377 197.35166711 20.875 197.25 C19.225 193.95 17.575 190.65 15.875 187.25 C13.235 187.25 10.595 187.25 7.875 187.25 C7.79360858 189.64652528 7.73432991 192.04025436 7.6875 194.4375 C7.66236328 195.11103516 7.63722656 195.78457031 7.61132812 196.47851562 C7.54530875 200.98983937 8.06866941 203.7038742 10.875 207.25 C13.12740545 209.34946676 13.12740545 209.34946676 15.75 211.3125 C25.81357297 219.32633078 34.95365226 228.25245508 43.99536133 237.3894043 C46.87311252 240.28731063 49.75533737 243.10926213 52.875 245.75 C71.13658379 261.34680333 88.00008865 279.87087314 90.09277344 304.84936523 C91.03086502 325.70639728 87.53063757 346.48977567 73.27734375 362.6640625 C72.48457031 363.51742188 71.69179688 364.37078125 70.875 365.25 C70.11316406 366.10335938 69.35132813 366.95671875 68.56640625 367.8359375 C57.97956416 379.13552265 45.50279768 385.7573991 30.875 390.25 C29.86397217 390.56541748 29.86397217 390.56541748 28.83251953 390.88720703 C3.05573822 398.65159406 -25.27350322 393.79135949 -48.9375 381.5625 C-68.11458221 371.07709747 -81.26800101 353.95231832 -87.5625 333 C-92.18586693 314.28301073 -91.01062336 291.70764725 -80.93676758 275.01293945 C-74.7401536 265.56312401 -66.774102 257.60513552 -58.77709961 249.69628906 C-57.0558349 247.99340608 -55.3428334 246.28253071 -53.63085938 244.5703125 C-48.48008512 239.43665231 -43.30259041 234.41096816 -37.76879883 229.68652344 C-35.37130994 227.59134676 -33.19666092 225.30260919 -31 223 C-26.25315982 218.18002923 -21.2237242 214.00308068 -15.80810547 209.95410156 C-11.47000628 206.67983131 -7.91941943 203.81093603 -7.125 198.25 C-6.6602501 193.18837827 -6.6602501 193.18837827 -8.8125 188.75 C-11.02778093 187.06108906 -11.02778093 187.06108906 -13.6875 187 C-16.60268767 188.49496803 -16.7356621 189.20172219 -17.8125 192.1875 C-18.12767578 193.25291016 -18.12767578 193.25291016 -18.44921875 194.33984375 C-19.125 196.25 -19.125 196.25 -21.125 198.25 C-25.15852616 198.17389573 -27.48256173 197.72418063 -30.75 195.3125 C-35.44568781 189.25753414 -38.04742179 182.82308012 -40.1875 175.5 C-43.04530682 166.00363026 -46.38749086 162.89635096 -54.95703125 158.16796875 C-59.94408203 155.14868153 -63.95834102 151.29304082 -68.125 147.25 C-68.75019531 146.69828125 -69.37539063 146.1465625 -70.01953125 145.578125 C-84.47971838 132.3909566 -90.52065781 111.38459611 -91.41015625 92.3515625 C-92.04612667 68.73661788 -86.15955794 47.34394501 -69.69140625 29.7890625 C-49.95015767 10.25814686 -27.94223767 0.21764859 0 0 Z " fill="#F9FAF9" transform="translate(502.125,303.75)"/>
<path d="M0 0 C16.08720621 -0.26710769 31.73298911 0.30485157 47.61328125 3.1484375 C49.19375244 3.42977539 49.19375244 3.42977539 50.80615234 3.71679688 C77.45035328 8.56190977 102.81902307 17.0539789 126.61328125 30.1484375 C127.29793457 30.52436035 127.98258789 30.9002832 128.68798828 31.28759766 C143.65822701 39.60137197 157.12052927 49.49721305 170.00756836 60.74780273 C171.16257159 61.75529149 172.32289595 62.75669188 173.48657227 63.75415039 C178.41870133 68.00772822 183.08465777 72.46809555 187.67578125 77.0859375 C188.34416016 77.75044922 189.01253906 78.41496094 189.70117188 79.09960938 C217.35778012 106.80997196 239.47297261 142.56615117 250.61328125 180.1484375 C251.09474609 181.65470703 251.09474609 181.65470703 251.5859375 183.19140625 C254.0802028 191.3204895 255.91097609 199.59838927 257.73828125 207.8984375 C257.992146 209.02789795 258.24601074 210.1573584 258.50756836 211.32104492 C262.19573087 228.48410729 263.02010727 245.44920128 262.98828125 262.9609375 C262.9884021 263.98769592 262.98852295 265.01445435 262.98864746 266.07232666 C262.96023894 283.08275463 261.91475259 299.42349702 258.61328125 316.1484375 C258.37303223 317.40841553 258.37303223 317.40841553 258.12792969 318.69384766 C245.32393051 384.08667149 203.88989209 443.93353604 148.99609375 480.96875 C93.29885424 518.04032376 27.25926608 531.97574822 -38.94921875 521.0234375 C-65.44420915 515.58856767 -90.56396529 506.93878723 -114.38671875 494.1484375 C-115.52882813 493.53613281 -116.6709375 492.92382812 -117.84765625 492.29296875 C-133.81754985 483.43095686 -148.51428493 473.00641897 -162.38671875 461.1484375 C-163.27488281 460.39175781 -164.16304688 459.63507813 -165.078125 458.85546875 C-176.82946531 448.53674653 -187.75385581 437.48641159 -197.07177734 424.91650391 C-198.41603875 423.10901391 -199.78431002 421.32170138 -201.15625 419.53515625 C-208.0241738 410.5003089 -213.88210822 401.06426269 -219.38671875 391.1484375 C-219.83547363 390.35195801 -220.28422852 389.55547852 -220.74658203 388.73486328 C-231.30583146 369.88355177 -238.63901209 349.92199376 -244.76660156 329.24023438 C-245.34345455 327.29437752 -245.93857624 325.35396213 -246.53515625 323.4140625 C-247.61859165 319.68313458 -248.56512907 315.9440536 -249.38671875 312.1484375 C-249.5377002 311.45234375 -249.68868164 310.75625 -249.84423828 310.0390625 C-255.52192601 282.01198695 -253.68439267 250.40831603 -250.38671875 222.1484375 C-250.2902002 221.30990234 -250.19368164 220.47136719 -250.09423828 219.60742188 C-244.90801237 176.99350649 -226.39929149 135.4049 -199.38671875 102.1484375 C-198.68289063 101.25253906 -197.9790625 100.35664063 -197.25390625 99.43359375 C-185.97428201 85.26122455 -173.17133411 71.89264508 -159.38671875 60.1484375 C-158.44183594 59.31441406 -157.49695313 58.48039062 -156.5234375 57.62109375 C-134.78570917 38.58067357 -108.29748804 25.09686555 -81.44921875 14.7734375 C-80.64637451 14.46390137 -79.84353027 14.15436523 -79.01635742 13.83544922 C-66.85752382 9.29947295 -54.37890759 6.30856213 -41.63671875 3.9609375 C-40.93240723 3.83048035 -40.2280957 3.70002319 -39.50244141 3.56561279 C-29.69564835 1.76579675 -20.04406199 0.20207416 -10.05224609 0.16308594 C-6.70057606 0.14466679 -3.35102832 0.06788378 0 0 Z M-153.38671875 82.1484375 C-155.15405979 83.71488654 -156.9247303 85.27758975 -158.69921875 86.8359375 C-162.97055137 90.67945779 -166.71951525 94.73362814 -170.38671875 99.1484375 C-171.11117187 99.98503906 -171.835625 100.82164062 -172.58203125 101.68359375 C-190.32909337 122.42654256 -205.37141987 145.69132991 -215.38671875 171.1484375 C-215.72396973 171.99583496 -216.0612207 172.84323242 -216.40869141 173.71630859 C-239.9379752 233.5095185 -238.16892681 298.01845365 -213.38671875 357.1484375 C-201.10891163 384.95240126 -186.08812451 411.19624985 -164.0703125 432.4609375 C-162.38671875 434.1484375 -162.38671875 434.1484375 -160.07421875 437.0859375 C-156.6534828 441.29434291 -152.27545231 444.45126994 -148.046875 447.80322266 C-146.29584616 449.22207102 -144.59060657 450.68510019 -142.88671875 452.16015625 C-132.96266005 460.65333433 -122.37196877 467.33771484 -110.97900391 473.69970703 C-108.67971384 474.98469359 -106.39751409 476.29509484 -104.1171875 477.61328125 C-78.69252045 492.00208574 -50.10654382 499.88208667 -21.38671875 504.1484375 C-20.12214844 504.34566406 -18.85757813 504.54289062 -17.5546875 504.74609375 C-8.05384194 505.87860511 1.72179784 505.29164141 11.26904297 505.18554688 C13.24716314 505.16359664 15.22537639 505.14705293 17.20361328 505.14257812 C67.67023198 504.92118475 125.24402623 480.81842607 160.80078125 445.0859375 C161.48269531 444.374375 162.16460938 443.6628125 162.8671875 442.9296875 C164.61328125 441.1484375 164.61328125 441.1484375 167.23828125 439.0859375 C170.07814185 436.76920911 172.28471333 434.14034515 174.65625 431.35546875 C176.73632042 429.00968075 178.92914846 426.83465663 181.17578125 424.6484375 C185.12293155 420.74135979 188.43700985 416.69334617 191.61328125 412.1484375 C192.11988281 411.4471875 192.62648438 410.7459375 193.1484375 410.0234375 C205.22161173 393.12670194 216.13788096 375.58949529 223.61328125 356.1484375 C224.05929687 355.05660156 224.5053125 353.96476562 224.96484375 352.83984375 C230.20459856 339.60035632 234.09259984 325.93390243 237.61328125 312.1484375 C237.89155762 311.06111328 238.16983398 309.97378906 238.45654297 308.85351562 C248.36137831 268.23933831 243.88274726 223.41350676 230.61328125 184.1484375 C230.3699707 183.41318848 230.12666016 182.67793945 229.87597656 181.92041016 C221.13196422 155.84253413 207.22556729 131.22128453 189.61328125 110.1484375 C188.27742796 108.44207396 186.94391833 106.73387181 185.61328125 105.0234375 C182.08814469 100.6170168 178.3218606 96.46410373 174.46875 92.34521484 C172.38579884 90.11424055 170.39057167 87.86882234 168.48828125 85.48046875 C165.59046596 81.87631098 162.15664757 79.10473721 158.61328125 76.1484375 C157.78473633 75.45137695 157.78473633 75.45137695 156.93945312 74.74023438 C85.04074145 14.43071058 -12.45302395 1.11607184 -153.38671875 82.1484375 Z " fill="#F8FAF8" transform="translate(497.38671875,239.8515625)"/>
<path d="M0 0 C1.58400159 1.41370791 3.21615661 2.77459121 4.8828125 4.08984375 C6.97989207 5.79201873 8.67121521 7.43193882 10.4140625 9.48046875 C11.00832031 10.1765625 11.60257813 10.87265625 12.21484375 11.58984375 C12.89933594 12.399375 13.58382813 13.20890625 14.2890625 14.04296875 C15.12824219 15.0175 15.96742188 15.99203125 16.83203125 16.99609375 C46.51572681 51.56337298 69.43434179 92.1421261 76.87886047 137.55674744 C77.26586423 139.90236479 77.67132367 142.24417822 78.078125 144.58642578 C80.13367646 156.85732473 80.89229435 168.85974325 80.8515625 181.29296875 C80.8503389 182.71829926 80.8503389 182.71829926 80.84909058 184.17242432 C80.71340717 218.86034014 72.14696628 253.67546733 57.2890625 285.04296875 C56.95519531 285.7508252 56.62132812 286.45868164 56.27734375 287.18798828 C47.64204095 305.31467993 37.29026186 322.6928132 24.2890625 338.04296875 C23.71671875 338.72617187 23.144375 339.409375 22.5546875 340.11328125 C18.6809232 344.6445193 14.52721758 348.83399026 10.28125 353.015625 C8.19176818 355.06732388 8.19176818 355.06732388 6.2265625 357.66796875 C3.92955026 360.48366117 1.35809314 362.69378337 -1.40625 365.04296875 C-2.99627926 366.42279075 -4.55219303 367.84257797 -6.078125 369.29296875 C-19.02674552 381.57251161 -33.89916804 390.8953732 -49.7109375 399.04296875 C-50.38527832 399.39311035 -51.05961914 399.74325195 -51.75439453 400.10400391 C-72.9685843 410.97894159 -95.37554972 417.53855073 -118.7109375 422.04296875 C-119.68522705 422.23439453 -120.6595166 422.42582031 -121.66333008 422.62304688 C-130.3447094 424.27650081 -138.88836244 424.7799985 -147.7109375 425.04296875 C-148.74492676 425.07696777 -149.77891602 425.1109668 -150.84423828 425.14599609 C-183.19465108 426.07786206 -213.72119707 420.07947676 -243.7109375 408.04296875 C-244.34821777 407.79047363 -244.98549805 407.53797852 -245.64208984 407.27783203 C-255.0254508 403.53099518 -263.93209011 399.01598059 -272.7109375 394.04296875 C-273.50902832 393.59115234 -274.30711914 393.13933594 -275.12939453 392.67382812 C-285.83347967 386.55954665 -295.48887008 380.25236405 -304.7109375 372.04296875 C-306.6205556 370.47186211 -308.53715155 368.90919492 -310.4609375 367.35546875 C-317.00949953 361.99242226 -323.28049197 356.79280689 -328.75 350.30859375 C-330.18071811 348.65557282 -331.66236291 347.04623737 -333.171875 345.46484375 C-360.95001053 316.33361852 -378.99146081 276.75817062 -388.7109375 238.04296875 C-388.89253418 237.33382324 -389.07413086 236.62467773 -389.26123047 235.89404297 C-404.19347434 176.77316793 -392.96705219 111.47197775 -362.0859375 59.16796875 C-353.00791139 44.14862107 -342.3897872 30.13183093 -330.7109375 17.04296875 C-330.21319824 16.48351562 -329.71545898 15.9240625 -329.20263672 15.34765625 C-323.37361924 8.82997077 -317.45319329 2.62906154 -310.7109375 -2.95703125 C-309.76992188 -3.78589844 -308.82890625 -4.61476563 -307.859375 -5.46875 C-299.94283082 -12.41371271 -291.638502 -18.38116484 -282.7109375 -23.95703125 C-282.05641602 -24.36808105 -281.40189453 -24.77913086 -280.72753906 -25.20263672 C-194.04816659 -79.16128351 -82.0340854 -72.97472709 0 0 Z M-287.7109375 -3.95703125 C-288.6380957 -3.25416992 -288.6380957 -3.25416992 -289.58398438 -2.53710938 C-305.31465539 9.48846958 -319.71920154 23.31778809 -331.43994141 39.31445312 C-332.7749936 41.13008308 -334.13730823 42.92286206 -335.50390625 44.71484375 C-357.32220683 73.56064927 -370.96298998 106.61475269 -377.7109375 142.04296875 C-377.87899902 142.90180664 -378.04706055 143.76064453 -378.22021484 144.64550781 C-384.50708596 177.98872684 -381.83706421 213.82972987 -371.7109375 246.04296875 C-371.4315332 246.95336914 -371.15212891 247.86376953 -370.86425781 248.80175781 C-363.19706497 273.46672733 -351.88263273 296.15393014 -336.7109375 317.04296875 C-336.24558594 317.68927246 -335.78023438 318.33557617 -335.30078125 319.00146484 C-329.74830254 326.65269763 -323.63741492 333.74565633 -317.10986328 340.57226562 C-315.74111146 342.01124659 -314.39562119 343.47224051 -313.05078125 344.93359375 C-284.75600711 375.05742293 -243.86204527 395.09977482 -204.1484375 404.79296875 C-203.39602783 404.97939941 -202.64361816 405.16583008 -201.8684082 405.35791016 C-185.78124162 409.08666824 -169.69843252 410.66371903 -153.2109375 410.60546875 C-152.30162476 410.60432068 -151.39231201 410.60317261 -150.45544434 410.60198975 C-134.20487567 410.5285653 -119.34781557 408.71939722 -103.7109375 404.04296875 C-102.48487793 403.68380371 -101.25881836 403.32463867 -99.99560547 402.95458984 C-62.96033129 391.97511113 -30.45588013 373.98346726 -2.7109375 347.04296875 C-2.13746582 346.49527832 -1.56399414 345.94758789 -0.97314453 345.38330078 C7.60666819 337.17805014 15.35790716 328.68742065 22.2890625 319.04296875 C22.83030762 318.29192871 23.37155273 317.54088867 23.92919922 316.76708984 C58.52552385 268.17608834 73.92973443 205.70663884 64.31640625 146.5234375 C56.38023033 102.62671026 37.72057218 61.26672663 7.375 28.3125 C5.44751574 26.21536825 3.58144893 24.0792052 1.7265625 21.91796875 C-5.09323447 14.13060333 -12.53143621 7.38044364 -20.7109375 1.04296875 C-21.38560059 0.51896484 -22.06026367 -0.00503906 -22.75537109 -0.54492188 C-34.20308612 -9.36830937 -45.93213245 -17.19366036 -58.7109375 -23.95703125 C-59.45746582 -24.35229004 -60.20399414 -24.74754883 -60.97314453 -25.15478516 C-80.66551117 -35.39344322 -101.79472692 -42.51389732 -123.7109375 -45.95703125 C-125.59425781 -46.29154297 -125.59425781 -46.29154297 -127.515625 -46.6328125 C-182.73488327 -55.21339492 -243.58670953 -37.71038518 -287.7109375 -3.95703125 Z " fill="#233038" transform="translate(659.7109375,319.95703125)"/>
<path d="M0 0 C15.02625452 13.91591605 24.7108612 32.02780671 28.9375 51.9375 C29.27394531 53.37416016 29.27394531 53.37416016 29.6171875 54.83984375 C34.55925081 78.97471458 30.04545124 107.05716886 16.9375 127.9375 C12.16584287 134.62887402 6.60992073 140.75780512 0.25390625 145.97265625 C-1.75891686 147.67999187 -3.67902226 149.43508432 -5.59765625 151.24609375 C-6.22889404 151.84164062 -6.86013184 152.4371875 -7.51049805 153.05078125 C-8.78203624 154.25449763 -10.05050272 155.46146822 -11.31567383 156.671875 C-15.84290551 160.9375 -15.84290551 160.9375 -18.0625 160.9375 C-19.20554923 163.73636821 -20.27686628 166.54100251 -21.2890625 169.390625 C-24.29412334 177.6754334 -27.57737406 183.7647597 -34.0625 189.9375 C-35.73110415 191.60222692 -37.39797508 193.26869434 -39.0625 194.9375 C-38.2125798 195.77742744 -38.2125798 195.77742744 -37.3454895 196.63432312 C-31.95473773 201.9644641 -26.57162072 207.30215443 -21.19650459 212.64805889 C-18.43417068 215.39486903 -15.6691761 218.1388746 -12.89746094 220.8762207 C-10.21275702 223.52784908 -7.53588 226.18716772 -4.86382675 228.85154152 C-3.85324039 229.85666938 -2.84005986 230.8591973 -1.82400894 231.85880089 C17.54711839 250.92930125 29.15435256 271.29703101 29.4375 298.9375 C29.15790801 322.35636805 21.35833734 344.05030106 4.9375 360.9375 C4.27105469 361.68 3.60460937 362.4225 2.91796875 363.1875 C-14.80625109 382.29234328 -43.33598916 392.91559867 -68.8828125 394.1171875 C-100.60745314 394.67593851 -129.24936748 384.79903732 -152.37890625 362.5859375 C-169.47212079 345.71665154 -179.18083567 324.56784101 -179.375 300.5625 C-179.41258236 278.09242304 -171.94261061 258.47025407 -156.44140625 242.18359375 C-154.83987642 240.5869392 -153.22249562 239.00584337 -151.58203125 237.44921875 C-149.56237856 235.43582854 -147.72096243 233.4081627 -145.86938477 231.24658203 C-142.29212929 227.14107363 -138.51635935 223.2944971 -134.6328125 219.48046875 C-133.24726837 218.1075505 -131.86185537 216.7344999 -130.4765625 215.36132812 C-128.31892266 213.22864495 -126.15969251 211.09761731 -123.99804688 208.96899414 C-121.89279382 206.8938229 -119.79370597 204.81257274 -117.6953125 202.73046875 C-116.71886276 201.77420845 -116.71886276 201.77420845 -115.72268677 200.79862976 C-115.12471283 200.20403458 -114.52673889 199.60943939 -113.91064453 198.99682617 C-113.38326691 198.47690598 -112.85588928 197.95698578 -112.31253052 197.42131042 C-110.82518632 195.84119235 -110.82518632 195.84119235 -110.0625 192.9375 C-110.55878906 192.53660156 -111.05507813 192.13570312 -111.56640625 191.72265625 C-118.75847774 185.70424349 -124.15053933 179.69941946 -127.5625 170.875 C-129.80623853 165.09700666 -132.68816391 161.26480022 -137.0625 156.9375 C-137.63097656 156.34453125 -138.19945312 155.7515625 -138.78515625 155.140625 C-141.73254494 152.10595601 -144.79825976 149.26400231 -148 146.5 C-166.96294443 129.98035802 -177.8840741 109.48709733 -179.91748047 84.17089844 C-181.06957369 66.42788694 -180.2212907 49.07104854 -172.0625 32.9375 C-171.61028076 32.02750244 -171.61028076 32.02750244 -171.14892578 31.09912109 C-164.29230554 17.49084616 -155.20464485 5.3009617 -143.0625 -4.0625 C-142.2684375 -4.69285156 -141.474375 -5.32320313 -140.65625 -5.97265625 C-98.5963484 -38.07425761 -39.49590569 -34.99042801 0 0 Z M-136.0625 7.9375 C-137.53589844 9.175 -137.53589844 9.175 -139.0390625 10.4375 C-155.07067003 24.22102043 -163.60055224 41.92301734 -166.0625 62.9375 C-167.41890495 86.33022808 -163.62835614 110.05669468 -147.625 128.125 C-146.11039708 129.73505053 -144.59001392 131.3396934 -143.0625 132.9375 C-142.23298828 133.87916016 -142.23298828 133.87916016 -141.38671875 134.83984375 C-136.98774151 139.65361289 -131.75853632 142.73383075 -126.1484375 145.9453125 C-121.10972907 149.19814959 -117.84691149 152.30700838 -116 158.0625 C-115.67902344 159.01769531 -115.35804688 159.97289062 -115.02734375 160.95703125 C-114.54974609 162.43236328 -114.54974609 162.43236328 -114.0625 163.9375 C-110.73708052 174.56930214 -110.73708052 174.56930214 -103.625 182.8125 C-100.78798406 184.0580192 -99.12065904 184.42036722 -96.0625 183.9375 C-93.49987455 181.84198602 -92.44263254 179.85121833 -91.375 176.75 C-91.12363281 176.03457031 -90.87226563 175.31914062 -90.61328125 174.58203125 C-90.43152344 174.03933594 -90.24976563 173.49664062 -90.0625 172.9375 C-87.1875 173.25 -87.1875 173.25 -84.0625 173.9375 C-81.55697692 177.69578462 -81.69054291 179.47401494 -82.0625 183.9375 C-84.01089468 189.76924684 -86.45207903 192.70227945 -91.25 196.4375 C-92.42865465 197.39550218 -93.60704108 198.35383446 -94.78515625 199.3125 C-95.35250488 199.76625 -95.91985352 200.22 -96.50439453 200.6875 C-102.80672349 205.7435834 -108.51781054 211.31944453 -114.15625 217.09375 C-116.25234108 219.19426322 -118.43554921 221.14606671 -120.6875 223.078125 C-125.68059806 227.40641964 -130.37400059 232.02701473 -135.05322266 236.68798828 C-136.55317131 238.17823167 -138.06349158 239.65741392 -139.57421875 241.13671875 C-154.48435011 255.88267495 -164.29620821 271.96791212 -164.53100586 293.42480469 C-164.52077393 294.50149414 -164.51054199 295.57818359 -164.5 296.6875 C-164.49170166 297.82348633 -164.48340332 298.95947266 -164.47485352 300.12988281 C-164.04392996 321.69139594 -155.54983555 340.41417789 -140.3515625 355.65625 C-119.48917957 374.17518718 -90.95324878 381.38099909 -63.54199219 380.12841797 C-37.58444793 378.12971773 -15.7948603 364.79445116 0.99609375 345.58203125 C14.4157549 328.21716905 16.76220669 305.29931316 14.54296875 284.18359375 C9.80642996 259.76750026 -9.96949867 241.04432593 -28.05859375 225.45703125 C-32.21668393 221.86356382 -36.03851744 217.99320199 -39.875 214.0625 C-45.9749252 207.88376072 -52.20824357 202.27492431 -59.0625 196.9375 C-65.89840577 191.4297827 -65.89840577 191.4297827 -67.0625 187.9375 C-67.13279121 185.36484182 -67.15620832 182.82108569 -67.125 180.25 C-67.12048828 179.54810547 -67.11597656 178.84621094 -67.11132812 178.12304688 C-67.09956927 176.39449462 -67.08163454 174.66598635 -67.0625 172.9375 C-64.4225 172.9375 -61.7825 172.9375 -59.0625 172.9375 C-57.4125 176.2375 -55.7625 179.5375 -54.0625 182.9375 C-49.16237217 183.55001598 -46.76360157 183.09667941 -42.75 180.125 C-38.77886317 176.96525458 -36.93518949 174.09800495 -35.80859375 169.15625 C-35.59396484 168.23199219 -35.37933594 167.30773437 -35.15820312 166.35546875 C-34.94099609 165.39253906 -34.72378906 164.42960938 -34.5 163.4375 C-34.06229564 161.53099765 -33.62353903 159.62473649 -33.18359375 157.71875 C-32.9920874 156.87376953 -32.80058105 156.02878906 -32.60327148 155.15820312 C-32.0625 152.9375 -32.0625 152.9375 -31.0625 149.9375 C-29.0625 149.27083333 -27.0625 148.60416667 -25.0625 147.9375 C-16.0247558 143.61439131 -9.10563672 136.89560402 -2.0625 129.9375 C-1.35738281 129.256875 -0.65226563 128.57625 0.07421875 127.875 C9.91121051 117.61800185 13.29495951 104.44855377 15.9375 90.9375 C16.22753906 89.75800781 16.22753906 89.75800781 16.5234375 88.5546875 C19.9555622 66.86106911 15.09777167 43.68388595 2.85546875 25.49609375 C-0.49392736 21.02795841 -4.21299989 16.97495039 -8.0625 12.9375 C-8.57941406 12.33421875 -9.09632813 11.7309375 -9.62890625 11.109375 C-22.27752928 -3.02537867 -44.53001164 -12.51666764 -63.0625 -14.0625 C-91.03311305 -15.21148866 -114.37870881 -10.81604913 -136.0625 7.9375 Z " fill="#222F38" transform="translate(577.0625,318.0625)"/>
<path d="M0 0 C3.89907274 0.51409007 5.81493239 1.3187839 8.5 4.1875 C9.09941406 4.82042969 9.69882812 5.45335937 10.31640625 6.10546875 C11.73316307 7.69973106 13.09256667 9.34469744 14.4375 11 C17.02434978 14.02850706 19.74325499 16.50517941 22.76171875 19.0859375 C29.11546419 24.51933237 35.21859749 30.1562198 41.08203125 36.11328125 C42.93192977 37.93303886 44.83965121 39.62777517 46.8125 41.3125 C63.33771544 55.64296026 78.93830708 72.51328056 82 95 C82.66291497 104.87006737 81.67628406 114.28653253 80 124 C64.71608665 125.61829671 51.5954285 117.53315102 39 110 C30.57768976 105.01249894 22.23234108 100.35351213 13 97 C12.3296875 96.75378906 11.659375 96.50757813 10.96875 96.25390625 C-4.41811689 91.52700858 -19.49833593 96.68418297 -33.05859375 103.82421875 C-37.70526723 106.34477222 -42.1584747 109.15421938 -46.62890625 111.97265625 C-50.4901712 114.2947843 -54.42069609 116.39961691 -58.4375 118.4375 C-59.10007812 118.77974609 -59.76265625 119.12199219 -60.4453125 119.47460938 C-64.28997853 121.38914388 -67.72908033 122.53132103 -72 123 C-74.46902062 116.71034633 -75.52209393 111.18436545 -75.4375 104.4375 C-75.42920166 103.5705249 -75.42090332 102.7035498 -75.41235352 101.81030273 C-74.9010331 81.9707066 -66.89989602 66.94949422 -53 53 C-51.74576227 51.7203769 -50.49187239 50.44041279 -49.23828125 49.16015625 C-43.02808269 42.8546308 -36.75474873 36.72316576 -30 31 C-27.57964045 28.85372298 -25.17689751 26.6894533 -22.78125 24.515625 C-20.77205458 22.69831903 -18.75206311 20.8991634 -16.71875 19.109375 C-10.1606892 13.27486495 -4.60664205 7.57164439 0 0 Z " fill="#233139" transform="translate(499,514)"/>
<path d="M0 0 C3.55839205 0.88959801 4.91045719 2.24891671 6.859375 5.3203125 C8.75749053 9.3635586 9.71597605 13.65113601 10.859375 17.95703125 C12.84490558 24.55960039 15.9040897 30.6163732 19 36.75 C19.35835937 37.47316406 19.71671875 38.19632813 20.0859375 38.94140625 C30.38437261 59.644812 42.93887327 79.20135347 58.66723633 96.21411133 C60.83457635 98.57017212 62.96199668 100.95643772 65.0859375 103.3515625 C69.77822894 108.56977658 74.66618295 113.56881107 79.63891602 118.51928711 C81.06839717 119.94337492 82.49240511 121.37278044 83.91601562 122.80273438 C88.53006106 127.41035803 93.18489724 131.89828476 98.13500977 136.14331055 C101.3049627 138.87422562 104.36857781 141.71918507 107.4375 144.5625 C108.06076172 145.13419922 108.68402344 145.70589844 109.32617188 146.29492188 C109.91849609 146.84341797 110.51082031 147.39191406 111.12109375 147.95703125 C111.6514624 148.4466333 112.18183105 148.93623535 112.72827148 149.44067383 C114.71829839 151.48953432 115.0005378 152.7549478 115.3125 155.625 C115 158.75 115 158.75 113.3125 161.1875 C111 162.75 111 162.75 108.75 162.875 C100.69267266 159.57882063 94.30979808 152.55138269 88 146.75 C87.11441406 145.95722656 86.22882813 145.16445313 85.31640625 144.34765625 C78.13597331 137.85379857 71.21744747 131.09912228 64.35040283 124.27664185 C63.29991649 123.23354709 62.24784185 122.19204897 61.19403076 121.15231323 C55.04701904 115.0797981 49.30087256 108.89465185 43.90380859 102.12866211 C42.40584171 100.25706794 40.88657989 98.45033268 39.27734375 96.67578125 C19.7469272 74.86301218 -5.0987976 39.34435535 -8.375 9.3125 C-8 5.75 -8 5.75 -5.875 2.8125 C-3 0.75 -3 0.75 0 0 Z " fill="#F8FAF8" transform="translate(218,603.25)"/>
<path d="M0 0 C5.95410191 4.3577967 11.11027631 10.27125851 12.99609375 17.4609375 C13.94946511 26.42046155 13.53137073 33.20636994 7.99609375 40.4609375 C7.465 41.18152344 6.93390625 41.90210938 6.38671875 42.64453125 C1.77017297 48.41521348 -2.62842191 51.87192999 -10.05078125 52.87109375 C-18.87814342 53.27516315 -25.32491141 51.45002384 -32.0703125 45.69921875 C-38.18283425 39.40804292 -40.0836758 32.39416652 -40.37890625 23.7734375 C-40.21938639 19.03436834 -39.33564667 15.65807025 -37.00390625 11.4609375 C-36.400625 10.3471875 -36.400625 10.3471875 -35.78515625 9.2109375 C-28.32658195 -3.38576576 -13.16075311 -7.01575119 0 0 Z " fill="#202C34" transform="translate(473.00390625,380.5390625)"/>
<path d="M0 0 C5.64833027 3.28391295 9.62039069 9.82832422 11.65625 15.984375 C12.87335461 23.12103387 12.83269996 30.69653434 9 37 C4.02710008 43.42576675 -1.13165893 49.37721964 -9 52 C-16.98957772 52.88524073 -23.07413595 52.47698245 -29.7734375 47.83984375 C-35.49980936 43.10805226 -39.90025855 38.57599666 -41 31 C-41.79978733 21.9024191 -41.50185695 14.54938346 -36 7 C-26.5964775 -3.78021686 -12.78633056 -5.93928945 0 0 Z " fill="#212E36" transform="translate(562,381)"/>
<path d="M0 0 C4.07497605 0.46306546 6.33304473 2.14534071 9.390625 4.68359375 C9.95120605 5.1314624 10.51178711 5.57933105 11.08935547 6.04077148 C15.52086528 9.63040643 19.73579861 13.44622762 23.89624023 17.34423828 C26.98103799 20.22944634 30.14495026 22.93400867 33.453125 25.55859375 C38.58253447 29.69061804 43.40017017 34.11517647 48.203125 38.62109375 C49.30466919 39.65012817 49.30466919 39.65012817 50.4284668 40.69995117 C54.00482881 44.08141157 57.28070816 47.44095325 60.265625 51.37109375 C61.4103125 52.51578125 61.4103125 52.51578125 62.578125 53.68359375 C68.78057312 59.88604187 74.11662217 66.65844958 79.265625 73.74609375 C79.8743042 74.58317871 80.4829834 75.42026367 81.11010742 76.28271484 C82.30039831 77.9212971 83.48949947 79.56074444 84.67724609 81.20117188 C85.98792314 82.99171869 87.33498123 84.75557428 88.69140625 86.51171875 C92.0864451 90.98220469 94.38468534 94.72319327 94.59765625 100.453125 C94.265625 102.37109375 94.265625 102.37109375 92.203125 104.93359375 C88.76572286 106.61572671 87.03540356 107.07792723 83.265625 106.37109375 C79.19771827 102.80835191 76.39446352 98.81684328 73.515625 94.30859375 C62.4903865 77.45866221 49.70329592 62.44275149 35.42895508 48.27368164 C33.69307769 46.54860898 31.9682741 44.81297384 30.24414062 43.07617188 C23.55910956 36.38288468 16.69952211 30.23325689 9.265625 24.37109375 C6.8973997 22.4293359 4.54836257 20.46551064 2.203125 18.49609375 C1.64947266 18.0371875 1.09582031 17.57828125 0.52539062 17.10546875 C-5.56251264 11.9865999 -5.56251264 11.9865999 -6.046875 7.43359375 C-5.58945146 2.95084304 -4.68875617 0.63633119 0 0 Z " fill="#F8FAF7" transform="translate(673.734375,239.62890625)"/>
<path d="M0 0 C2.875 1.5625 2.875 1.5625 5 4 C5.70996122 7.42072222 5.790678 9.6401569 3.99609375 12.7265625 C0.59080273 16.97590001 -3.62640338 20.12778694 -7.90234375 23.44921875 C-15.000042 29.15158214 -21.44910694 35.68894581 -28 42 C-28.59731934 42.57395508 -29.19463867 43.14791016 -29.81005859 43.73925781 C-35.58638306 49.31465196 -41.0111377 54.99429903 -45.93359375 61.35546875 C-48.42804871 64.54780525 -51.01354586 67.65316511 -53.625 70.75 C-54.06851807 71.28101318 -54.51203613 71.81202637 -54.96899414 72.35913086 C-57.28185463 75.09717784 -59.6581478 77.67440748 -62.234375 80.16796875 C-65.28326407 83.2900656 -66.39332412 85.9833103 -68 90 C-71.3559322 94.6779661 -71.3559322 94.6779661 -74 96 C-77.375 96.375 -77.375 96.375 -81 96 C-83.82380354 93.53822256 -84.80159959 91.81163806 -85.6875 88.1875 C-84.80865341 84.11284762 -83.01198875 82.43527241 -80.1875 79.45703125 C-77.57546655 76.52315797 -75.36747936 73.40689248 -73.125 70.1875 C-66.62356675 60.9531525 -59.71209579 52.42358029 -51.5546875 44.58203125 C-49.52877852 42.53443823 -47.65445941 40.46965304 -45.7800293 38.28881836 C-42.31283777 34.3113425 -38.69151227 30.53044088 -34.96484375 26.796875 C-34.32309708 26.15179993 -33.6813504 25.50672485 -33.02015686 24.84210205 C-31.67611794 23.49304459 -30.33076238 22.14529766 -28.98413086 20.79882812 C-26.93378823 18.74628424 -24.89160162 16.68584743 -22.84960938 14.625 C-21.53434412 13.30680262 -20.21860518 11.98907767 -18.90234375 10.671875 C-18.29905746 10.0614032 -17.69577118 9.4509314 -17.07420349 8.82196045 C-7.00608678 -1.19252541 -7.00608678 -1.19252541 0 0 Z " fill="#F7FAF5" transform="translate(324,245)"/>
<path d="M0 0 C0.87527344 -0.01417969 1.75054688 -0.02835938 2.65234375 -0.04296875 C5.0625 0.1875 5.0625 0.1875 8.0625 2.1875 C8.82277751 5.22861003 8.98516341 6.28084359 8.0625 9.1875 C4.08891396 14.7399944 -0.91453522 19.47972264 -6.234375 23.73828125 C-8.60469787 25.7552303 -10.74361484 27.98063327 -12.9375 30.1875 C-19.01384686 36.00470854 -25.24272256 41.61936837 -31.8125 46.875 C-32.33521484 47.30901123 -32.85792969 47.74302246 -33.39648438 48.19018555 C-36.07445669 50.28011267 -37.79832205 51.17201729 -41.203125 51.55078125 C-43.9375 51.1875 -43.9375 51.1875 -45.8125 49.6875 C-47.45912838 46.02832582 -48.13859487 43.02122724 -46.9375 39.1875 C-44.29590784 36.06399575 -41.16604843 33.67998 -37.9375 31.1875 C-36.6781724 30.11502385 -35.42774403 29.03198886 -34.1875 27.9375 C-33.54039062 27.3703125 -32.89328125 26.803125 -32.2265625 26.21875 C-24.00387197 18.92216455 -16.10460926 11.55380012 -8.86328125 3.26953125 C-5.95499502 0.12527859 -4.1584489 0.03053193 0 0 Z " fill="#F7F9F4" transform="translate(719.9375,713.8125)"/>
<path d="M0 0 C4.06159484 2.60419905 7.22474748 5.44680603 9 10 C9.70856389 14.11780165 9.80018585 17.89166323 9 22 C5.97053695 26.261787 1.17649635 29.9381546 -4 31 C-9.45403079 30.80167161 -12.79290372 29.45916805 -17 26 C-20.58238969 21.94624325 -21.77135263 18.617659 -21.51171875 13.30859375 C-20.27462819 7.72752107 -16.27488735 3.55880369 -11.625 0.4375 C-7.25598736 -1.2950395 -4.41519754 -1.65353477 0 0 Z " fill="#F5F9F7" transform="translate(638,490)"/>
<path d="M0 0 C4.89214448 1.11077677 7.45356599 5.77438343 10.42578125 9.55078125 C11.18246094 10.49824219 11.93914063 11.44570313 12.71875 12.421875 C18.3144081 19.72099008 18.3144081 19.72099008 18.78125 23.19921875 C18.22010742 26.91139274 16.34383247 28.34603144 13.42578125 30.55078125 C9.01622548 30.34318853 7.06147923 28.63635706 4.11328125 25.48828125 C3.41589844 24.75480469 2.71851563 24.02132813 2 23.265625 C1.48050781 22.69972656 0.96101563 22.13382812 0.42578125 21.55078125 C-2.93009711 22.66940737 -3.37444295 23.36926879 -5.38671875 26.11328125 C-8.16194589 29.46008122 -8.16194589 29.46008122 -11.69921875 30.23828125 C-15.20723492 29.39940782 -16.55476212 28.53957706 -18.57421875 25.55078125 C-18.33329295 20.58057124 -15.54477153 17.02153026 -12.82421875 13.05078125 C-12.39367187 12.39980469 -11.963125 11.74882812 -11.51953125 11.078125 C-4.72703301 1.01139856 -4.72703301 1.01139856 0 0 Z " fill="#1C2931" transform="translate(502.57421875,432.44921875)"/>
<path d="M0 0 C2.78202086 2.14447441 4.39871824 3.83501659 6 6.9375 C6 10.09788273 4.5333848 12.30124276 3 15 C3.66 15 4.32 15 5 15 C5.3125 18.25 5.3125 18.25 5 22 C1.28584356 25.81453905 -1.63248638 26.9348803 -6.9375 27.1875 C-10.12947001 27.12903901 -12.40365042 27.01938301 -15 25 C-16.8125 22.75 -16.8125 22.75 -18 20 C-17.73775349 17.98944339 -17.39764263 15.98821313 -17 14 C-17.2475 12.845 -17.495 11.69 -17.75 10.5 C-18 7 -18 7 -15.8125 3.6875 C-10.71788837 -1.18068445 -6.74993862 -1.87698828 0 0 Z " fill="#EEF2ED" transform="translate(379,490)"/>
<path d="M0 0 C3.26612062 2.40723022 6.1362433 5.1362433 9 8 C9.26293056 12.03160191 9.29404844 13.55892734 7 17 C6.48238249 19.30463034 6.11806762 21.60741297 5.7578125 23.94140625 C5 26 5 26 3.234375 27.25390625 C-1.28105285 28.76168024 -6.58504201 29.09338649 -10.984375 27.1015625 C-12.625 26 -12.625 26 -15 24 C-14.64950425 20.75791433 -14.43778819 19.38472296 -11.9375 17.1875 C-11.298125 16.795625 -10.65875 16.40375 -10 16 C-11.01790655 13.72928539 -11.77442829 12.19215368 -13.6875 10.5625 C-15 9 -15 9 -15.125 6.625 C-12.34214302 0.13166705 -6.61335064 -2.32047391 0 0 Z " fill="#F3F7F4" transform="translate(333,489)"/>
<path d="M0 0 C3.42437702 1.23658059 6.44734711 2.35280441 9 5 C9.625 7.75 9.625 7.75 9 11 C7.63519072 12.63111353 6.25633194 14.2535656 4.79296875 15.796875 C1.73305564 19.55676823 -0.28822282 23.90870638 -2.484375 28.20703125 C-4 31 -4 31 -6 33 C-9.59411792 33.46879799 -11.35164037 33.44361448 -14.375 31.375 C-16.53274436 28.22137363 -16.4428677 26.79537621 -16 23 C-14.72271892 20.17599411 -13.0804502 17.64510869 -11.375 15.0625 C-10.94832031 14.38509766 -10.52164062 13.70769531 -10.08203125 13.00976562 C-7.07944997 8.33559805 -3.71515346 4.12606461 0 0 Z " fill="#242E35" transform="translate(440,344)"/>
<path d="M0 0 C2.4375 2.6875 2.4375 2.6875 4 6 C3.7 11.3 3.7 11.3 2 13 C2.22379239 14.91990314 2.47926063 16.83615275 2.75 18.75 C3.27503892 24.55306175 3.27503892 24.55306175 1 28.25 C-2.74661022 30.43552263 -4.73263548 30.77588446 -9 30 C-12.2281764 27.11315408 -13.26188392 24.77610884 -13.56640625 20.56640625 C-13.58621446 18.89855461 -13.58432683 17.23032644 -13.5625 15.5625 C-13.58634766 14.72912109 -13.61019531 13.89574219 -13.63476562 13.03710938 C-13.62456764 8.73695882 -13.35172818 5.86869617 -10.58984375 2.46484375 C-6.76589712 -1.17453833 -5.09357417 -1.52807225 0 0 Z " fill="#F5F8F4" transform="translate(679,490)"/>
<path d="M0 0 C1.43668294 3.8610854 2.11185208 6.896427 2 11 C-0.48864621 12.52218166 -2.98816971 14.01695126 -5.5 15.5 C-6.54414063 16.14388672 -6.54414063 16.14388672 -7.609375 16.80078125 C-12.69012068 19.76454956 -16.1200576 20.58097151 -22 20 C-24.0625 18.8125 -24.0625 18.8125 -25 17 C-25.15024241 14.2205155 -24.5771818 12.68667931 -22.78515625 10.5546875 C-16.88681282 5.04572126 -8.2872876 -0.63748366 0 0 Z " fill="#2C3840" transform="translate(478,320)"/>
<path d="M0 0 C2.5 1.5 2.5 1.5 4 4 C4.77926575 8.25054043 4.99817409 10.48600969 2.6015625 14.12109375 C0.81659091 16.1827749 -1.0479804 18.09667944 -3 20 C-3.48597656 20.53238281 -3.97195313 21.06476562 -4.47265625 21.61328125 C-5.75 23 -5.75 23 -8 25 C-8.99 25 -9.98 25 -11 25 C-13.03608262 18.3827315 -13.94223286 11.91301373 -13 5 C-9.55430885 -0.59924811 -6.09433527 -0.87061932 0 0 Z " fill="#F8FAF6" transform="translate(748,683)"/>
<path d="M0 0 C0.33 0 0.66 0 1 0 C1.33808686 2.06172613 1.67027361 4.1244203 2 6.1875 C2.185625 7.33605469 2.37125 8.48460937 2.5625 9.66796875 C2.93489477 12.50415393 3.08596021 15.14719564 3 18 C3.66 18.33 4.32 18.66 5 19 C4.278125 19.495 3.55625 19.99 2.8125 20.5 C-0.24308988 23.21607989 -1.96156617 25.88271602 -3.984375 29.390625 C-4.31953125 29.92171875 -4.6546875 30.4528125 -5 31 C-5.33 31 -5.66 31 -6 31 C-6 29.35 -6 27.7 -6 26 C-11.94 25.01 -11.94 25.01 -18 24 C-17 20 -17 20 -16 18 C-14.68 18 -13.36 18 -12 18 C-11.71125 17.401875 -11.4225 16.80375 -11.125 16.1875 C-10 14 -10 14 -8 11 C-7.34 11 -6.68 11 -6 11 C-5.731875 10.236875 -5.46375 9.47375 -5.1875 8.6875 C-4.03396359 6.07686496 -3.01370135 4.92614911 -1 3 C-0.67 2.01 -0.34 1.02 0 0 Z " fill="#CAD6CE" transform="translate(734,690)"/>
<path d="M0 0 C3.75979392 1.05909688 5.09536663 3.27164342 6.94140625 6.546875 C7.12839916 10.09974027 6.9657554 12.26884691 4.6953125 15.1015625 C2.4304632 17.18404731 0.36681924 18.44311573 -2.62109375 19.171875 C-6.1485689 18.26739419 -7.72849138 16.26532776 -10.05859375 13.546875 C-11.5029023 10.65825791 -11.43547881 8.75039799 -11.05859375 5.546875 C-7.99048991 1.13647573 -5.24841725 -0.35852566 0 0 Z " fill="#F2F6F8" transform="translate(505.05859375,550.453125)"/>
<path d="M0 0 C2.4375 1.5 2.4375 1.5 4 3 C3.71984352 6.36187774 3.22366109 7.76318238 0.875 10.25 C-2.47336473 12.28813505 -5.12262548 12.69589219 -9 13 C-10.7517543 10.44535831 -11.9171496 8.4349646 -12.5 5.375 C-12 3 -12 3 -9.9375 1.1875 C-6.3436331 -0.26533981 -3.84723842 -0.41969874 0 0 Z " fill="#1A202B" transform="translate(501,314)"/>
<path d="M0 0 C4.29993004 0.43728102 5.94491848 1.03247877 8.6875 4.375 C8.6875 8 8.6875 8 7.6875 11.375 C3.99263897 13.83824069 2.05456908 13.76491688 -2.3125 13.375 C-4.25 12.375 -4.25 12.375 -5.3125 10.375 C-5.66778819 7.57280764 -5.53967012 5.23734355 -5.3125 2.375 C-3.3125 0.375 -3.3125 0.375 0 0 Z " fill="#F0F4F1" transform="translate(784.3125,395.625)"/>
<path d="M0 0 C-0.14148989 1.6045556 -0.28835686 3.20863767 -0.4375 4.8125 C-0.51871094 5.70582031 -0.59992187 6.59914063 -0.68359375 7.51953125 C-1.18265593 11.43193227 -2.1012109 13.42329858 -5 16 C-5.53625 16.53625 -6.0725 17.0725 -6.625 17.625 C-10.20745803 19.69905465 -13.92291851 19.74736033 -18 20 C-17.34 18.35 -16.68 16.7 -16 15 C-14.68 15 -13.36 15 -12 15 C-11.71125 14.401875 -11.4225 13.80375 -11.125 13.1875 C-10 11 -10 11 -8 8 C-7.34 8 -6.68 8 -6 8 C-5.731875 7.236875 -5.46375 6.47375 -5.1875 5.6875 C-2.6744186 0 -2.6744186 0 0 0 Z " fill="#99B1AE" transform="translate(734,693)"/>
<path d="M0 0 C0.99 0.66 1.98 1.32 3 2 C2.26394531 2.71285156 1.52789062 3.42570313 0.76953125 4.16015625 C-4.33950788 9.15742696 -9.10830514 13.96116315 -13 20 C-13.33 19.01 -13.66 18.02 -14 17 C-14.99 16.67 -15.98 16.34 -17 16 C-16.0925 15.46375 -15.185 14.9275 -14.25 14.375 C-10.79561944 12.09936542 -9.08948315 9.53604841 -7 6 C-6.01 6.33 -5.02 6.66 -4 7 C-3.896875 6.401875 -3.79375 5.80375 -3.6875 5.1875 C-2.91123545 2.71756736 -1.92911079 1.67748765 0 0 Z " fill="#F0ECEF" transform="translate(447,562)"/>
<path d="M0 0 C0.33 0 0.66 0 1 0 C0.85851011 1.6045556 0.71164314 3.20863767 0.5625 4.8125 C0.48128906 5.70582031 0.40007813 6.59914063 0.31640625 7.51953125 C-0.18265593 11.43193227 -1.1012109 13.42329858 -4 16 C-4.5775 16.53625 -5.155 17.0725 -5.75 17.625 C-8.75604645 19.46202839 -11.52990864 19.66633737 -15 20 C-11.25 17 -11.25 17 -9 17 C-9 16.34 -9 15.68 -9 15 C-7.37660195 13.29115995 -5.70680947 11.62553283 -4 10 C-1.80202597 7.80202597 -1.54102483 6.82453855 -0.875 3.875 C-0.58625 2.59625 -0.2975 1.3175 0 0 Z " fill="#B2C3BC" transform="translate(733,693)"/>
<path d="M0 0 C0.33 0 0.66 0 1 0 C2.5463382 5.99206052 2.53637234 12.03597194 1 18 C0.96154557 19.99963028 0.95455719 22.00051633 1 24 C-0.86351199 21.20473202 -1.34308907 20.15954373 -1.75 17 C-1.84796875 16.319375 -1.9459375 15.63875 -2.046875 14.9375 C-2 13 -2 13 0 10 C-0.3355782 6.98650805 -0.3355782 6.98650805 -1 4 C-1 1 -1 1 0 0 Z " fill="#9FB2B0" transform="translate(682,490)"/>
<path d="M0 0 C0.33 1.32 0.66 2.64 1 4 C-0.58570661 6.12217932 -2.09290258 7.8833556 -3.9375 9.75 C-4.41896484 10.25660156 -4.90042969 10.76320313 -5.39648438 11.28515625 C-6.58653954 12.53412504 -7.79186613 13.7685103 -9 15 C-9.66 14.67 -10.32 14.34 -11 14 C-7.37 9.38 -3.74 4.76 0 0 Z " fill="#8FA0A0" transform="translate(709,660)"/>
<path d="M0 0 C0.99 0.66 1.98 1.32 3 2 C-0.3 5.3 -3.6 8.6 -7 12 C-7.66 11.34 -8.32 10.68 -9 10 C-8.34 9.01 -7.68 8.02 -7 7 C-6.01 7 -5.02 7 -4 7 C-3.8453125 6.1028125 -3.8453125 6.1028125 -3.6875 5.1875 C-2.91123545 2.71756736 -1.92911079 1.67748765 0 0 Z " fill="#E0DEE4" transform="translate(447,562)"/>
<path d="M0 0 C0.66 0.33 1.32 0.66 2 1 C1.50628906 1.48210937 1.01257813 1.96421875 0.50390625 2.4609375 C-0.45708984 3.40839844 -0.45708984 3.40839844 -1.4375 4.375 C-2.07558594 5.00148438 -2.71367187 5.62796875 -3.37109375 6.2734375 C-5.07882176 7.91723061 -5.07882176 7.91723061 -6 10 C-6.99 9.67 -7.98 9.34 -9 9 C-6.03 6.03 -3.06 3.06 0 0 Z M-10 10 C-9.34 10.66 -8.68 11.32 -8 12 C-9.375 13.5 -9.375 13.5 -11 15 C-11.66 15 -12.32 15 -13 15 C-11.125 11.125 -11.125 11.125 -10 10 Z " fill="#899EA3" transform="translate(353,332)"/>
<path d="M0 0 C0.66 0.33 1.32 0.66 2 1 C1.04882866 2.1725131 0.08882991 3.33787015 -0.875 4.5 C-1.67550781 5.47453125 -1.67550781 5.47453125 -2.4921875 6.46875 C-2.98976563 6.9740625 -3.48734375 7.479375 -4 8 C-4.66 8 -5.32 8 -6 8 C-6.66 9.32 -7.32 10.64 -8 12 C-8.66 11.01 -9.32 10.02 -10 9 C-6.7 6.03 -3.4 3.06 0 0 Z " fill="#94ADB4" transform="translate(547,503)"/>
<path d="M0 0 C1.1446875 0.0928125 1.1446875 0.0928125 2.3125 0.1875 C-0.43309948 3.13647721 -3.02867274 5.44955705 -6.6875 7.1875 C-9 6.875 -9 6.875 -10.6875 6.1875 C-9.924375 5.754375 -9.16125 5.32125 -8.375 4.875 C-5.72019477 3.38269749 -5.72019477 3.38269749 -4.1875 1.5 C-2.6875 0.1875 -2.6875 0.1875 0 0 Z " fill="#19272E" transform="translate(562.6875,691.8125)"/>
<path d="M0 0 C0.22174933 1.45635371 0.42698698 2.91522956 0.625 4.375 C0.74101562 5.18710937 0.85703125 5.99921875 0.9765625 6.8359375 C0.98429688 7.55007813 0.99203125 8.26421875 1 9 C0.34 9.66 -0.32 10.32 -1 11 C-3.09350689 7.5980513 -3.17942163 4.94727588 -3 1 C-1 0 -1 0 0 0 Z " fill="#78948F" transform="translate(239,329)"/>
<path d="M0 0 C5.625 -0.25 5.625 -0.25 9 2 C9.1875 5.625 9.1875 5.625 9 9 C8.01 9.495 8.01 9.495 7 10 C7.0825 9.236875 7.165 8.47375 7.25 7.6875 C7.29101331 4.89556881 7.29101331 4.89556881 5.1875 3.3125 C4.465625 2.879375 3.74375 2.44625 3 2 C2.01 1.34 1.02 0.68 0 0 Z " fill="#E6EAE0" transform="translate(719,714)"/>
<path d="M0 0 C0.66 0 1.32 0 2 0 C4.28571429 8.42857143 4.28571429 8.42857143 4 13 C3.34 13 2.68 13 2 13 C1.66127487 11.58461283 1.32925376 10.16762037 1 8.75 C0.814375 7.96109375 0.62875 7.1721875 0.4375 6.359375 C0 4 0 4 0 0 Z " fill="#2C3B3F" transform="translate(576,596)"/>
<path d="M0 0 C1.32 0 2.64 0 4 0 C4 1.65 4 3.3 4 5 C2.68 5.33 1.36 5.66 0 6 C-0.38218767 4.34385343 -0.71395102 2.67542976 -1 1 C-0.67 0.67 -0.34 0.34 0 0 Z " fill="#8EA2A3" transform="translate(630,502)"/>
<path d="M0 0 C1.4540625 0.0309375 1.4540625 0.0309375 2.9375 0.0625 C1.96183888 1.23209987 0.981875 2.39811177 0 3.5625 C-0.54527344 4.2121875 -1.09054687 4.861875 -1.65234375 5.53125 C-2.11769531 6.0365625 -2.58304687 6.541875 -3.0625 7.0625 C-3.3925 7.0625 -3.7225 7.0625 -4.0625 7.0625 C-4.10504356 5.06295254 -4.10330783 3.06208364 -4.0625 1.0625 C-3.0625 0.0625 -3.0625 0.0625 0 0 Z " fill="#E5E5E3" transform="translate(482.0625,529.9375)"/>
<path d="M0 0 C0.66 0.33 1.32 0.66 2 1 C-0.31 3.64 -2.62 6.28 -5 9 C-5.99 8.67 -6.98 8.34 -8 8 C-5.36 5.36 -2.72 2.72 0 0 Z " fill="#182B2C" transform="translate(657,666)"/>
<path d="M0 0 C-1.5830577 4.2742558 -4.50568404 6.26531794 -8 9 C-8.66 8.67 -9.32 8.34 -10 8 C-8.71451591 6.66070495 -7.42141845 5.32871357 -6.125 4 C-5.04605469 2.88625 -5.04605469 2.88625 -3.9453125 1.75 C-2 0 -2 0 0 0 Z " fill="#212A2F" transform="translate(354,314)"/>
<path d="M0 0 C-0.33 0.66 -0.66 1.32 -1 2 C-2.31774196 2.39044206 -3.65667272 2.70955086 -5 3 C-7.00382009 3.65509503 -9.00458132 4.31974363 -11 5 C-4.74206349 -1.42261905 -4.74206349 -1.42261905 0 0 Z " fill="#8AA2A3" transform="translate(392,306)"/>
<path d="M0 0 C0.33 0 0.66 0 1 0 C1 2.64 1 5.28 1 8 C1.66 8.33 2.32 8.66 3 9 C3 9.66 3 10.32 3 11 C2.34 11 1.68 11 1 11 C-2.09917355 6.8677686 -2.09917355 6.8677686 -1.75 3.8125 C-1.21535034 2.52043 -0.62534713 1.25069425 0 0 Z " fill="#D4E0DE" transform="translate(363,504)"/>
<path d="M0 0 C0.99 0.99 1.98 1.98 3 3 C3.66 2.67 4.32 2.34 5 2 C5.66 2.66 6.32 3.32 7 4 C5.6875 5.5 5.6875 5.5 4 7 C3.01 7 2.02 7 1 7 C0.67 4.69 0.34 2.38 0 0 Z " fill="#E6EAE3" transform="translate(736,701)"/>
<path d="M0 0 C0.66 0.33 1.32 0.66 2 1 C0.70700306 3.88437779 -0.65941363 5.87219421 -3 8 C-3.99 7.67 -4.98 7.34 -6 7 C-4.02 4.69 -2.04 2.38 0 0 Z " fill="#2E373C" transform="translate(577,663)"/>
<path d="M0 0 C1.485 0.99 1.485 0.99 3 2 C3.29296875 4.6015625 3.29296875 4.6015625 3.1875 7.625 C3.16042969 8.62789063 3.13335938 9.63078125 3.10546875 10.6640625 C3.07066406 11.43492187 3.03585937 12.20578125 3 13 C2.67 13 2.34 13 2 13 C1.66127487 11.58461283 1.32925376 10.16762037 1 8.75 C0.814375 7.96109375 0.62875 7.1721875 0.4375 6.359375 C0 4 0 4 0 0 Z " fill="#98ADAD" transform="translate(752,434)"/>
<path d="M0 0 C0 2 0 4 0 6 C-1.8125 7.0625 -1.8125 7.0625 -4 8 C-4.99 7.67 -5.98 7.34 -7 7 C-4.69 4.69 -2.38 2.38 0 0 Z " fill="#96A6A4" transform="translate(292,290)"/>
<path d="M0 0 C0.66 0.33 1.32 0.66 2 1 C0.02 3.97 -1.96 6.94 -4 10 C-4.33 8.68 -4.66 7.36 -5 6 C-4.01 5.67 -3.02 5.34 -2 5 C-2 4.01 -2 3.02 -2 2 C-1.34 2 -0.68 2 0 2 C0 1.34 0 0.68 0 0 Z " fill="#90A9AB" transform="translate(690,623)"/>
<path d="M0 0 C0.99 0.33 1.98 0.66 3 1 C2.6875 3.375 2.6875 3.375 2 6 C1.01 6.66 0.02 7.32 -1 8 C-0.67 5.36 -0.34 2.72 0 0 Z " fill="#728686" transform="translate(333,756)"/>
<path d="M0 0 C0 3 0 3 -1.8125 5.1875 C-4 7 -4 7 -7 7 C-7 6.34 -7 5.68 -7 5 C-5.46875 3.7109375 -5.46875 3.7109375 -3.5 2.375 C-2.8503125 1.92898438 -2.200625 1.48296875 -1.53125 1.0234375 C-1.0259375 0.68570313 -0.520625 0.34796875 0 0 Z " fill="#8FAAAC" transform="translate(571,688)"/>
<path d="M0 0 C0.99 0.33 1.98 0.66 3 1 C1.35 2.65 -0.3 4.3 -2 6 C-2.66 5.34 -3.32 4.68 -4 4 C-2.68 2.68 -1.36 1.36 0 0 Z " fill="#32353E" transform="translate(459,554)"/>
<path d="M0 0 C0.99 0.99 1.98 1.98 3 3 C2.01 5.31 1.02 7.62 0 10 C-1.6415049 6.7169902 -0.51888624 3.57454967 0 0 Z " fill="#7C9291" transform="translate(329,248)"/>
<path d="M0 0 C0.33 0.66 0.66 1.32 1 2 C1.66 2.33 2.32 2.66 3 3 C1.35 4.32 -0.3 5.64 -2 7 C-2.33 6.01 -2.66 5.02 -3 4 C-1.5625 1.8125 -1.5625 1.8125 0 0 Z " fill="#DCDADE" transform="translate(452,556)"/>
<path d="M0 0 C0.66 0.66 1.32 1.32 2 2 C1.75 5.0625 1.75 5.0625 1 8 C0.01 8.495 0.01 8.495 -1 9 C-1.09765625 2.84765625 -1.09765625 2.84765625 -1 1 C-0.67 0.67 -0.34 0.34 0 0 Z " fill="#E4EDE4" transform="translate(681,494)"/>
<path d="M0 0 C0.556875 0.639375 1.11375 1.27875 1.6875 1.9375 C4.22066561 4.19680987 5.68341424 4.63149047 9 5 C9 5.33 9 5.66 9 6 C5.625 6.125 5.625 6.125 2 6 C1.34 5.34 0.68 4.68 0 4 C0 2.68 0 1.36 0 0 Z " fill="#D7DBD9" transform="translate(452,335)"/>
</svg>
